<svg viewBox="0 0 123 125" xmlns="http://www.w3.org/2000/svg" fill-rule="evenodd" clip-rule="evenodd"><g fill="#eab543"><path d="M61.678.137c1.183.005 2.366.041 3.547.113 2.26.139 4.512.403 6.742.792 3 .525 5.961 1.276 8.85 2.248 1.958.659 3.882 1.419 5.764 2.275 6.026 2.74 11.609 6.478 16.467 11.013 1.536 1.433 3 2.945 4.386 4.527 1.715 1.958 3.308 4.028 4.767 6.189 1.152 1.705 2.221 3.468 3.199 5.281 1.163 2.156 2.201 4.381 3.105 6.662 1.411 3.56 2.494 7.256 3.23 11.02.796 4.068 1.188 8.219 1.172 12.366-.009 2.582-.169 5.163-.493 7.724-.404 3.207-1.05 6.383-1.943 9.486-.562 1.955-1.217 3.882-1.966 5.771-.488 1.23-1.015 2.443-1.578 3.639-.348.739-.712 1.47-1.088 2.194-1.413 2.712-3.022 5.32-4.813 7.791-.946 1.306-1.942 2.574-2.984 3.802-1.281 1.511-2.637 2.957-4.054 4.337-5.479 5.334-11.937 9.627-18.95 12.585-3.725 1.571-7.604 2.767-11.561 3.562-3.948.794-7.972 1.19-11.997 1.19-4.024 0-8.049-.396-11.996-1.19-3.958-.796-7.836-1.991-11.562-3.562-7.013-2.958-13.471-7.251-18.95-12.585-1.639-1.596-3.192-3.28-4.649-5.048-3.325-4.034-6.148-8.495-8.37-13.245-1.502-3.213-2.734-6.555-3.672-9.981-.75-2.742-1.312-5.537-1.685-8.357-.138-1.041-.248-2.086-.334-3.133-.059-.727-.107-1.454-.14-2.182-.04-.865-.062-1.73-.068-2.595-.011-1.4.029-2.801.111-4.199.042-.726.098-1.451.166-2.175.159-1.691.386-3.376.681-5.048.48-2.722 1.141-5.41 1.974-8.042.249-.788.516-1.57.796-2.347.707-1.96 1.514-3.883 2.413-5.76 1.19-2.482 2.544-4.882 4.047-7.183.782-1.197 1.605-2.369 2.468-3.508 2.657-3.507 5.675-6.732 8.998-9.597 2.533-2.184 5.238-4.161 8.084-5.904 2.122-1.299 4.323-2.466 6.584-3.497 5.01-2.283 10.328-3.87 15.757-4.712 1.986-.307 3.987-.516 5.994-.626 1.05-.058 2.102-.086 3.154-.091h.397zm-.379 5.489c-.961.004-1.921.031-2.881.083-1.83.1-3.655.291-5.467.572-4.946.766-9.792 2.212-14.355 4.292-2.063.94-4.069 2.004-6.005 3.189-2.597 1.59-5.065 3.395-7.376 5.387-3.502 3.018-6.638 6.476-9.313 10.266-1.836 2.602-3.458 5.361-4.837 8.239-2.23 4.655-3.825 9.62-4.724 14.716-.269 1.524-.476 3.06-.62 4.602-.062.658-.114 1.317-.152 1.978-.074 1.276-.112 2.555-.102 3.834.006.793.026 1.587.063 2.379.075 1.619.219 3.236.431 4.843.272 2.049.652 4.084 1.142 6.091.427 1.753.938 3.485 1.531 5.187.247.71.509 1.415.783 2.115.397 1.015.825 2.019 1.282 3.008.575 1.246 1.194 2.473 1.857 3.674 1.016 1.843 2.134 3.628 3.346 5.345 1.926 2.728 4.092 5.281 6.457 7.626.841.834 1.709 1.64 2.601 2.418 2.598 2.267 5.398 4.294 8.358 6.046 2.053 1.215 4.183 2.294 6.371 3.234 3.757 1.615 7.692 2.805 11.706 3.546 3.207.591 6.464.896 9.723.918 3.792.024 7.586-.336 11.305-1.084 3.496-.703 6.922-1.749 10.221-3.115 4.491-1.859 8.742-4.322 12.608-7.293 1.654-1.271 3.238-2.635 4.746-4.082 1.302-1.249 2.542-2.565 3.722-3.935.811-.942 1.589-1.914 2.338-2.908.579-.769 1.137-1.554 1.676-2.352.635-.941 1.244-1.901 1.822-2.879.784-1.327 1.514-2.686 2.19-4.072 1.44-2.953 2.618-6.036 3.528-9.198.226-.785.432-1.577.625-2.372.373-1.544.681-3.106.922-4.678.145-.944.267-1.892.366-2.842.068-.658.124-1.317.17-1.978.098-1.393.142-2.791.137-4.188-.005-1.275-.048-2.551-.137-3.824-.166-2.38-.475-4.749-.933-7.089-.67-3.43-1.656-6.797-2.942-10.041-.825-2.08-1.772-4.109-2.832-6.075-.891-1.653-1.867-3.26-2.916-4.814-1.331-1.971-2.783-3.859-4.348-5.644-1.266-1.445-2.603-2.826-4.005-4.135-4.304-4.018-9.233-7.352-14.55-9.828-1.863-.868-3.773-1.633-5.719-2.288-2.467-.829-4.991-1.483-7.548-1.955-2.085-.386-4.193-.649-6.308-.792-1.016-.069-2.034-.108-3.052-.123l-.905-.004zM26.963 90.763c-.114.017-.231.017-.345 0l-4.632-1.543c-.776-.39-1.271-1.19-1.279-2.068-.13-.931.177-1.872.83-2.541l24.595-21.029c.344-.325.846-.415 1.279-.228l2.455 1.086c.146.067.305.103.466.105h22.314c.161-.001.32-.038.466-.105l2.454-1.086c.432-.187.936-.097 1.279.228l24.595 21.029h-.017c.652.669.96 1.61.83 2.541-.008.878-.504 1.678-1.279 2.068l-4.632 1.543c-.121.018-.243.018-.362 0h-69.017zm41.292-49.666c.091.019.186.019.277 0l1.486-.666c.264-.113.569-.058.778.14l14.933 12.776h.017c.407.4.594.976.503 1.542 0 .536-.303 1.027-.779 1.262l-2.818.929h-42.328l-2.817-.929c-.473-.237-.774-.727-.778-1.262-.092-.566.096-1.142.501-1.542l14.934-12.776c.209-.198.514-.253.777-.14l1.487.666c.091.019.186.019.277 0h13.55zm-5.115-21.608c.574 0 1.131.205 1.572.579l12.946 10.935c.262.274.384.656.328 1.034-.002.356-.204.683-.518.841l-1.884.613h-28.225l-1.884-.613c-.316-.158-.516-.485-.518-.841-.056-.378.066-.76.328-1.034l12.946-10.935c.441-.374.998-.579 1.572-.579h3.337z"/></g></svg>