<?xml version="1.0" encoding="UTF-8" standalone="no"?>
<!DOCTYPE svg PUBLIC "-//W3C//DTD SVG 1.1//EN" "http://www.w3.org/Graphics/SVG/1.1/DTD/svg11.dtd">
<svg width="100%" height="100%" viewBox="0 0 1281 800" version="1.1" xmlns="http://www.w3.org/2000/svg" xmlns:xlink="http://www.w3.org/1999/xlink" xml:space="preserve" xmlns:serif="http://www.serif.com/" style="fill-rule:evenodd;clip-rule:evenodd;stroke-linejoin:round;stroke-miterlimit:1.41421;">
    <g transform="matrix(1,0,0,1,-5452,0)">
        <g transform="matrix(1.02896,0,0,1.04344,3665.25,-1041.09)">
            <path d="M2017.69,1761.14C2018.5,1761.76 2018.65,1762.91 2018.04,1763.72C2017.42,1764.52 2016.27,1764.68 2015.46,1764.07C2014.65,1763.45 2014.5,1762.3 2015.11,1761.49C2015.73,1760.68 2016.88,1760.53 2017.69,1761.14ZM1909.34,1757.98C1909.93,1758.89 1909.67,1760.1 1908.77,1760.69C1907.86,1761.27 1906.65,1761.02 1906.06,1760.11C1905.48,1759.21 1905.73,1758 1906.64,1757.41C1907.54,1756.82 1908.76,1757.08 1909.34,1757.98ZM2898.53,1756.59C2899.31,1756.91 2899.68,1757.8 2899.36,1758.58C2899.04,1759.36 2898.15,1759.73 2897.37,1759.41C2896.6,1759.09 2896.22,1758.2 2896.54,1757.42C2896.86,1756.64 2897.75,1756.27 2898.53,1756.59ZM2639.3,1754.85C2639.27,1753.96 2639.97,1753.21 2640.87,1753.18C2641.76,1753.16 2642.51,1753.86 2642.54,1754.76C2642.57,1755.65 2641.86,1756.4 2640.97,1756.43C2640.07,1756.45 2639.32,1755.75 2639.3,1754.85ZM2111.09,1752.62C2111.6,1751.57 2112.86,1751.13 2113.91,1751.64C2114.97,1752.15 2115.41,1753.41 2114.9,1754.47C2114.39,1755.52 2113.12,1755.96 2112.07,1755.45C2111.02,1754.94 2110.58,1753.67 2111.09,1752.62ZM2432.33,1751.98C2433.16,1752.24 2433.62,1753.12 2433.37,1753.95C2433.11,1754.78 2432.22,1755.25 2431.39,1754.99C2430.56,1754.73 2430.1,1753.85 2430.36,1753.02C2430.62,1752.18 2431.5,1751.72 2432.33,1751.98ZM2762.11,1753.13C2761.22,1753.99 2759.81,1753.97 2758.95,1753.08C2758.1,1752.2 2758.12,1750.79 2759,1749.93C2759.89,1749.07 2761.3,1749.1 2762.16,1749.98C2763.01,1750.86 2762.99,1752.28 2762.11,1753.13ZM2579.3,1751.43C2579,1752.01 2578.28,1752.24 2577.7,1751.94C2577.12,1751.64 2576.89,1750.93 2577.2,1750.35C2577.5,1749.77 2578.21,1749.54 2578.79,1749.84C2579.37,1750.14 2579.6,1750.85 2579.3,1751.43ZM2213.62,1748.79C2213.55,1749.74 2212.71,1750.45 2211.76,1750.38C2210.81,1750.31 2210.1,1749.48 2210.17,1748.52C2210.24,1747.57 2211.07,1746.86 2212.03,1746.93C2212.98,1747 2213.69,1747.83 2213.62,1748.79ZM2303.07,1748.85C2302.95,1747.91 2303.62,1747.06 2304.55,1746.95C2305.49,1746.83 2306.34,1747.5 2306.45,1748.43C2306.57,1749.37 2305.9,1750.22 2304.97,1750.33C2304.03,1750.45 2303.18,1749.78 2303.07,1748.85ZM2832.14,1744.96C2831.43,1744.72 2831.05,1743.96 2831.29,1743.25C2831.52,1742.54 2832.28,1742.16 2832.99,1742.39C2833.7,1742.63 2834.08,1743.39 2833.85,1744.1C2833.61,1744.81 2832.85,1745.19 2832.14,1744.96ZM2692.69,1734.37C2691.94,1733.49 2692.05,1732.17 2692.93,1731.42C2693.81,1730.67 2695.13,1730.78 2695.88,1731.66C2696.62,1732.54 2696.52,1733.86 2695.64,1734.61C2694.76,1735.36 2693.44,1735.25 2692.69,1734.37ZM1764.78,1733.82C1764.2,1734.49 1763.19,1734.56 1762.53,1733.98C1761.86,1733.4 1761.79,1732.39 1762.37,1731.73C1762.95,1731.06 1763.96,1730.99 1764.62,1731.57C1765.29,1732.15 1765.36,1733.16 1764.78,1733.82ZM2964.62,1732.49C2963.99,1732.7 2963.31,1732.36 2963.09,1731.73C2962.88,1731.1 2963.22,1730.41 2963.85,1730.2C2964.48,1729.99 2965.17,1730.33 2965.38,1730.96C2965.59,1731.59 2965.26,1732.27 2964.62,1732.49ZM2492.99,1731.43C2492.26,1730.98 2492.04,1730.02 2492.49,1729.3C2492.94,1728.57 2493.9,1728.35 2494.62,1728.8C2495.35,1729.25 2495.57,1730.21 2495.12,1730.93C2494.67,1731.66 2493.71,1731.88 2492.99,1731.43ZM2374.44,1727.54C2373.48,1727.48 2372.75,1726.64 2372.82,1725.68C2372.88,1724.71 2373.72,1723.98 2374.68,1724.05C2375.65,1724.12 2376.38,1724.95 2376.31,1725.91C2376.24,1726.88 2375.41,1727.61 2374.44,1727.54ZM2051.49,1717.69C2051.91,1718.38 2051.68,1719.29 2050.99,1719.71C2050.29,1720.13 2049.38,1719.91 2048.96,1719.21C2048.54,1718.52 2048.76,1717.61 2049.46,1717.19C2050.16,1716.77 2051.07,1716.99 2051.49,1717.69ZM1982.24,1709.97C1982.48,1709.03 1983.43,1708.46 1984.37,1708.7C1985.31,1708.93 1985.88,1709.89 1985.64,1710.83C1985.4,1711.76 1984.45,1712.33 1983.51,1712.1C1982.58,1711.86 1982.01,1710.91 1982.24,1709.97ZM2898.58,1705.95C2898.32,1706.92 2897.32,1707.49 2896.35,1707.23C2895.38,1706.97 2894.81,1705.98 2895.07,1705.01C2895.33,1704.04 2896.33,1703.46 2897.3,1703.72C2898.26,1703.98 2898.84,1704.98 2898.58,1705.95ZM1908.42,1705.27C1907.47,1705.45 1906.55,1704.82 1906.37,1703.86C1906.19,1702.91 1906.82,1701.99 1907.78,1701.82C1908.73,1701.64 1909.65,1702.27 1909.83,1703.22C1910,1704.17 1909.37,1705.09 1908.42,1705.27ZM2547.05,1703.54C2546.59,1702.95 2546.69,1702.11 2547.28,1701.65C2547.86,1701.19 2548.71,1701.29 2549.17,1701.88C2549.63,1702.46 2549.52,1703.31 2548.94,1703.77C2548.35,1704.23 2547.51,1704.12 2547.05,1703.54ZM2148.6,1697.94C2149.19,1697.59 2149.95,1697.78 2150.3,1698.37C2150.65,1698.96 2150.46,1699.72 2149.88,1700.07C2149.29,1700.42 2148.53,1700.23 2148.18,1699.64C2147.82,1699.06 2148.01,1698.3 2148.6,1697.94ZM1822.48,1697.04C1822.95,1696.51 1823.77,1696.46 1824.31,1696.94C1824.84,1697.41 1824.89,1698.23 1824.41,1698.77C1823.94,1699.3 1823.12,1699.35 1822.58,1698.87C1822.05,1698.39 1822,1697.58 1822.48,1697.04ZM2643.12,1695.55C2642.22,1695.56 2641.48,1694.84 2641.47,1693.94C2641.47,1693.04 2642.19,1692.31 2643.09,1692.3C2643.98,1692.29 2644.72,1693.01 2644.73,1693.91C2644.74,1694.81 2644.01,1695.54 2643.12,1695.55ZM2815.4,1691.09C2814.8,1691.94 2813.62,1692.14 2812.77,1691.54C2811.92,1690.94 2811.72,1689.76 2812.32,1688.91C2812.92,1688.06 2814.1,1687.86 2814.95,1688.46C2815.8,1689.06 2816,1690.24 2815.4,1691.09ZM2431.02,1687.57C2430.51,1687.25 2430.35,1686.57 2430.67,1686.06C2430.99,1685.55 2431.67,1685.4 2432.18,1685.72C2432.69,1686.04 2432.84,1686.71 2432.52,1687.22C2432.2,1687.73 2431.53,1687.89 2431.02,1687.57ZM2248.89,1686.94C2248.42,1686.24 2248.6,1685.3 2249.3,1684.83C2250,1684.36 2250.94,1684.54 2251.41,1685.24C2251.88,1685.94 2251.7,1686.88 2251,1687.35C2250.3,1687.82 2249.36,1687.63 2248.89,1686.94ZM2748.48,1680.97C2748.8,1681.75 2748.43,1682.64 2747.66,1682.96C2746.88,1683.29 2745.99,1682.92 2745.67,1682.14C2745.35,1681.37 2745.71,1680.48 2746.49,1680.15C2747.26,1679.83 2748.15,1680.2 2748.48,1680.97ZM2325.14,1669.79C2324.32,1669.43 2323.95,1668.47 2324.31,1667.65C2324.67,1666.82 2325.63,1666.45 2326.45,1666.81C2327.27,1667.17 2327.64,1668.13 2327.28,1668.95C2326.92,1669.78 2325.96,1670.15 2325.14,1669.79ZM2063.48,1661.14C2062.33,1660.84 2061.64,1659.66 2061.94,1658.52C2062.24,1657.37 2063.41,1656.68 2064.56,1656.98C2065.71,1657.28 2066.4,1658.45 2066.1,1659.6C2065.8,1660.75 2064.62,1661.44 2063.48,1661.14ZM2593.74,1655.89C2592.93,1655.26 2592.78,1654.1 2593.4,1653.29C2594.03,1652.48 2595.19,1652.33 2596,1652.95C2596.81,1653.58 2596.96,1654.74 2596.34,1655.55C2595.71,1656.36 2594.55,1656.51 2593.74,1655.89ZM2945.72,1646.1C2946.75,1645.89 2947.76,1646.56 2947.96,1647.6C2948.17,1648.63 2947.5,1649.64 2946.47,1649.85C2945.43,1650.05 2944.43,1649.38 2944.22,1648.35C2944.01,1647.31 2944.68,1646.31 2945.72,1646.1ZM2865.05,1645.71C2865.96,1645.79 2866.62,1646.59 2866.54,1647.5C2866.46,1648.4 2865.66,1649.06 2864.76,1648.98C2863.85,1648.9 2863.19,1648.1 2863.27,1647.2C2863.35,1646.3 2864.15,1645.63 2865.05,1645.71ZM2473.39,1644.27C2473.48,1643.48 2474.2,1642.92 2474.99,1643.02C2475.78,1643.12 2476.34,1643.84 2476.24,1644.62C2476.14,1645.41 2475.42,1645.97 2474.63,1645.87C2473.84,1645.77 2473.29,1645.05 2473.39,1644.27ZM2177.93,1636.91C2178.23,1637.96 2177.63,1639.06 2176.58,1639.37C2175.53,1639.68 2174.43,1639.08 2174.12,1638.03C2173.81,1636.97 2174.42,1635.87 2175.47,1635.57C2176.52,1635.26 2177.62,1635.86 2177.93,1636.91ZM2680.47,1635.27C2680.93,1634.69 2681.78,1634.59 2682.37,1635.06C2682.95,1635.53 2683.05,1636.38 2682.58,1636.96C2682.12,1637.55 2681.26,1637.64 2680.68,1637.18C2680.09,1636.71 2680,1635.86 2680.47,1635.27ZM1753.12,1632.01C1753.74,1631.86 1754.37,1632.25 1754.52,1632.87C1754.67,1633.49 1754.29,1634.12 1753.66,1634.27C1753.04,1634.42 1752.41,1634.04 1752.26,1633.41C1752.11,1632.79 1752.5,1632.16 1753.12,1632.01ZM1894.01,1627.4C1895.09,1627.54 1895.86,1628.54 1895.72,1629.62C1895.58,1630.7 1894.59,1631.47 1893.51,1631.33C1892.42,1631.19 1891.65,1630.2 1891.79,1629.12C1891.93,1628.03 1892.92,1627.27 1894.01,1627.4ZM2535.79,1624.93C2536.53,1624.99 2537.08,1625.64 2537.01,1626.38C2536.95,1627.12 2536.3,1627.67 2535.56,1627.61C2534.82,1627.55 2534.27,1626.89 2534.33,1626.15C2534.4,1625.41 2535.05,1624.86 2535.79,1624.93ZM2403.63,1625.75C2403.21,1624.66 2403.75,1623.42 2404.85,1623C2405.95,1622.58 2407.18,1623.12 2407.6,1624.22C2408.02,1625.31 2407.48,1626.54 2406.38,1626.97C2405.29,1627.39 2404.06,1626.85 2403.63,1625.75ZM2791.2,1626.18C2790.18,1625.25 2790.11,1623.67 2791.04,1622.65C2791.97,1621.64 2793.55,1621.57 2794.57,1622.5C2795.59,1623.43 2795.66,1625.01 2794.72,1626.02C2793.79,1627.04 2792.22,1627.11 2791.2,1626.18ZM1967.28,1619.66C1966.97,1620.42 1966.1,1620.79 1965.34,1620.48C1964.58,1620.17 1964.21,1619.3 1964.52,1618.54C1964.83,1617.78 1965.7,1617.41 1966.46,1617.72C1967.23,1618.03 1967.59,1618.9 1967.28,1619.66ZM2245.62,1609.44C2246.02,1610.87 2245.19,1612.35 2243.77,1612.75C2242.34,1613.16 2240.86,1612.33 2240.46,1610.91C2240.05,1609.48 2240.88,1608 2242.31,1607.6C2243.73,1607.19 2245.21,1608.02 2245.62,1609.44ZM2093.64,1599.84C2093.43,1600.6 2092.65,1601.06 2091.89,1600.85C2091.13,1600.65 2090.68,1599.87 2090.88,1599.11C2091.09,1598.35 2091.87,1597.89 2092.63,1598.1C2093.39,1598.3 2093.84,1599.08 2093.64,1599.84ZM1827.71,1599.47C1827.41,1598.86 1827.66,1598.13 1828.27,1597.83C1828.87,1597.54 1829.6,1597.79 1829.9,1598.39C1830.2,1599 1829.95,1599.73 1829.34,1600.03C1828.74,1600.32 1828.01,1600.07 1827.71,1599.47ZM2303,1591.03C2303.91,1591.73 2304.09,1593.04 2303.39,1593.95C2302.69,1594.87 2301.38,1595.05 2300.46,1594.34C2299.55,1593.64 2299.37,1592.34 2300.07,1591.42C2300.77,1590.5 2302.08,1590.33 2303,1591.03ZM2484.3,1584.37C2483.64,1584.68 2482.85,1584.39 2482.55,1583.73C2482.24,1583.07 2482.52,1582.28 2483.18,1581.98C2483.85,1581.67 2484.63,1581.95 2484.94,1582.62C2485.24,1583.28 2484.96,1584.06 2484.3,1584.37ZM2363.39,1582.95C2362.45,1583.2 2361.49,1582.64 2361.24,1581.71C2360.98,1580.77 2361.54,1579.81 2362.47,1579.56C2363.41,1579.3 2364.38,1579.86 2364.63,1580.8C2364.88,1581.73 2364.32,1582.7 2363.39,1582.95ZM2167.82,1575.3C2167.4,1574.57 2167.64,1573.63 2168.37,1573.2C2169.1,1572.78 2170.03,1573.02 2170.46,1573.75C2170.89,1574.48 2170.64,1575.41 2169.92,1575.84C2169.19,1576.27 2168.25,1576.02 2167.82,1575.3ZM2609.66,1570.36C2610.31,1569.71 2611.37,1569.71 2612.02,1570.36C2612.67,1571.01 2612.67,1572.07 2612.02,1572.72C2611.36,1573.37 2610.31,1573.37 2609.66,1572.72C2609,1572.07 2609.01,1571.01 2609.66,1570.36ZM2671.63,1570.1C2670.62,1571.17 2668.94,1571.22 2667.87,1570.21C2666.8,1569.21 2666.74,1567.52 2667.75,1566.45C2668.76,1565.38 2670.44,1565.33 2671.51,1566.33C2672.59,1567.34 2672.64,1569.03 2671.63,1570.1ZM2891.12,1566.91C2891.32,1565.85 2892.34,1565.15 2893.41,1565.35C2894.47,1565.56 2895.16,1566.58 2894.96,1567.64C2894.76,1568.71 2893.74,1569.4 2892.67,1569.2C2891.61,1569 2890.91,1567.97 2891.12,1566.91ZM2809.24,1565.43C2809.54,1564.4 2810.63,1563.81 2811.66,1564.12C2812.7,1564.43 2813.28,1565.51 2812.97,1566.55C2812.66,1567.58 2811.58,1568.17 2810.55,1567.86C2809.51,1567.55 2808.93,1566.46 2809.24,1565.43ZM2965.93,1567.02C2965.45,1566.59 2965.41,1565.85 2965.85,1565.37C2966.28,1564.89 2967.02,1564.85 2967.5,1565.28C2967.98,1565.72 2968.02,1566.46 2967.59,1566.94C2967.15,1567.42 2966.41,1567.46 2965.93,1567.02ZM2550.53,1567.02C2549.7,1567.07 2548.97,1566.44 2548.92,1565.6C2548.86,1564.76 2549.5,1564.04 2550.33,1563.98C2551.17,1563.92 2551.9,1564.56 2551.95,1565.4C2552.01,1566.24 2551.37,1566.96 2550.53,1567.02ZM2728.09,1563.56C2727.06,1562.71 2726.91,1561.18 2727.76,1560.14C2728.61,1559.1 2730.14,1558.95 2731.18,1559.8C2732.22,1560.65 2732.37,1562.19 2731.51,1563.22C2730.66,1564.26 2729.13,1564.41 2728.09,1563.56ZM1763.26,1562.62C1762.23,1562.29 1761.66,1561.19 1761.99,1560.15C1762.32,1559.12 1763.43,1558.55 1764.47,1558.88C1765.5,1559.21 1766.07,1560.32 1765.74,1561.35C1765.41,1562.39 1764.3,1562.96 1763.26,1562.62ZM2033.92,1559.01C2034.56,1558.3 2035.66,1558.25 2036.37,1558.9C2037.08,1559.55 2037.12,1560.65 2036.48,1561.35C2035.83,1562.06 2034.73,1562.11 2034.02,1561.46C2033.32,1560.81 2033.27,1559.72 2033.92,1559.01ZM2232.67,1541.92C2233.73,1541.95 2234.56,1542.83 2234.52,1543.89C2234.49,1544.94 2233.61,1545.77 2232.55,1545.74C2231.5,1545.71 2230.67,1544.83 2230.7,1543.77C2230.73,1542.72 2231.62,1541.89 2232.67,1541.92ZM2431.47,1540.93C2432.44,1540.93 2433.23,1541.72 2433.23,1542.68C2433.23,1543.65 2432.44,1544.44 2431.47,1544.44C2430.51,1544.44 2429.72,1543.65 2429.72,1542.68C2429.72,1541.72 2430.51,1540.93 2431.47,1540.93ZM1879.04,1539.13C1878.52,1538.57 1878.54,1537.68 1879.1,1537.15C1879.66,1536.63 1880.54,1536.65 1881.07,1537.21C1881.6,1537.77 1881.58,1538.65 1881.02,1539.18C1880.46,1539.71 1879.57,1539.68 1879.04,1539.13ZM1968.25,1527.39C1967.39,1527.03 1966.99,1526.04 1967.35,1525.18C1967.72,1524.33 1968.7,1523.92 1969.56,1524.29C1970.41,1524.65 1970.82,1525.64 1970.45,1526.5C1970.09,1527.35 1969.1,1527.75 1968.25,1527.39ZM2130.88,1523.09C2131.81,1522.21 2133.28,1522.24 2134.16,1523.17C2135.05,1524.09 2135.01,1525.56 2134.09,1526.45C2133.16,1527.33 2131.69,1527.3 2130.81,1526.37C2129.92,1525.45 2129.96,1523.98 2130.88,1523.09ZM2297.27,1521.88C2296.92,1522.9 2295.81,1523.45 2294.78,1523.1C2293.76,1522.76 2293.21,1521.64 2293.56,1520.62C2293.9,1519.59 2295.02,1519.04 2296.04,1519.39C2297.07,1519.74 2297.62,1520.85 2297.27,1521.88ZM2497.47,1516.55C2496.83,1517.26 2495.74,1517.32 2495.03,1516.68C2494.31,1516.05 2494.25,1514.95 2494.89,1514.24C2495.52,1513.53 2496.62,1513.47 2497.33,1514.11C2498.04,1514.74 2498.1,1515.83 2497.47,1516.55ZM2374.18,1503.89C2374.59,1504.84 2374.16,1505.94 2373.21,1506.35C2372.27,1506.76 2371.17,1506.33 2370.76,1505.38C2370.35,1504.44 2370.78,1503.34 2371.72,1502.93C2372.67,1502.52 2373.77,1502.95 2374.18,1503.89ZM2773.03,1503.7C2772.23,1504.64 2770.83,1504.76 2769.88,1503.96C2768.94,1503.17 2768.82,1501.76 2769.62,1500.82C2770.41,1499.88 2771.82,1499.76 2772.76,1500.55C2773.7,1501.35 2773.82,1502.76 2773.03,1503.7ZM2562.57,1501.06C2562.02,1501.51 2561.2,1501.42 2560.75,1500.86C2560.3,1500.31 2560.39,1499.49 2560.94,1499.04C2561.5,1498.59 2562.31,1498.68 2562.76,1499.23C2563.22,1499.79 2563.13,1500.61 2562.57,1501.06ZM1770.91,1496.28C1771.98,1496.61 1772.59,1497.76 1772.26,1498.83C1771.92,1499.91 1770.78,1500.51 1769.71,1500.18C1768.63,1499.85 1768.03,1498.71 1768.36,1497.63C1768.69,1496.56 1769.83,1495.95 1770.91,1496.28ZM2839.94,1497.96C2839.65,1498.69 2838.83,1499.05 2838.1,1498.76C2837.37,1498.48 2837.01,1497.65 2837.3,1496.93C2837.58,1496.2 2838.41,1495.84 2839.13,1496.12C2839.86,1496.41 2840.22,1497.23 2839.94,1497.96ZM2198.03,1491.45C2197.76,1492.25 2196.9,1492.68 2196.1,1492.41C2195.3,1492.15 2194.86,1491.28 2195.13,1490.48C2195.4,1489.68 2196.26,1489.25 2197.07,1489.51C2197.87,1489.78 2198.3,1490.65 2198.03,1491.45ZM2649.55,1489.28C2649.67,1490.25 2648.98,1491.14 2648,1491.26C2647.03,1491.38 2646.14,1490.69 2646.02,1489.72C2645.9,1488.74 2646.59,1487.86 2647.56,1487.73C2648.54,1487.61 2649.42,1488.3 2649.55,1489.28ZM2048.47,1489.06C2048.57,1488.32 2049.25,1487.81 2049.98,1487.9C2050.72,1488 2051.24,1488.68 2051.14,1489.42C2051.05,1490.16 2050.36,1490.68 2049.62,1490.58C2048.89,1490.48 2048.37,1489.8 2048.47,1489.06ZM2922.77,1485.93C2923.34,1485.7 2924,1485.97 2924.23,1486.54C2924.47,1487.11 2924.2,1487.77 2923.62,1488C2923.05,1488.24 2922.4,1487.97 2922.16,1487.4C2921.93,1486.82 2922.2,1486.17 2922.77,1485.93ZM2710.59,1483.51C2711.21,1483.95 2711.35,1484.81 2710.91,1485.42C2710.47,1486.04 2709.61,1486.18 2708.99,1485.74C2708.38,1485.3 2708.23,1484.44 2708.67,1483.83C2709.12,1483.21 2709.97,1483.06 2710.59,1483.51ZM1903.48,1476.17C1903.76,1477.05 1903.28,1477.99 1902.4,1478.27C1901.53,1478.55 1900.59,1478.06 1900.31,1477.19C1900.03,1476.32 1900.51,1475.38 1901.39,1475.1C1902.26,1474.82 1903.2,1475.3 1903.48,1476.17ZM2980.76,1471.66C2980.84,1472.78 2980,1473.75 2978.88,1473.83C2977.75,1473.91 2976.78,1473.07 2976.7,1471.94C2976.62,1470.82 2977.47,1469.85 2978.59,1469.77C2979.71,1469.69 2980.69,1470.54 2980.76,1471.66ZM2463.15,1465.76C2462.4,1467.03 2460.76,1467.44 2459.49,1466.69C2458.22,1465.93 2457.81,1464.3 2458.56,1463.03C2459.32,1461.76 2460.96,1461.35 2462.22,1462.1C2463.49,1462.86 2463.91,1464.49 2463.15,1465.76ZM2321.8,1459.31C2322.02,1458.73 2322.67,1458.43 2323.25,1458.65C2323.83,1458.86 2324.13,1459.51 2323.91,1460.09C2323.7,1460.67 2323.05,1460.97 2322.47,1460.76C2321.88,1460.54 2321.59,1459.89 2321.8,1459.31ZM2108.72,1453.8C2109.12,1454.66 2108.74,1455.67 2107.88,1456.07C2107.02,1456.46 2106,1456.08 2105.61,1455.22C2105.22,1454.36 2105.59,1453.35 2106.45,1452.95C2107.31,1452.56 2108.33,1452.94 2108.72,1453.8ZM2243.15,1449.78C2243.69,1450.5 2243.54,1451.52 2242.82,1452.06C2242.1,1452.59 2241.08,1452.45 2240.55,1451.73C2240.01,1451.01 2240.16,1449.99 2240.88,1449.45C2241.6,1448.92 2242.61,1449.06 2243.15,1449.78ZM1829.77,1446.65C1830.9,1446.4 1832.03,1447.11 1832.29,1448.25C1832.55,1449.38 1831.83,1450.51 1830.7,1450.77C1829.56,1451.03 1828.43,1450.31 1828.18,1449.18C1827.92,1448.04 1828.63,1446.91 1829.77,1446.65ZM1956.58,1443.78C1956.11,1443.35 1956.08,1442.62 1956.51,1442.15C1956.94,1441.68 1957.67,1441.65 1958.14,1442.08C1958.61,1442.51 1958.64,1443.24 1958.21,1443.71C1957.78,1444.18 1957.05,1444.21 1956.58,1443.78ZM1751.48,1437.09C1751.53,1437.97 1750.87,1438.72 1749.99,1438.77C1749.12,1438.83 1748.36,1438.16 1748.31,1437.28C1748.26,1436.41 1748.92,1435.66 1749.8,1435.6C1750.67,1435.55 1751.43,1436.22 1751.48,1437.09ZM2766.21,1433.49C2766.72,1434 2766.71,1434.81 2766.21,1435.32C2765.7,1435.82 2764.89,1435.82 2764.38,1435.31C2763.88,1434.81 2763.88,1433.99 2764.39,1433.49C2764.89,1432.98 2765.71,1432.99 2766.21,1433.49ZM2601.97,1433.42C2601.94,1434.39 2601.12,1435.16 2600.15,1435.12C2599.18,1435.09 2598.42,1434.27 2598.45,1433.3C2598.49,1432.33 2599.3,1431.56 2600.28,1431.6C2601.25,1431.63 2602.01,1432.45 2601.97,1433.42ZM2829.13,1429.18C2829.68,1428.43 2830.73,1428.27 2831.48,1428.82C2832.23,1429.37 2832.39,1430.42 2831.84,1431.17C2831.29,1431.92 2830.24,1432.08 2829.49,1431.53C2828.74,1430.98 2828.58,1429.93 2829.13,1429.18ZM2022.38,1428.46C2021.32,1428.75 2020.22,1428.11 2019.94,1427.04C2019.66,1425.98 2020.3,1424.88 2021.36,1424.6C2022.43,1424.32 2023.52,1424.95 2023.81,1426.02C2024.09,1427.09 2023.45,1428.18 2022.38,1428.46ZM2163.17,1421.45C2164.2,1421.34 2165.13,1422.08 2165.25,1423.12C2165.36,1424.15 2164.62,1425.08 2163.58,1425.2C2162.55,1425.31 2161.62,1424.57 2161.51,1423.53C2161.39,1422.5 2162.14,1421.57 2163.17,1421.45ZM2523.93,1418.98C2525.1,1418.86 2526.15,1419.71 2526.28,1420.88C2526.4,1422.06 2525.55,1423.11 2524.37,1423.24C2523.2,1423.36 2522.14,1422.51 2522.02,1421.33C2521.9,1420.15 2522.75,1419.1 2523.93,1418.98ZM2416.55,1419.46C2416.08,1420.49 2414.85,1420.95 2413.82,1420.47C2412.78,1419.99 2412.33,1418.77 2412.8,1417.73C2413.28,1416.7 2414.51,1416.24 2415.54,1416.72C2416.58,1417.2 2417.03,1418.42 2416.55,1419.46ZM2697.61,1418.04C2697.53,1417.24 2698.12,1416.54 2698.91,1416.46C2699.71,1416.38 2700.41,1416.96 2700.49,1417.76C2700.57,1418.56 2699.99,1419.26 2699.19,1419.34C2698.39,1419.41 2697.69,1418.83 2697.61,1418.04ZM2893.2,1410.73C2893.74,1411.2 2893.8,1412.03 2893.32,1412.57C2892.85,1413.11 2892.03,1413.17 2891.49,1412.7C2890.94,1412.23 2890.89,1411.4 2891.36,1410.86C2891.83,1410.32 2892.65,1410.26 2893.2,1410.73ZM1886.66,1405.53C1885.7,1405.01 1885.35,1403.8 1885.87,1402.84C1886.39,1401.88 1887.59,1401.52 1888.55,1402.04C1889.51,1402.56 1889.87,1403.77 1889.35,1404.73C1888.83,1405.69 1887.63,1406.05 1886.66,1405.53ZM2277.58,1400.49C2278.46,1400.15 2279.44,1400.59 2279.77,1401.46C2280.11,1402.34 2279.67,1403.32 2278.8,1403.65C2277.92,1403.99 2276.94,1403.55 2276.61,1402.68C2276.27,1401.8 2276.71,1400.82 2277.58,1400.49ZM2955.28,1401.9C2955.19,1400.9 2955.92,1400.02 2956.92,1399.92C2957.92,1399.83 2958.8,1400.56 2958.9,1401.56C2958.99,1402.55 2958.26,1403.44 2957.26,1403.53C2956.26,1403.63 2955.38,1402.89 2955.28,1401.9ZM2347.37,1395.83C2346.85,1396.6 2345.81,1396.79 2345.05,1396.28C2344.29,1395.76 2344.09,1394.72 2344.61,1393.96C2345.12,1393.2 2346.16,1393 2346.92,1393.52C2347.68,1394.04 2347.88,1395.07 2347.37,1395.83ZM2655.32,1376.82C2655.95,1377.43 2655.95,1378.44 2655.33,1379.07C2654.71,1379.69 2653.7,1379.7 2653.08,1379.08C2652.45,1378.46 2652.45,1377.45 2653.07,1376.83C2653.69,1376.2 2654.7,1376.19 2655.32,1376.82ZM2056.03,1378.68C2054.61,1378.64 2053.5,1377.45 2053.55,1376.04C2053.59,1374.62 2054.78,1373.51 2056.19,1373.56C2057.61,1373.6 2058.72,1374.79 2058.67,1376.2C2058.63,1377.62 2057.44,1378.73 2056.03,1378.68ZM2215.95,1374.55C2215.34,1375.88 2213.76,1376.45 2212.43,1375.84C2211.11,1375.23 2210.53,1373.65 2211.14,1372.33C2211.76,1371 2213.33,1370.42 2214.66,1371.03C2215.98,1371.65 2216.56,1373.22 2215.95,1374.55ZM1740.04,1370.51C1740.28,1371.38 1739.76,1372.29 1738.88,1372.54C1738.01,1372.78 1737.1,1372.26 1736.85,1371.38C1736.61,1370.51 1737.13,1369.6 1738.01,1369.35C1738.88,1369.11 1739.79,1369.63 1740.04,1370.51ZM1786.63,1370.12C1786.61,1369.24 1787.3,1368.51 1788.19,1368.48C1789.07,1368.46 1789.81,1369.16 1789.83,1370.04C1789.85,1370.92 1789.15,1371.66 1788.27,1371.68C1787.39,1371.71 1786.65,1371.01 1786.63,1370.12ZM1966.98,1367C1967.9,1366.77 1968.83,1367.32 1969.06,1368.24C1969.3,1369.15 1968.74,1370.09 1967.83,1370.32C1966.91,1370.55 1965.98,1370 1965.74,1369.08C1965.51,1368.16 1966.06,1367.23 1966.98,1367ZM2741.49,1362.77C2742.52,1362.8 2743.32,1363.66 2743.28,1364.68C2743.25,1365.7 2742.39,1366.5 2741.37,1366.46C2740.35,1366.43 2739.55,1365.58 2739.58,1364.55C2739.62,1363.53 2740.47,1362.73 2741.49,1362.77ZM2123.29,1365.31C2122.04,1365.02 2121.26,1363.78 2121.55,1362.53C2121.83,1361.28 2123.08,1360.5 2124.32,1360.79C2125.57,1361.07 2126.36,1362.32 2126.07,1363.57C2125.78,1364.82 2124.54,1365.6 2123.29,1365.31ZM2826.11,1362.22C2825.69,1361.35 2826.06,1360.3 2826.94,1359.89C2827.81,1359.47 2828.86,1359.85 2829.27,1360.72C2829.68,1361.59 2829.31,1362.64 2828.44,1363.05C2827.56,1363.46 2826.52,1363.09 2826.11,1362.22ZM2546.56,1353.9C2547.25,1354.46 2547.36,1355.48 2546.8,1356.17C2546.25,1356.86 2545.23,1356.97 2544.54,1356.41C2543.84,1355.86 2543.73,1354.84 2544.29,1354.15C2544.85,1353.45 2545.87,1353.34 2546.56,1353.9ZM2465.62,1347.37C2466.12,1347.97 2466.04,1348.87 2465.44,1349.37C2464.84,1349.88 2463.95,1349.8 2463.44,1349.2C2462.94,1348.6 2463.01,1347.71 2463.61,1347.2C2464.21,1346.69 2465.11,1346.77 2465.62,1347.37ZM1908.84,1341.15C1907.66,1340.52 1907.21,1339.06 1907.84,1337.88C1908.46,1336.7 1909.93,1336.26 1911.1,1336.88C1912.28,1337.51 1912.73,1338.97 1912.1,1340.15C1911.48,1341.33 1910.02,1341.77 1908.84,1341.15ZM1844.77,1334.05C1844,1333.14 1844.12,1331.78 1845.03,1331.01C1845.94,1330.24 1847.3,1330.36 1848.07,1331.27C1848.83,1332.18 1848.72,1333.54 1847.81,1334.31C1846.9,1335.07 1845.54,1334.96 1844.77,1334.05ZM2373.53,1330.33C2374.71,1330.39 2375.61,1331.39 2375.55,1332.57C2375.49,1333.75 2374.49,1334.65 2373.31,1334.59C2372.14,1334.53 2371.23,1333.53 2371.29,1332.35C2371.35,1331.17 2372.35,1330.27 2373.53,1330.33ZM2607.18,1332.51C2606.89,1331.42 2607.54,1330.3 2608.63,1330C2609.73,1329.71 2610.85,1330.36 2611.14,1331.45C2611.43,1332.54 2610.78,1333.67 2609.69,1333.96C2608.6,1334.25 2607.48,1333.6 2607.18,1332.51ZM2284.66,1331.95C2285.08,1332.41 2285.06,1333.12 2284.61,1333.54C2284.15,1333.97 2283.44,1333.94 2283.02,1333.49C2282.59,1333.04 2282.62,1332.33 2283.07,1331.9C2283.52,1331.48 2284.23,1331.5 2284.66,1331.95ZM2974.3,1324.55C2974.64,1323.69 2975.62,1323.27 2976.48,1323.61C2977.34,1323.95 2977.76,1324.92 2977.42,1325.78C2977.08,1326.64 2976.11,1327.06 2975.24,1326.72C2974.38,1326.38 2973.96,1325.41 2974.3,1324.55ZM2679.14,1313.5C2678.89,1312.86 2679.21,1312.14 2679.85,1311.9C2680.48,1311.65 2681.2,1311.97 2681.44,1312.61C2681.69,1313.25 2681.37,1313.96 2680.73,1314.21C2680.1,1314.45 2679.38,1314.13 2679.14,1313.5ZM2920.42,1312.47C2919.53,1312.47 2918.82,1311.76 2918.82,1310.87C2918.82,1309.99 2919.53,1309.27 2920.42,1309.27C2921.3,1309.27 2922.02,1309.99 2922.02,1310.87C2922.02,1311.76 2921.3,1312.47 2920.42,1312.47ZM2143.97,1308.61C2144.13,1307.28 2145.35,1306.32 2146.69,1306.48C2148.03,1306.64 2148.98,1307.86 2148.82,1309.2C2148.66,1310.54 2147.44,1311.49 2146.1,1311.33C2144.76,1311.17 2143.81,1309.95 2143.97,1308.61ZM2053.78,1306.79C2053.2,1307.33 2052.28,1307.3 2051.74,1306.71C2051.2,1306.13 2051.23,1305.22 2051.82,1304.67C2052.4,1304.13 2053.31,1304.17 2053.86,1304.75C2054.4,1305.33 2054.36,1306.25 2053.78,1306.79ZM2745.79,1305.05C2744.88,1305.21 2744.01,1304.59 2743.86,1303.68C2743.7,1302.77 2744.32,1301.91 2745.23,1301.75C2746.14,1301.6 2747.01,1302.21 2747.16,1303.12C2747.31,1304.04 2746.7,1304.9 2745.79,1305.05ZM2820.97,1295.74C2821.63,1295.41 2822.43,1295.67 2822.76,1296.33C2823.09,1296.98 2822.83,1297.78 2822.18,1298.11C2821.52,1298.44 2820.72,1298.18 2820.39,1297.53C2820.06,1296.87 2820.32,1296.08 2820.97,1295.74ZM2210.04,1292.52C2211.19,1292.61 2212.05,1293.61 2211.96,1294.76C2211.87,1295.91 2210.87,1296.77 2209.72,1296.68C2208.57,1296.59 2207.71,1295.59 2207.8,1294.44C2207.89,1293.29 2208.89,1292.43 2210.04,1292.52ZM1980.28,1293.45C1980.55,1294.25 1980.11,1295.11 1979.31,1295.38C1978.51,1295.64 1977.65,1295.2 1977.38,1294.4C1977.12,1293.6 1977.56,1292.74 1978.36,1292.48C1979.16,1292.21 1980.02,1292.65 1980.28,1293.45ZM1759.31,1289.76C1759.83,1288.82 1761.02,1288.48 1761.96,1289.01C1762.9,1289.54 1763.24,1290.72 1762.71,1291.66C1762.18,1292.6 1761,1292.94 1760.06,1292.41C1759.12,1291.89 1758.78,1290.7 1759.31,1289.76ZM2509.88,1285.95C2510.54,1285.47 2511.45,1285.61 2511.93,1286.26C2512.42,1286.91 2512.28,1287.83 2511.63,1288.31C2510.97,1288.8 2510.06,1288.66 2509.58,1288.01C2509.09,1287.35 2509.23,1286.43 2509.88,1285.95ZM2581.46,1270.99C2580.57,1270.09 2580.59,1268.64 2581.49,1267.75C2582.39,1266.86 2583.84,1266.87 2584.73,1267.77C2585.61,1268.68 2585.6,1270.13 2584.7,1271.01C2583.8,1271.9 2582.35,1271.89 2581.46,1270.99ZM2340.49,1271.28C2339.58,1271.1 2338.99,1270.22 2339.17,1269.31C2339.35,1268.4 2340.23,1267.81 2341.14,1267.99C2342.05,1268.17 2342.64,1269.05 2342.46,1269.96C2342.28,1270.87 2341.39,1271.46 2340.49,1271.28ZM1831.46,1268.5C1830.59,1267.46 1830.72,1265.91 1831.76,1265.04C1832.8,1264.16 1834.36,1264.3 1835.23,1265.34C1836.1,1266.38 1835.97,1267.93 1834.93,1268.8C1833.89,1269.68 1832.34,1269.54 1831.46,1268.5ZM1894.77,1267.84C1893.67,1267.72 1892.87,1266.73 1892.98,1265.62C1893.1,1264.51 1894.1,1263.71 1895.2,1263.83C1896.31,1263.95 1897.11,1264.94 1896.99,1266.05C1896.87,1267.15 1895.88,1267.95 1894.77,1267.84ZM2435.07,1264.64C2435.31,1265.4 2434.89,1266.21 2434.14,1266.46C2433.38,1266.7 2432.57,1266.28 2432.32,1265.52C2432.08,1264.77 2432.5,1263.95 2433.26,1263.71C2434.01,1263.47 2434.82,1263.89 2435.07,1264.64ZM2650.89,1260.92C2651.85,1261.01 2652.55,1261.87 2652.46,1262.83C2652.36,1263.79 2651.51,1264.49 2650.55,1264.39C2649.59,1264.3 2648.88,1263.44 2648.98,1262.48C2649.08,1261.52 2649.93,1260.82 2650.89,1260.92ZM2128.2,1252.7C2129.15,1253.59 2129.2,1255.09 2128.31,1256.05C2127.42,1257.01 2125.91,1257.06 2124.96,1256.17C2124,1255.27 2123.95,1253.77 2124.84,1252.81C2125.74,1251.86 2127.24,1251.8 2128.2,1252.7ZM2267.85,1245.29C2269.1,1245.4 2270.03,1246.5 2269.92,1247.75C2269.81,1249 2268.71,1249.92 2267.46,1249.81C2266.21,1249.7 2265.29,1248.6 2265.39,1247.36C2265.5,1246.11 2266.6,1245.18 2267.85,1245.29ZM2904.05,1245.01C2903.76,1245.9 2902.8,1246.39 2901.9,1246.1C2901,1245.81 2900.51,1244.85 2900.8,1243.95C2901.1,1243.05 2902.06,1242.56 2902.96,1242.85C2903.85,1243.14 2904.34,1244.11 2904.05,1245.01ZM2800.92,1237.09C2802.02,1237.85 2802.3,1239.35 2801.54,1240.45C2800.79,1241.54 2799.28,1241.82 2798.19,1241.07C2797.09,1240.31 2796.82,1238.81 2797.57,1237.71C2798.33,1236.62 2799.83,1236.34 2800.92,1237.09ZM2724.7,1232.62C2725.33,1232.82 2725.68,1233.49 2725.48,1234.12C2725.28,1234.75 2724.61,1235.1 2723.98,1234.9C2723.35,1234.7 2723,1234.03 2723.2,1233.4C2723.4,1232.77 2724.07,1232.42 2724.7,1232.62ZM2068.96,1230.56C2068.14,1231.37 2066.82,1231.36 2066.01,1230.54C2065.2,1229.72 2065.21,1228.4 2066.03,1227.59C2066.85,1226.79 2068.17,1226.79 2068.98,1227.61C2069.79,1228.43 2069.78,1229.75 2068.96,1230.56ZM1796.76,1224.46C1796.81,1223.82 1797.38,1223.34 1798.02,1223.39C1798.66,1223.44 1799.14,1224.01 1799.09,1224.65C1799.03,1225.29 1798.47,1225.77 1797.83,1225.72C1797.18,1225.66 1796.71,1225.1 1796.76,1224.46ZM2198.26,1224.69C2197.86,1225.18 2197.14,1225.24 2196.66,1224.84C2196.18,1224.44 2196.11,1223.73 2196.51,1223.25C2196.91,1222.77 2197.62,1222.7 2198.11,1223.1C2198.59,1223.5 2198.66,1224.21 2198.26,1224.69ZM1741.76,1219.87C1742.77,1220.57 1743.01,1221.96 1742.3,1222.97C1741.6,1223.98 1740.2,1224.22 1739.2,1223.51C1738.19,1222.81 1737.95,1221.42 1738.66,1220.41C1739.36,1219.4 1740.75,1219.16 1741.76,1219.87ZM2544.46,1223.02C2543.62,1223.09 2542.89,1222.47 2542.82,1221.63C2542.75,1220.8 2543.37,1220.07 2544.2,1220C2545.04,1219.92 2545.77,1220.55 2545.84,1221.38C2545.91,1222.22 2545.29,1222.95 2544.46,1223.02ZM1988.95,1216.76C1989.08,1215.89 1989.89,1215.28 1990.77,1215.41C1991.64,1215.55 1992.25,1216.36 1992.12,1217.24C1991.99,1218.11 1991.17,1218.71 1990.3,1218.59C1989.42,1218.45 1988.82,1217.64 1988.95,1216.76ZM2386.94,1216.5C2386.56,1217.64 2385.34,1218.26 2384.2,1217.88C2383.06,1217.51 2382.44,1216.28 2382.82,1215.14C2383.19,1214 2384.42,1213.38 2385.56,1213.76C2386.7,1214.14 2387.32,1215.36 2386.94,1216.5ZM1924.85,1213.64C1923.88,1214.4 1922.47,1214.24 1921.7,1213.27C1920.94,1212.31 1921.1,1210.9 1922.07,1210.13C1923.04,1209.36 1924.44,1209.53 1925.21,1210.5C1925.98,1211.46 1925.82,1212.87 1924.85,1213.64ZM2644.78,1205.01C2643.97,1204.26 2643.91,1203 2644.66,1202.18C2645.41,1201.37 2646.68,1201.31 2647.49,1202.06C2648.31,1202.81 2648.36,1204.08 2647.61,1204.89C2646.86,1205.71 2645.6,1205.76 2644.78,1205.01ZM2482.52,1199.94C2483.39,1199.86 2484.15,1200.5 2484.23,1201.37C2484.31,1202.24 2483.66,1203.01 2482.8,1203.08C2481.93,1203.16 2481.16,1202.52 2481.09,1201.65C2481.01,1200.78 2481.65,1200.02 2482.52,1199.94ZM2843.76,1195.9C2843.98,1195.09 2844.81,1194.62 2845.61,1194.84C2846.41,1195.06 2846.88,1195.89 2846.66,1196.7C2846.44,1197.5 2845.61,1197.97 2844.81,1197.75C2844.01,1197.53 2843.54,1196.7 2843.76,1195.9ZM2302.86,1188.55C2304.15,1188.28 2305.41,1189.11 2305.68,1190.4C2305.95,1191.68 2305.12,1192.94 2303.83,1193.21C2302.54,1193.48 2301.28,1192.65 2301.02,1191.36C2300.75,1190.08 2301.58,1188.82 2302.86,1188.55ZM2137.28,1192.58C2136.32,1192.81 2135.36,1192.22 2135.12,1191.26C2134.89,1190.31 2135.48,1189.34 2136.44,1189.11C2137.39,1188.88 2138.36,1189.46 2138.59,1190.42C2138.82,1191.38 2138.24,1192.34 2137.28,1192.58ZM2968.15,1179.69C2967.07,1179.75 2966.15,1178.91 2966.1,1177.83C2966.05,1176.75 2966.88,1175.83 2967.96,1175.78C2969.05,1175.72 2969.97,1176.56 2970.02,1177.64C2970.07,1178.72 2969.23,1179.64 2968.15,1179.69ZM2772.67,1170.04C2773.48,1169.8 2774.33,1170.27 2774.57,1171.08C2774.81,1171.9 2774.35,1172.75 2773.53,1172.99C2772.72,1173.23 2771.87,1172.76 2771.63,1171.95C2771.39,1171.14 2771.85,1170.28 2772.67,1170.04ZM2234.41,1170.02C2234.06,1169.33 2234.33,1168.5 2235.01,1168.15C2235.7,1167.81 2236.53,1168.08 2236.88,1168.76C2237.22,1169.44 2236.95,1170.28 2236.27,1170.62C2235.59,1170.97 2234.76,1170.7 2234.41,1170.02ZM2904.03,1163.56C2903.35,1162.84 2903.39,1161.7 2904.12,1161.02C2904.84,1160.35 2905.98,1160.39 2906.65,1161.11C2907.33,1161.84 2907.29,1162.97 2906.57,1163.65C2905.84,1164.32 2904.7,1164.29 2904.03,1163.56ZM1829.14,1160.21C1829.68,1160.71 1829.71,1161.55 1829.21,1162.08C1828.71,1162.62 1827.88,1162.65 1827.34,1162.15C1826.81,1161.65 1826.78,1160.82 1827.27,1160.28C1827.77,1159.75 1828.61,1159.72 1829.14,1160.21ZM1758.54,1157.63C1759.06,1157.09 1759.92,1157.08 1760.46,1157.59C1761,1158.11 1761.02,1158.97 1760.5,1159.51C1759.98,1160.05 1759.12,1160.07 1758.58,1159.55C1758.04,1159.03 1758.02,1158.17 1758.54,1157.63ZM2063.46,1157.68C2063.12,1158.72 2062,1159.28 2060.96,1158.94C2059.92,1158.6 2059.36,1157.48 2059.7,1156.44C2060.05,1155.4 2061.16,1154.84 2062.2,1155.18C2063.24,1155.53 2063.8,1156.65 2063.46,1157.68ZM1888.79,1154.9C1889.76,1154.99 1890.48,1155.85 1890.39,1156.83C1890.3,1157.8 1889.44,1158.52 1888.47,1158.43C1887.49,1158.34 1886.78,1157.48 1886.86,1156.51C1886.95,1155.53 1887.81,1154.81 1888.79,1154.9ZM2420.72,1153.68C2421.37,1153.98 2421.64,1154.75 2421.34,1155.39C2421.03,1156.04 2420.26,1156.31 2419.62,1156.01C2418.97,1155.7 2418.7,1154.93 2419.01,1154.29C2419.31,1153.64 2420.08,1153.37 2420.72,1153.68ZM2598.13,1154.62C2597.35,1154.95 2596.45,1154.58 2596.12,1153.8C2595.8,1153.02 2596.16,1152.12 2596.94,1151.8C2597.72,1151.47 2598.62,1151.84 2598.95,1152.62C2599.28,1153.4 2598.91,1154.3 2598.13,1154.62ZM2347.01,1154.11C2346.5,1153.73 2346.39,1153.01 2346.78,1152.5C2347.16,1151.99 2347.88,1151.88 2348.39,1152.27C2348.9,1152.65 2349.01,1153.37 2348.62,1153.88C2348.24,1154.39 2347.52,1154.5 2347.01,1154.11ZM2167.23,1140.43C2167.91,1140.29 2168.57,1140.74 2168.71,1141.43C2168.84,1142.11 2168.39,1142.78 2167.71,1142.91C2167.02,1143.04 2166.36,1142.59 2166.23,1141.91C2166.09,1141.22 2166.54,1140.56 2167.23,1140.43ZM2004.69,1137.97C2005.55,1137.92 2006.3,1138.58 2006.36,1139.44C2006.41,1140.31 2005.75,1141.06 2004.88,1141.11C2004.02,1141.17 2003.27,1140.51 2003.22,1139.64C2003.16,1138.77 2003.82,1138.03 2004.69,1137.97ZM2516.25,1133.5C2515.84,1132.7 2516.15,1131.72 2516.95,1131.31C2517.75,1130.9 2518.73,1131.21 2519.14,1132.01C2519.55,1132.81 2519.23,1133.79 2518.44,1134.2C2517.64,1134.61 2516.66,1134.29 2516.25,1133.5ZM2689.95,1131.14C2690.34,1131.97 2689.99,1132.96 2689.16,1133.35C2688.34,1133.74 2687.35,1133.39 2686.95,1132.56C2686.56,1131.73 2686.91,1130.75 2687.74,1130.35C2688.57,1129.96 2689.56,1130.31 2689.95,1131.14ZM1937.61,1119.6C1938.7,1118.96 1940.11,1119.33 1940.75,1120.42C1941.39,1121.52 1941.02,1122.92 1939.92,1123.56C1938.83,1124.2 1937.42,1123.84 1936.78,1122.74C1936.14,1121.65 1936.51,1120.24 1937.61,1119.6ZM2841.15,1120.66C2840.53,1121.19 2839.59,1121.11 2839.06,1120.48C2838.53,1119.86 2838.61,1118.92 2839.24,1118.39C2839.86,1117.86 2840.8,1117.94 2841.33,1118.56C2841.86,1119.19 2841.78,1120.13 2841.15,1120.66ZM2286.13,1114.71C2285.47,1114.95 2284.73,1114.6 2284.5,1113.93C2284.26,1113.27 2284.61,1112.54 2285.28,1112.3C2285.94,1112.06 2286.67,1112.41 2286.91,1113.08C2287.14,1113.74 2286.8,1114.48 2286.13,1114.71ZM2218.86,1109.85C2219.34,1110.61 2219.11,1111.62 2218.35,1112.1C2217.59,1112.58 2216.58,1112.35 2216.1,1111.59C2215.62,1110.83 2215.85,1109.82 2216.61,1109.34C2217.37,1108.86 2218.38,1109.08 2218.86,1109.85ZM2106.02,1108.19C2106.21,1108.78 2105.89,1109.4 2105.31,1109.6C2104.72,1109.79 2104.1,1109.47 2103.91,1108.88C2103.71,1108.3 2104.03,1107.67 2104.62,1107.48C2105.2,1107.29 2105.83,1107.61 2106.02,1108.19ZM2428.98,1094.46C2428.74,1093.58 2429.25,1092.67 2430.12,1092.43C2431,1092.19 2431.9,1092.7 2432.15,1093.58C2432.39,1094.45 2431.88,1095.36 2431,1095.6C2430.13,1095.84 2429.22,1095.33 2428.98,1094.46ZM2361.26,1094.15C2361.36,1094.79 2360.93,1095.39 2360.29,1095.49C2359.64,1095.59 2359.05,1095.15 2358.95,1094.51C2358.85,1093.87 2359.29,1093.27 2359.93,1093.17C2360.57,1093.07 2361.17,1093.51 2361.26,1094.15ZM2764.27,1089.64C2763.51,1089.32 2763.16,1088.44 2763.47,1087.68C2763.79,1086.92 2764.66,1086.57 2765.43,1086.88C2766.19,1087.2 2766.55,1088.08 2766.23,1088.84C2765.91,1089.6 2765.03,1089.95 2764.27,1089.64ZM2906.69,1083.62C2905.78,1084.36 2904.45,1084.22 2903.71,1083.31C2902.97,1082.4 2903.12,1081.07 2904.03,1080.33C2904.93,1079.59 2906.27,1079.73 2907,1080.64C2907.74,1081.55 2907.6,1082.89 2906.69,1083.62ZM1766.23,1080.33C1765.43,1079.31 1765.61,1077.82 1766.63,1077.02C1767.66,1076.22 1769.14,1076.4 1769.94,1077.42C1770.74,1078.45 1770.56,1079.93 1769.54,1080.73C1768.51,1081.53 1767.03,1081.35 1766.23,1080.33ZM1854.2,1077.73C1854.79,1078.49 1854.65,1079.58 1853.9,1080.16C1853.14,1080.75 1852.05,1080.61 1851.46,1079.86C1850.88,1079.1 1851.01,1078.01 1851.77,1077.42C1852.53,1076.84 1853.62,1076.97 1854.2,1077.73ZM1991.85,1077.23C1992.06,1076.52 1992.8,1076.11 1993.51,1076.32C1994.21,1076.53 1994.62,1077.27 1994.41,1077.97C1994.21,1078.68 1993.46,1079.09 1992.76,1078.88C1992.05,1078.68 1991.64,1077.93 1991.85,1077.23ZM2560.42,1073.2C2560.27,1072.47 2560.74,1071.77 2561.46,1071.62C2562.18,1071.47 2562.89,1071.94 2563.04,1072.66C2563.18,1073.38 2562.72,1074.09 2562,1074.24C2561.27,1074.39 2560.57,1073.92 2560.42,1073.2ZM2485.27,1069.79C2485.12,1070.57 2484.37,1071.08 2483.59,1070.93C2482.81,1070.78 2482.3,1070.02 2482.45,1069.24C2482.61,1068.47 2483.36,1067.96 2484.14,1068.11C2484.91,1068.26 2485.42,1069.01 2485.27,1069.79ZM2969.04,1070.29C2968.45,1070.84 2967.52,1070.8 2966.97,1070.21C2966.42,1069.62 2966.45,1068.69 2967.04,1068.14C2967.64,1067.59 2968.56,1067.62 2969.12,1068.21C2969.67,1068.81 2969.63,1069.73 2969.04,1070.29ZM2153.85,1066.97C2154.27,1066.16 2155.27,1065.84 2156.09,1066.26C2156.9,1066.68 2157.22,1067.68 2156.8,1068.49C2156.38,1069.31 2155.37,1069.62 2154.56,1069.2C2153.75,1068.78 2153.43,1067.78 2153.85,1066.97ZM1932.15,1052.56C1933.38,1052.85 1934.15,1054.08 1933.87,1055.31C1933.58,1056.54 1932.35,1057.3 1931.12,1057.02C1929.89,1056.73 1929.12,1055.5 1929.41,1054.27C1929.69,1053.04 1930.92,1052.27 1932.15,1052.56ZM2230.17,1052.31C2230.49,1053.13 2230.08,1054.05 2229.27,1054.36C2228.45,1054.68 2227.53,1054.28 2227.22,1053.46C2226.9,1052.65 2227.3,1051.73 2228.12,1051.41C2228.93,1051.09 2229.85,1051.5 2230.17,1052.31ZM2047.01,1049.95C2048.09,1050.88 2048.2,1052.51 2047.27,1053.58C2046.33,1054.65 2044.71,1054.77 2043.63,1053.83C2042.56,1052.9 2042.45,1051.28 2043.38,1050.2C2044.31,1049.13 2045.94,1049.02 2047.01,1049.95ZM2311.97,1050.77C2310.82,1051.42 2309.37,1051.02 2308.72,1049.87C2308.07,1048.72 2308.47,1047.27 2309.62,1046.62C2310.77,1045.97 2312.22,1046.37 2312.87,1047.52C2313.52,1048.66 2313.12,1050.12 2311.97,1050.77ZM2817.75,1041.05C2816.67,1041.51 2815.43,1041 2814.98,1039.92C2814.52,1038.84 2815.03,1037.59 2816.11,1037.14C2817.19,1036.69 2818.43,1037.19 2818.89,1038.28C2819.34,1039.36 2818.83,1040.6 2817.75,1041.05ZM2396.36,1040.26C2395.86,1040.73 2395.07,1040.7 2394.6,1040.2C2394.13,1039.7 2394.16,1038.91 2394.66,1038.44C2395.17,1037.97 2395.96,1038 2396.42,1038.5C2396.89,1039.01 2396.86,1039.79 2396.36,1040.26ZM2693.25,1036.58C2693.7,1037.4 2693.4,1038.43 2692.58,1038.88C2691.76,1039.34 2690.73,1039.04 2690.28,1038.22C2689.83,1037.4 2690.13,1036.37 2690.95,1035.92C2691.77,1035.46 2692.8,1035.76 2693.25,1036.58ZM2622.01,1024.58C2622.27,1025.27 2621.92,1026.03 2621.24,1026.28C2620.55,1026.54 2619.79,1026.19 2619.54,1025.5C2619.28,1024.82 2619.63,1024.06 2620.32,1023.81C2621,1023.55 2621.76,1023.9 2622.01,1024.58ZM2114.68,1015.6C2115.95,1015.38 2117.16,1016.24 2117.37,1017.51C2117.58,1018.78 2116.72,1019.98 2115.45,1020.2C2114.18,1020.41 2112.98,1019.55 2112.77,1018.28C2112.56,1017.01 2113.41,1015.81 2114.68,1015.6ZM2870.78,1016.86C2871.38,1016.2 2872.41,1016.16 2873.07,1016.76C2873.73,1017.37 2873.78,1018.4 2873.17,1019.06C2872.56,1019.72 2871.54,1019.76 2870.87,1019.16C2870.21,1018.55 2870.17,1017.52 2870.78,1016.86ZM2455.76,1014.31C2455.23,1015.18 2454.09,1015.45 2453.23,1014.92C2452.36,1014.39 2452.09,1013.25 2452.62,1012.39C2453.15,1011.52 2454.28,1011.24 2455.15,1011.77C2456.02,1012.31 2456.29,1013.44 2455.76,1014.31ZM1863.59,1010.63C1864.44,1010.77 1865.03,1011.57 1864.89,1012.42C1864.76,1013.27 1863.96,1013.85 1863.11,1013.71C1862.25,1013.58 1861.67,1012.78 1861.81,1011.93C1861.94,1011.08 1862.74,1010.5 1863.59,1010.63ZM1770.11,1009.17C1771.07,1009.94 1771.22,1011.34 1770.44,1012.29C1769.67,1013.25 1768.28,1013.4 1767.32,1012.63C1766.36,1011.86 1766.21,1010.46 1766.98,1009.5C1767.75,1008.55 1769.15,1008.39 1770.11,1009.17ZM2540.28,1010.37C2539.44,1010.44 2538.7,1009.82 2538.63,1008.98C2538.55,1008.13 2539.18,1007.39 2540.02,1007.32C2540.86,1007.24 2541.6,1007.87 2541.67,1008.71C2541.75,1009.55 2541.13,1010.29 2540.28,1010.37ZM1958.06,1007.51C1957.57,1006.52 1957.97,1005.32 1958.96,1004.83C1959.95,1004.34 1961.15,1004.74 1961.64,1005.72C1962.14,1006.71 1961.74,1007.92 1960.75,1008.41C1959.76,1008.9 1958.56,1008.5 1958.06,1007.51ZM2946.59,1008.02C2945.83,1007.25 2945.83,1006.01 2946.59,1005.25C2947.36,1004.49 2948.6,1004.49 2949.36,1005.25C2950.12,1006.01 2950.12,1007.25 2949.36,1008.01C2948.6,1008.78 2947.36,1008.78 2946.59,1008.02ZM2763.97,1006.36C2763.99,1005.64 2764.59,1005.08 2765.31,1005.1C2766.02,1005.11 2766.59,1005.71 2766.57,1006.43C2766.55,1007.14 2765.95,1007.71 2765.24,1007.69C2764.52,1007.67 2763.96,1007.07 2763.97,1006.36ZM2353.17,1002.1C2354.3,1001.37 2355.82,1001.7 2356.55,1002.83C2357.28,1003.97 2356.95,1005.48 2355.82,1006.21C2354.68,1006.94 2353.17,1006.61 2352.44,1005.48C2351.71,1004.34 2352.04,1002.83 2353.17,1002.1ZM2184.09,1006.03C2183.39,1005.34 2183.39,1004.22 2184.07,1003.52C2184.76,1002.82 2185.89,1002.81 2186.58,1003.5C2187.28,1004.19 2187.29,1005.31 2186.6,1006.01C2185.91,1006.71 2184.79,1006.72 2184.09,1006.03ZM2262.12,1002.52C2262.97,1002.08 2264.03,1002.42 2264.47,1003.28C2264.91,1004.13 2264.57,1005.19 2263.71,1005.63C2262.86,1006.07 2261.8,1005.73 2261.36,1004.87C2260.92,1004.02 2261.26,1002.97 2262.12,1002.52ZM2040.99,997.805C2041.9,998.053 2042.44,998.996 2042.19,999.911C2041.95,1000.83 2041,1001.37 2040.09,1001.12C2039.17,1000.87 2038.63,999.926 2038.88,999.011C2039.13,998.097 2040.07,997.557 2040.99,997.805Z" style="fill:rgb(255,214,110);fill-opacity:0.501961;fill-rule:nonzero;"/>
        </g>
    </g>
</svg>
