<?xml version="1.0" encoding="UTF-8" standalone="no"?>
<!DOCTYPE svg PUBLIC "-//W3C//DTD SVG 1.1//EN" "http://www.w3.org/Graphics/SVG/1.1/DTD/svg11.dtd">
<svg width="100%" height="100%" viewBox="0 0 57 57" version="1.1" xmlns="http://www.w3.org/2000/svg" xmlns:xlink="http://www.w3.org/1999/xlink" xml:space="preserve" xmlns:serif="http://www.serif.com/" style="fill-rule:evenodd;clip-rule:evenodd;stroke-linejoin:round;stroke-miterlimit:1.41421;">
    <path d="M32.287,1.837c0.378,-1.062 1.385,-1.83 2.576,-1.83c1.514,0 2.746,1.232 2.746,2.746c0,0.085 -0.018,0.164 -0.025,0.247l7.214,3.329c0.498,-0.511 1.192,-0.831 1.961,-0.831c1.514,0 2.746,1.231 2.746,2.745c0,0.531 -0.159,1.022 -0.42,1.442l4.1,5.125c0.282,-0.097 0.58,-0.162 0.895,-0.162c1.514,0 2.745,1.232 2.745,2.746c0,1.191 -0.767,2.198 -1.83,2.576l0,7.658c1.063,0.379 1.83,1.385 1.83,2.577c0,1.513 -1.231,2.745 -2.745,2.745c-0.511,0 -0.984,-0.149 -1.393,-0.393l-7.021,5.851c0.11,0.297 0.178,0.614 0.178,0.948c0,1.191 -0.767,2.198 -1.83,2.576l0,9.488c1.063,0.379 1.83,1.385 1.83,2.577c0,1.513 -1.231,2.745 -2.745,2.745c-1.513,0 -2.745,-1.232 -2.745,-2.745c0,-1.192 0.768,-2.198 1.83,-2.577l0,-9.489c-1.047,-0.373 -1.803,-1.357 -1.825,-2.525l-8.211,-2.737l-1.092,3.279c0.641,0.503 1.062,1.276 1.062,2.153c0,1.191 -0.767,2.198 -1.83,2.577l0,6.743c1.063,0.379 1.83,1.385 1.83,2.577c0,1.513 -1.231,2.745 -2.745,2.745c-1.514,0 -2.745,-1.232 -2.745,-2.745c0,-1.192 0.768,-2.198 1.83,-2.577l0,-6.743c-1.01,-0.361 -1.742,-1.29 -1.813,-2.404l-7.853,-2.244c-0.498,0.696 -1.309,1.156 -2.23,1.156c-1.514,0 -2.745,-1.232 -2.745,-2.746c0,-0.819 0.368,-1.547 0.938,-2.05l-1.745,-4.366c-0.037,0.002 -0.072,0.011 -0.108,0.011c-1.364,0 -2.489,-1.002 -2.701,-2.307l-4.995,-0.908c-0.475,0.823 -1.354,1.385 -2.37,1.385c-1.514,0 -2.745,-1.232 -2.745,-2.745c0,-1.192 0.767,-2.198 1.83,-2.576l0,-5.828c-1.063,-0.379 -1.83,-1.386 -1.83,-2.577c0,-1.514 1.231,-2.746 2.745,-2.746c0.315,0 0.613,0.064 0.895,0.162l4.1,-5.125c-0.261,-0.42 -0.42,-0.911 -0.42,-1.442c0,-1.514 1.232,-2.745 2.745,-2.745c0.739,0 1.407,0.296 1.901,0.772l4.539,-2.269c-0.014,-0.111 -0.034,-0.22 -0.034,-0.333c0,-1.514 1.232,-2.746 2.745,-2.746c1.192,0 2.198,0.768 2.577,1.83l10.403,0Zm10.812,53.075c-0.504,0 -0.915,-0.41 -0.915,-0.915c0,-0.505 0.411,-0.915 0.915,-0.915c0.504,0 0.915,0.41 0.915,0.915c0,0.505 -0.411,0.915 -0.915,0.915Zm-13.726,0c-0.504,0 -0.915,-0.41 -0.915,-0.915c0,-0.505 0.411,-0.915 0.915,-0.915c0.504,0 0.915,0.41 0.915,0.915c0,0.505 -0.411,0.915 -0.915,0.915Zm0,-11.896c-0.504,0 -0.915,-0.41 -0.915,-0.915c0,-0.505 0.411,-0.915 0.915,-0.915c0.504,0 0.915,0.41 0.915,0.915c0,0.505 -0.411,0.915 -0.915,0.915Zm-14.665,-11.676c0.127,-0.112 0.243,-0.235 0.348,-0.368l11.048,3.683l1.632,5.256c-0.226,0.17 -0.427,0.371 -0.592,0.6l-7.853,-2.243c-0.093,-1.433 -1.274,-2.573 -2.729,-2.573c-0.037,0 -0.071,0.009 -0.108,0.011l-1.746,-4.366Zm28.391,8.931c-0.504,0 -0.915,-0.41 -0.915,-0.915c0,-0.506 0.411,-0.916 0.915,-0.916c0.504,0 0.915,0.41 0.915,0.916c0,0.505 -0.411,0.915 -0.915,0.915Zm-26.537,-0.915c-0.504,0 -0.915,-0.41 -0.915,-0.916c0,-0.505 0.411,-0.915 0.915,-0.915c0.504,0 0.915,0.41 0.915,0.915c0,0.506 -0.411,0.916 -0.915,0.916Zm12.842,-0.242l-1.163,-3.746l2.171,0.723l-1.008,3.023Zm4.596,-8c1.081,-0.02 2.006,-0.668 2.435,-1.595l14.994,1.363c0.024,0.091 0.051,0.181 0.084,0.269l-7.021,5.851c-0.41,-0.243 -0.882,-0.392 -1.393,-0.392c-0.876,0 -1.651,0.421 -2.153,1.064l-8.219,-2.74l1.273,-3.82Zm-9.233,-6.945l2.424,-1.257l4.288,4.287c-0.172,0.358 -0.276,0.753 -0.276,1.176c0,0.876 0.421,1.65 1.063,2.153l-1.275,3.827l-3.417,-1.14l-2.807,-9.046Zm-9.126,5.069c-0.001,-0.109 -0.018,-0.215 -0.033,-0.322l7.507,-3.891l2.32,7.478l-9.794,-3.265Zm38.439,1.882c-0.504,0 -0.915,-0.41 -0.915,-0.915c0,-0.505 0.411,-0.915 0.915,-0.915c0.504,0 0.915,0.41 0.915,0.915c0,0.505 -0.411,0.915 -0.915,0.915Zm-42.093,-1.83c0,-0.505 0.41,-0.915 0.915,-0.915c0.504,0 0.915,0.41 0.915,0.915c0,0.505 -0.411,0.915 -0.915,0.915c-0.505,0 -0.915,-0.41 -0.915,-0.915Zm21.961,0c-0.504,0 -0.915,-0.41 -0.915,-0.915c0,-0.505 0.411,-0.915 0.915,-0.915c0.505,0 0.915,0.41 0.915,0.915c0,0.505 -0.41,0.915 -0.915,0.915Zm10.732,-5.727l6.557,5.464l-14.207,-1.291l7.65,-4.173Zm-41.844,4.812c-0.504,0 -0.915,-0.41 -0.915,-0.915c0,-0.506 0.411,-0.916 0.915,-0.916c0.504,0 0.915,0.41 0.915,0.916c0,0.505 -0.411,0.915 -0.915,0.915Zm0.915,-3.492l0,-5.828c0.817,-0.292 1.45,-0.956 1.702,-1.791l5.044,-0.253l1.275,9.782c-0.525,0.239 -0.954,0.639 -1.24,1.136l-4.995,-0.908c-0.162,-0.996 -0.857,-1.807 -1.786,-2.138Zm48.936,2.969l-6.278,-5.232l5.848,-3.19c0.263,0.236 0.569,0.419 0.909,0.54l0,7.658c-0.168,0.06 -0.328,0.134 -0.479,0.224Zm-39.088,-1.207l-1.268,-9.725l6.27,-0.314c0.398,0.964 1.331,1.647 2.427,1.691l1.537,4.95l-7.795,4.042c-0.326,-0.304 -0.726,-0.526 -1.171,-0.644Zm20.349,-1.016c-0.422,0 -0.818,0.104 -1.175,0.276l-3.878,-3.877l6.845,-3.55c0.492,0.459 1.145,0.746 1.869,0.746c0.51,0 0.983,-0.149 1.392,-0.393l4.167,3.472l-7.397,4.035c-0.486,-0.436 -1.12,-0.709 -1.823,-0.709Zm-8.114,-4.075l-1.619,0.839l-1.107,-3.564l2.726,2.725Zm19.624,-10.909c0.389,0.212 0.828,0.343 1.301,0.343c0.315,0 0.613,-0.064 0.894,-0.162l4.101,5.126c-0.261,0.421 -0.419,0.911 -0.419,1.442c0,0.147 0.021,0.289 0.044,0.431l-6.483,3.536l-4.721,-3.934c0.11,-0.298 0.179,-0.614 0.179,-0.948c0,-0.372 -0.076,-0.727 -0.211,-1.05l5.315,-4.784Zm-10.557,6.207l-7.364,3.818l-3.929,-3.931c0.171,-0.357 0.275,-0.753 0.275,-1.175c0,-0.39 -0.085,-0.76 -0.231,-1.096l4.345,-4.055l7.004,5.252c-0.082,0.26 -0.138,0.529 -0.138,0.814c0,0.128 0.022,0.249 0.038,0.373Zm20.094,0.542c0,0.505 -0.411,0.915 -0.915,0.915c-0.504,0 -0.915,-0.41 -0.915,-0.915c0,-0.505 0.411,-0.915 0.915,-0.915c0.504,0 0.915,0.41 0.915,0.915Zm-16.471,-0.915c0,0.505 -0.411,0.915 -0.915,0.915c-0.504,0 -0.915,-0.41 -0.915,-0.915c0,-0.505 0.411,-0.915 0.915,-0.915c0.504,0 0.915,0.41 0.915,0.915Zm-35.688,-0.915c0.504,0 0.915,0.41 0.915,0.915c0,0.505 -0.411,0.915 -0.915,0.915c-0.504,0 -0.915,-0.41 -0.915,-0.915c0,-0.505 0.411,-0.915 0.915,-0.915Zm19.216,0c0,0.505 -0.41,0.915 -0.915,0.915c-0.504,0 -0.915,-0.41 -0.915,-0.915c0,-0.506 0.411,-0.916 0.915,-0.916c0.505,0 0.915,0.41 0.915,0.916Zm-16.68,-0.129c-0.057,-0.14 -0.131,-0.27 -0.211,-0.399l4.1,-5.125c0.107,0.037 0.211,0.076 0.322,0.1l0.675,5.18l-4.886,0.244Zm6.025,-5.672c0.889,-0.455 1.505,-1.37 1.505,-2.435c0,-0.114 -0.02,-0.222 -0.034,-0.332l4.539,-2.27c0.494,0.475 1.162,0.772 1.9,0.772c0.562,0 1.085,-0.171 1.52,-0.462l5.682,4.261l-4.114,3.84c-0.378,-0.197 -0.802,-0.319 -1.258,-0.319c-1.239,0 -2.276,0.83 -2.617,1.96l-6.427,0.321l-0.696,-5.336Zm32.642,-1.768c-0.007,0.083 -0.025,0.163 -0.025,0.248c0,0.372 0.076,0.727 0.211,1.05l-5.315,4.784c-0.389,-0.213 -0.828,-0.344 -1.301,-0.344c-0.562,0 -1.085,0.172 -1.52,0.463l-6.733,-5.051l4.25,-3.967c0.378,0.197 0.802,0.32 1.257,0.32c0.77,0 1.464,-0.321 1.963,-0.832l7.213,3.329Zm2.72,-0.667c0.505,0 0.916,0.41 0.916,0.915c0,0.505 -0.411,0.915 -0.916,0.915c-0.504,0 -0.915,-0.41 -0.915,-0.915c0,-0.505 0.411,-0.915 0.915,-0.915Zm-36.603,-0.915c0.505,0 0.916,0.41 0.916,0.915c0,0.505 -0.411,0.915 -0.916,0.915c-0.504,0 -0.915,-0.41 -0.915,-0.915c0,-0.505 0.411,-0.915 0.915,-0.915Zm22.193,-2.566l-4.481,4.182l-5.816,-4.361l10.235,0c0.022,0.059 0.037,0.121 0.062,0.179Zm2.514,-2.01c0.505,0 0.916,0.41 0.916,0.916c0,0.505 -0.411,0.915 -0.916,0.915c-0.504,0 -0.915,-0.41 -0.915,-0.915c0,-0.506 0.411,-0.916 0.915,-0.916Zm-15.556,0c0.504,0 0.915,0.41 0.915,0.916c0,0.505 -0.411,0.915 -0.915,0.915c-0.504,0 -0.915,-0.41 -0.915,-0.915c0,-0.506 0.411,-0.916 0.915,-0.916Z" style="fill:rgb(234, 181, 67);"/>
</svg>
