<?xml version="1.0" encoding="UTF-8" standalone="no"?>
<!DOCTYPE svg PUBLIC "-//W3C//DTD SVG 1.1//EN" "http://www.w3.org/Graphics/SVG/1.1/DTD/svg11.dtd">
<svg width="100%" height="100%" version="1.1" xmlns="http://www.w3.org/2000/svg" xmlns:xlink="http://www.w3.org/1999/xlink" xml:space="preserve" style="fill-rule:evenodd;clip-rule:evenodd;stroke-linecap:round;stroke-linejoin:round;stroke-miterlimit:1.5;" viewBox="0 0 599 381">
    <g id="timeline">
        <path id="x_line" d="M55.56,304.897l515.311,0" style="fill:none;stroke:#eab543;stroke-width:6.42px;"/>
        <g id="fifth_line_phase">
            <path d="M0.006,30.086l0,-12.241c0,-0.144 0.054,-0.255 0.162,-0.332c0.108,-0.078 0.234,-0.117 0.377,-0.117l6.364,0c0.143,0 0.254,0.051 0.332,0.152c0.078,0.102 0.117,0.225 0.117,0.369c0,0.156 -0.039,0.291 -0.117,0.404c-0.078,0.114 -0.189,0.171 -0.332,0.171l-5.716,0l0,4.943l2.84,0c0.131,0 0.236,0.051 0.314,0.153c0.078,0.102 0.117,0.231 0.117,0.386c0,0.324 -0.144,0.486 -0.431,0.486l-2.84,0l0,5.626c0,0.144 -0.06,0.255 -0.18,0.333c-0.12,0.077 -0.258,0.116 -0.414,0.116c-0.395,0 -0.593,-0.149 -0.593,-0.449Z" style="fill:#eab543;fill-rule:nonzero;"/>
            <path d="M5.758,28.288c0,-0.922 0.357,-1.563 1.07,-1.923c0.713,-0.359 1.752,-0.539 3.118,-0.539l0.917,0l0,-0.431c0,-0.66 -0.174,-1.232 -0.521,-1.717c-0.348,-0.485 -0.881,-0.728 -1.6,-0.728c-0.479,0 -0.914,0.087 -1.303,0.261c-0.39,0.173 -0.596,0.26 -0.62,0.26c-0.144,0 -0.258,-0.066 -0.342,-0.198c-0.084,-0.131 -0.126,-0.275 -0.126,-0.431c0,-0.228 0.258,-0.437 0.773,-0.629c0.516,-0.192 1.067,-0.288 1.654,-0.288c1.126,0 1.95,0.327 2.472,0.98c0.521,0.653 0.781,1.483 0.781,2.49l0,4.673c0,0.132 -0.054,0.243 -0.161,0.333c-0.108,0.089 -0.246,0.134 -0.414,0.134c-0.156,0 -0.284,-0.045 -0.386,-0.134c-0.102,-0.09 -0.153,-0.201 -0.153,-0.333l0,-0.791c-0.803,0.923 -1.708,1.384 -2.714,1.384c-0.719,0 -1.306,-0.201 -1.762,-0.602c-0.455,-0.401 -0.683,-0.992 -0.683,-1.771Zm1.169,-0.107c0,0.503 0.143,0.877 0.431,1.123c0.288,0.246 0.665,0.369 1.132,0.369c0.564,0 1.1,-0.21 1.609,-0.63c0.509,-0.419 0.764,-0.838 0.764,-1.258l0,-1.15l-0.755,0c-0.479,0 -0.884,0.018 -1.213,0.054c-0.33,0.036 -0.656,0.102 -0.98,0.197c-0.323,0.096 -0.569,0.252 -0.737,0.468c-0.168,0.215 -0.251,0.491 -0.251,0.827Zm0.683,-8.772c0,-0.156 0.065,-0.264 0.197,-0.324l2.014,-1.096c0.035,-0.036 0.083,-0.054 0.143,-0.054c0.132,0 0.237,0.051 0.315,0.153c0.078,0.102 0.117,0.218 0.117,0.35c0,0.192 -0.072,0.324 -0.216,0.396l-1.923,1.024c-0.06,0.036 -0.12,0.054 -0.18,0.054c-0.12,0 -0.228,-0.051 -0.324,-0.153c-0.095,-0.101 -0.143,-0.218 -0.143,-0.35Z" style="fill:#eab543;fill-rule:nonzero;"/>
            <path d="M13.523,30.068c0,-0.132 0.06,-0.282 0.18,-0.449l4.404,-6.561l-3.973,0c-0.119,0 -0.221,-0.051 -0.305,-0.153c-0.084,-0.102 -0.126,-0.219 -0.126,-0.351c0,-0.143 0.042,-0.266 0.126,-0.368c0.084,-0.102 0.186,-0.153 0.305,-0.153l5.087,0c0.12,0 0.225,0.042 0.315,0.126c0.09,0.084 0.135,0.198 0.135,0.342c0,0.155 -0.048,0.299 -0.144,0.431l-4.422,6.561l4.35,0c0.12,0 0.222,0.051 0.306,0.153c0.084,0.101 0.125,0.23 0.125,0.386c0,0.132 -0.041,0.249 -0.125,0.351c-0.084,0.101 -0.186,0.152 -0.306,0.152l-5.446,0c-0.144,0 -0.261,-0.048 -0.351,-0.143c-0.09,-0.096 -0.135,-0.204 -0.135,-0.324Z" style="fill:#eab543;fill-rule:nonzero;"/>
            <path d="M20.965,27.246l0,-2.013c0,-0.899 0.336,-1.675 1.007,-2.328c0.671,-0.653 1.48,-0.98 2.426,-0.98c0.911,0 1.699,0.312 2.364,0.935c0.665,0.623 0.997,1.402 0.997,2.337c0,0.335 -0.038,0.605 -0.116,0.809c-0.078,0.203 -0.204,0.347 -0.378,0.431c-0.174,0.084 -0.332,0.138 -0.476,0.162c-0.144,0.024 -0.342,0.036 -0.593,0.036l-4.063,0l0,0.665c0,0.707 0.255,1.273 0.764,1.698c0.51,0.426 1.166,0.639 1.969,0.639c0.407,0 0.763,-0.06 1.069,-0.18c0.306,-0.12 0.539,-0.24 0.701,-0.36c0.162,-0.119 0.291,-0.179 0.387,-0.179c0.131,0 0.248,0.063 0.35,0.188c0.102,0.126 0.153,0.249 0.153,0.369c0,0.251 -0.258,0.512 -0.773,0.782c-0.515,0.269 -1.156,0.404 -1.923,0.404c-1.139,0 -2.068,-0.314 -2.787,-0.944c-0.719,-0.629 -1.078,-1.452 -1.078,-2.471Zm1.168,-1.474l3.595,0c0.36,0 0.599,-0.039 0.719,-0.117c0.12,-0.078 0.18,-0.243 0.18,-0.494c0,-0.599 -0.213,-1.127 -0.638,-1.582c-0.425,-0.455 -0.962,-0.683 -1.609,-0.683c-0.623,0 -1.153,0.216 -1.591,0.647c-0.437,0.431 -0.656,0.947 -0.656,1.546l0,0.683Z" style="fill:#eab543;fill-rule:nonzero;"/>
            <path d="M32.451,25.538c0,-0.131 0.033,-0.242 0.099,-0.332c0.066,-0.09 0.153,-0.135 0.26,-0.135l1.978,0l0.431,-2.876l-1.725,0c-0.288,0 -0.432,-0.156 -0.432,-0.467c0,-0.3 0.12,-0.45 0.36,-0.45l1.977,0l0.521,-3.289c0.036,-0.18 0.186,-0.27 0.449,-0.27c0.384,0 0.576,0.174 0.576,0.521l-0.486,3.038l2.283,0l0.521,-3.289c0.036,-0.18 0.186,-0.27 0.45,-0.27c0.383,0 0.575,0.174 0.575,0.521l-0.485,3.038l1.761,0c0.108,0 0.21,0.042 0.306,0.126c0.096,0.084 0.144,0.192 0.144,0.324c0,0.119 -0.039,0.227 -0.117,0.323c-0.078,0.096 -0.165,0.144 -0.261,0.144l-1.977,0l-0.467,2.876l1.761,0c0.108,0 0.21,0.045 0.306,0.135c0.096,0.09 0.143,0.201 0.143,0.332c0,0.12 -0.038,0.225 -0.116,0.315c-0.078,0.09 -0.165,0.135 -0.261,0.135l-1.995,0l-0.557,3.577c-0.06,0.239 -0.228,0.359 -0.504,0.359c-0.156,0 -0.287,-0.045 -0.395,-0.135c-0.108,-0.089 -0.162,-0.218 -0.162,-0.386l0.521,-3.415l-2.247,0l-0.557,3.559c-0.012,0.12 -0.069,0.212 -0.171,0.278c-0.101,0.066 -0.206,0.099 -0.314,0.099c-0.156,0 -0.288,-0.045 -0.396,-0.135c-0.107,-0.089 -0.161,-0.218 -0.161,-0.386l0.503,-3.415l-1.708,0c-0.287,0 -0.431,-0.15 -0.431,-0.45Zm3.397,-0.467l2.265,0l0.449,-2.876l-2.264,0l-0.45,2.876Z" style="fill:#eab543;fill-rule:nonzero;"/>
            <path d="M42.966,27.587c0,-0.395 0.192,-0.593 0.576,-0.593c0.407,0 0.611,0.168 0.611,0.504c0,0.635 0.239,1.135 0.719,1.5c0.479,0.366 1.084,0.549 1.815,0.549c0.815,0 1.444,-0.225 1.887,-0.674c0.444,-0.45 0.666,-1.13 0.666,-2.04l0,-0.342c0,-0.887 -0.222,-1.552 -0.666,-1.995c-0.443,-0.444 -1.066,-0.665 -1.869,-0.665l-2.498,0c-0.408,0 -0.612,-0.15 -0.612,-0.45c0,-0.024 0.003,-0.084 0.009,-0.179c0.006,-0.096 0.009,-0.156 0.009,-0.18l0.36,-5.177c0.036,-0.3 0.162,-0.449 0.377,-0.449l5.033,0c0.264,0 0.396,0.179 0.396,0.539c0,0.371 -0.132,0.557 -0.396,0.557l-4.35,0l-0.287,4.314l1.959,0c1.139,0 2.043,0.294 2.714,0.881c0.671,0.587 1.007,1.522 1.007,2.804l0,0.342c0,1.306 -0.339,2.267 -1.016,2.884c-0.677,0.618 -1.578,0.926 -2.705,0.926c-1.15,0 -2.061,-0.293 -2.732,-0.881c-0.671,-0.587 -1.007,-1.312 -1.007,-2.175Z" style="fill:#eab543;fill-rule:nonzero;"/>
        </g>
        <path id="fifth_line_curve" d="M59.8,26.943c0.746,0.499 0.367,0.886 0.367,0.886c-0.25,0.374 -0.45,0.383 -0.626,0.418l-4.068,0c0,0 -0.678,-0.678 -0.678,-0.678c0,0 0.678,-0.677 0.678,-0.677l4.068,0c0.086,0.017 0.173,0.034 0.259,0.051Zm17.626,0c0.373,0.25 0.893,1.075 -0.26,1.304l-4.067,0c-1.708,-0.339 -0.479,-1.157 -0.479,-1.157c0.218,-0.146 0.221,-0.147 0.479,-0.198l4.067,0c0.087,0.017 0.173,0.034 0.26,0.051Zm17.625,0c1.221,0.816 0.22,1.106 0.22,1.106c-0.218,0.146 -0.221,0.147 -0.479,0.198l-4.067,0c-1.709,-0.339 -0.48,-1.157 -0.48,-1.157c0.219,-0.146 0.222,-0.147 0.48,-0.198l4.067,0c0.086,0.017 0.173,0.034 0.259,0.051Zm17.626,0c1.221,0.816 0.22,1.106 0.22,1.106c-0.219,0.146 -0.221,0.147 -0.479,0.198l-4.068,0c-1.708,-0.339 -0.479,-1.157 -0.479,-1.157c0.218,-0.146 0.221,-0.147 0.479,-0.198l4.068,0c0.086,0.017 0.173,0.034 0.259,0.051Zm17.626,0c1.22,0.816 0.22,1.106 0.22,1.106c-0.219,0.146 -0.222,0.147 -0.48,0.198l-4.067,0c-0.874,-0.173 -0.985,-1.16 0,-1.355l4.067,0c0.087,0.017 0.173,0.034 0.26,0.051Zm17.625,0l0.367,0.886l-0.626,0.418l-4.068,0c-0.874,-0.173 -0.984,-1.16 0,-1.355l4.068,0c0.086,0.017 0.173,0.034 0.259,0.051Zm17.626,0l0.367,0.886l-0.627,0.418l-4.067,0c-2.575,-0.512 0,-1.355 0,-1.355l4.067,0c0.087,0.017 0.173,0.034 0.26,0.051Zm17.626,0c0,0 0.366,0.886 0.366,0.886l-0.626,0.418l-4.067,0c-2.577,-0.512 0,-1.355 0,-1.355l4.067,0c0.087,0.017 0.173,0.034 0.26,0.051Zm17.625,0c0,0 0.367,0.886 0.367,0.886l-0.626,0.418l-4.068,0c0,0 -0.534,0.047 -0.678,-0.678c0,0 0.678,-0.677 0.678,-0.677l4.068,0c0.086,0.017 0.173,0.034 0.259,0.051Zm17.626,0c0,0 0.367,0.886 0.367,0.886l-0.627,0.418l-4.067,0c0,0 -0.534,0.047 -0.678,-0.678c0,0 0.678,-0.677 0.678,-0.677l4.067,0c0.087,0.017 0.173,0.034 0.26,0.051Zm17.625,0c0,0 0.367,0.886 0.367,0.886l-0.626,0.418l-4.067,0c0,0 -0.534,0.047 -0.678,-0.678c0,0 0.678,-0.677 0.678,-0.677l4.067,0c0.086,0.017 0.173,0.034 0.259,0.051Zm17.626,0c0.373,0.25 0.894,1.075 -0.259,1.304l-4.068,0c0,0 -0.534,0.047 -0.678,-0.678c0,0 0.678,-0.677 0.678,-0.677l4.068,0c0.086,0.017 0.173,0.034 0.259,0.051Zm17.626,0c0.373,0.25 0.893,1.075 -0.26,1.304l-4.067,0c-1.708,-0.339 -0.48,-1.157 -0.48,-1.157c0.219,-0.146 0.222,-0.147 0.48,-0.198l4.067,0c0.087,0.017 0.173,0.034 0.26,0.051Zm17.625,0c1.221,0.816 0.22,1.106 0.22,1.106c-0.218,0.146 -0.221,0.147 -0.479,0.198l-4.068,0c-0.605,-0.12 -0.479,-1.157 -0.479,-1.157c0.219,-0.146 0.221,-0.147 0.479,-0.198l4.068,0c0.086,0.017 0.173,0.034 0.259,0.051Zm17.626,0c1.221,0.816 0.22,1.106 0.22,1.106c-0.219,0.146 -0.222,0.147 -0.479,0.198l-4.068,0c-1.708,-0.339 -0.479,-1.157 -0.479,-1.157c0.218,-0.146 0.221,-0.147 0.479,-0.198l4.068,0c0.086,0.017 0.172,0.034 0.259,0.051Zm17.626,0c1.221,0.816 0.22,1.106 0.22,1.106c-0.219,0.146 -0.222,0.147 -0.48,0.198l-4.067,0c-0.874,-0.173 -0.985,-1.16 0,-1.355l4.067,0c0.087,0.017 0.173,0.034 0.26,0.051Zm17.625,0l0.367,0.886l-0.626,0.418l-4.068,0c-0.874,-0.173 -0.984,-1.16 0,-1.355l4.068,0c0.086,0.017 0.173,0.034 0.259,0.051Zm17.626,0l0.367,0.886l-0.627,0.418l-4.067,0c-2.575,-0.512 0,-1.355 0,-1.355l4.067,0c0.087,0.017 0.173,0.034 0.26,0.051Zm17.625,0c0,0 0.367,0.886 0.367,0.886l-0.626,0.418l-4.067,0c-2.577,-0.512 0,-1.355 0,-1.355l4.067,0c0.087,0.017 0.173,0.034 0.259,0.051Zm17.626,0c0,0 0.367,0.886 0.367,0.886l-0.626,0.418l-4.068,0c0,0 -0.534,0.047 -0.678,-0.678c0,0 0.678,-0.677 0.678,-0.677l4.068,0c0.086,0.017 0.173,0.034 0.259,0.051Zm17.626,0c0,0 0.367,0.886 0.367,0.886l-0.627,0.418l-4.067,0c0,0 -0.534,0.047 -0.678,-0.678c0,0 0.678,-0.677 0.678,-0.677l4.067,0c0.087,0.017 0.173,0.034 0.26,0.051Zm17.625,0c0,0 0.367,0.886 0.367,0.886l-0.626,0.418l-4.067,0c0,0 -0.534,0.047 -0.678,-0.678c0,0 0.678,-0.677 0.678,-0.677l4.067,0c0.086,0.017 0.173,0.034 0.259,0.051Zm17.626,0c0.373,0.25 0.894,1.075 -0.259,1.304l-4.068,0c0,0 -0.534,0.047 -0.678,-0.678c0,0 0.678,-0.677 0.678,-0.677l4.068,0c0.086,0.017 0.173,0.034 0.259,0.051Zm17.626,0c0.373,0.25 0.893,1.075 -0.26,1.304l-4.067,0c-1.708,-0.339 -0.48,-1.157 -0.48,-1.157c0.219,-0.146 0.222,-0.147 0.48,-0.198l4.067,0c0.087,0.017 0.173,0.034 0.26,0.051Zm17.625,0c1.221,0.816 0.22,1.106 0.22,1.106c-0.218,0.146 -0.221,0.147 -0.479,0.198l-4.068,0c-0.605,-0.12 -0.479,-1.157 -0.479,-1.157c0.219,-0.146 0.221,-0.147 0.479,-0.198l4.068,0c0.086,0.017 0.173,0.034 0.259,0.051Zm17.626,0c1.22,0.816 0.22,1.106 0.22,1.106c-0.219,0.146 -0.222,0.147 -0.48,0.198l-4.067,0c-1.708,-0.339 -0.479,-1.157 -0.479,-1.157c0.218,-0.146 0.221,-0.147 0.479,-0.198l4.067,0c0.087,0.017 0.173,0.034 0.26,0.051Zm17.626,0c1.22,0.816 0.219,1.106 0.219,1.106c-0.218,0.146 -0.221,0.147 -0.479,0.198l-4.067,0c-0.874,-0.173 -0.985,-1.16 0,-1.355l4.067,0c0.087,0.017 0.173,0.034 0.26,0.051Zm17.625,0c1.883,1.258 -0.259,1.304 -0.259,1.304l-4.068,0c0,0 -0.495,0.242 -0.678,-0.678c0,0 -0.202,-0.502 0.678,-0.677l4.068,0c0.086,0.017 0.173,0.034 0.259,0.051Z" style="fill:#eab543;fill-rule:nonzero;"/>
        <g id="fifth_line_icon">
            <circle cx="572.74" cy="26.421" r="24.267" style="fill:none;stroke:#eab543;stroke-width:3.57px;"/>
            <path d="M568.287,40.392l-9.278,0c-0.37,0 -0.675,-0.302 -0.678,-0.672l-0.06,-9.599c-0.004,-0.324 0.225,-0.608 0.542,-0.672l13.807,-2.582c0.083,-0.016 0.167,-0.016 0.25,0l13.796,2.582c0.315,0.064 0.543,0.345 0.542,0.667l0,9.615c0,0.372 -0.306,0.678 -0.678,0.678l0.038,-0.011l-9.333,0c-0.372,0 -0.678,-0.306 -0.678,-0.678l0,-5.006l-7.592,0l0,5c0,0.372 -0.306,0.678 -0.678,0.678Zm9.604,-1.355l7.978,0l0,-8.368l-13.097,-2.462l-13.14,2.462l0.049,8.357l7.923,0l0,-5c0,-0.372 0.306,-0.678 0.678,-0.678l8.937,0c0.372,0 0.678,0.306 0.678,0.678l-0.006,5.011Zm0.635,-17.186l-0.754,5.179c-0.039,0.268 -0.271,0.469 -0.542,0.469c-0.301,0 -0.548,-0.247 -0.548,-0.548c0,-0.026 0.002,-0.052 0.005,-0.078l1.324,-9.105c0.038,-0.269 0.271,-0.469 0.542,-0.467l4.469,0.06c0.276,-0.002 0.511,0.208 0.542,0.483l1.16,10.395c0.003,0.021 0.004,0.042 0.004,0.064c0,0.274 -0.208,0.507 -0.481,0.538l-0.06,0c-0.276,0.002 -0.511,-0.208 -0.542,-0.482l-0.727,-6.508l-4.392,0Zm4.3,-0.813l-0.07,-0.651l-4.019,0l-0.092,0.651l4.181,0Zm-0.162,-1.465l-0.125,-1.133l-3.498,-0.043l-0.173,1.176l3.796,0Zm-3.026,-2.754l-0.044,0c-0.281,-0.022 -0.501,-0.259 -0.501,-0.541c0,-0.015 0.001,-0.03 0.002,-0.045c0.055,-0.683 0.141,-1.231 0.217,-1.714c0.174,-1.084 0.25,-1.594 -0.211,-2.245c-0.208,-0.284 -0.431,-0.558 -0.667,-0.819c-0.651,-0.743 -1.329,-1.513 -0.949,-2.662c0.078,-0.213 0.282,-0.355 0.509,-0.355c0.297,0 0.542,0.244 0.542,0.542c0,0.05 -0.007,0.1 -0.021,0.149c-0.179,0.542 0.114,0.905 0.738,1.627c0.261,0.289 0.507,0.591 0.737,0.905c0.721,1.014 0.586,1.866 0.401,3.043c-0.07,0.461 -0.157,0.987 -0.206,1.627c-0.028,0.278 -0.267,0.492 -0.547,0.488Zm1.881,0l-0.043,0c-0.281,-0.022 -0.501,-0.259 -0.501,-0.541c0,-0.015 0.001,-0.03 0.002,-0.045c0.054,-0.683 0.141,-1.231 0.217,-1.714c0.174,-1.084 0.249,-1.594 -0.212,-2.245c-0.207,-0.284 -0.43,-0.558 -0.667,-0.819c-0.65,-0.743 -1.328,-1.513 -0.949,-2.662c0.079,-0.213 0.283,-0.355 0.509,-0.355c0.298,0 0.543,0.244 0.543,0.542c0,0.05 -0.007,0.1 -0.021,0.149c-0.179,0.542 0.114,0.905 0.737,1.627c0.262,0.289 0.508,0.591 0.738,0.905c0.721,1.014 0.586,1.866 0.401,3.043c-0.07,0.461 -0.157,0.987 -0.206,1.627c-0.028,0.278 -0.268,0.492 -0.548,0.488Z" style="fill:#eab543;fill-rule:nonzero;"/>
        </g>
        <path id="fifth_line_legend" d="M573.151,59.806c0.929,0.281 1.549,0.56 1.697,2.067l0,227.734c-0.22,2.229 -3.946,2.741 -4.216,0l0,-227.734c0.189,-1.913 0.642,-2.252 2.519,-2.067Z" style="fill:#eab543;fill-rule:nonzero;"/>
        <g id="fifth_line_label">
            <path d="M563.351,339.714l0,-2.212c0,-0.699 0.266,-1.375 0.798,-2.028c0.532,-0.654 1.177,-1.254 1.937,-1.801l2.234,-1.619c0.76,-0.547 1.406,-1.166 1.938,-1.858c0.532,-0.691 0.798,-1.402 0.798,-2.131c0,-0.791 -0.27,-1.49 -0.809,-2.098c-0.54,-0.607 -1.296,-0.911 -2.269,-0.911c-0.82,0 -1.485,0.231 -1.994,0.695c-0.509,0.463 -0.764,1.128 -0.764,1.995c0,0.167 -0.072,0.311 -0.216,0.433c-0.145,0.121 -0.339,0.182 -0.582,0.182c-0.456,0 -0.684,-0.311 -0.684,-0.935c0,-1.094 0.411,-1.998 1.231,-2.712c0.821,-0.715 1.839,-1.072 3.055,-1.072c1.307,0 2.39,0.418 3.249,1.254c0.858,0.836 1.288,1.877 1.288,3.123c0,0.76 -0.19,1.489 -0.57,2.189c-0.38,0.699 -0.851,1.291 -1.414,1.778c-0.562,0.486 -1.178,0.98 -1.846,1.481l-1.847,1.323c-0.562,0.38 -1.033,0.809 -1.413,1.288c-0.38,0.478 -0.57,0.953 -0.57,1.424l0,1.414l7.272,0c0.152,0 0.281,0.068 0.388,0.205c0.106,0.137 0.159,0.296 0.159,0.479c0,0.182 -0.053,0.346 -0.159,0.49c-0.107,0.144 -0.236,0.216 -0.388,0.216l-8.116,0c-0.167,0 -0.326,-0.057 -0.478,-0.171c-0.152,-0.114 -0.228,-0.254 -0.228,-0.421Z" style="fill:#eab543;fill-rule:nonzero;"/>
            <path d="M572.834,335.77c0,-0.152 0.031,-0.281 0.091,-0.388l5.722,-11.284c0.152,-0.304 0.388,-0.456 0.707,-0.456c0.167,0 0.33,0.061 0.49,0.183c0.16,0.121 0.239,0.266 0.239,0.433c0,0.091 -0.022,0.19 -0.068,0.296l-5.266,10.395l4.468,0l0,-4.399c0,-0.38 0.251,-0.57 0.752,-0.57c0.198,0 0.373,0.049 0.525,0.148c0.152,0.099 0.228,0.239 0.228,0.422l0,4.399l1.254,0c0.182,0 0.322,0.072 0.421,0.217c0.099,0.144 0.148,0.308 0.148,0.49c0,0.198 -0.053,0.369 -0.159,0.513c-0.106,0.144 -0.243,0.216 -0.41,0.216l-1.254,0l0,3.329c0,0.182 -0.076,0.326 -0.228,0.433c-0.152,0.106 -0.327,0.159 -0.525,0.159c-0.212,0 -0.391,-0.053 -0.535,-0.159c-0.145,-0.107 -0.217,-0.251 -0.217,-0.433l0,-3.329l-5.79,0c-0.395,0 -0.593,-0.205 -0.593,-0.615Z" style="fill:#eab543;fill-rule:nonzero;"/>
        </g>
        <path id="legend" d="M141.208,380.035l0,-15.231c0,-0.155 0.069,-0.286 0.209,-0.395c0.139,-0.108 0.317,-0.162 0.534,-0.162c0.201,0 0.371,0.054 0.511,0.162c0.139,0.109 0.209,0.24 0.209,0.395l0,1.068c0.278,-0.495 0.688,-0.913 1.23,-1.254c0.542,-0.34 1.169,-0.511 1.881,-0.511c1.145,0 2.128,0.426 2.948,1.277c0.821,0.852 1.231,1.873 1.231,3.065l0,2.531c0,1.161 -0.414,2.186 -1.242,3.076c-0.828,0.89 -1.784,1.335 -2.868,1.335c-0.681,0 -1.308,-0.174 -1.88,-0.522c-0.573,-0.348 -0.991,-0.77 -1.254,-1.265l0,6.431c0,0.139 -0.074,0.271 -0.221,0.395c-0.147,0.123 -0.329,0.185 -0.545,0.185c-0.201,0 -0.376,-0.062 -0.523,-0.185c-0.147,-0.124 -0.22,-0.256 -0.22,-0.395Zm75.458,0l0,-15.231c0,-0.155 0.07,-0.286 0.209,-0.395c0.139,-0.108 0.317,-0.162 0.534,-0.162c0.201,0 0.371,0.054 0.511,0.162c0.139,0.109 0.209,0.24 0.209,0.395l0,1.068c0.278,-0.495 0.688,-0.913 1.23,-1.254c0.542,-0.34 1.169,-0.511 1.881,-0.511c1.145,0 2.128,0.426 2.948,1.277c0.821,0.852 1.231,1.873 1.231,3.065l0,2.531c0,1.161 -0.414,2.186 -1.242,3.076c-0.828,0.89 -1.784,1.335 -2.868,1.335c-0.681,0 -1.308,-0.174 -1.88,-0.522c-0.573,-0.348 -0.991,-0.77 -1.254,-1.265l0,6.431c0,0.139 -0.074,0.271 -0.221,0.395c-0.147,0.123 -0.328,0.185 -0.545,0.185c-0.201,0 -0.376,-0.062 -0.523,-0.185c-0.147,-0.124 -0.22,-0.256 -0.22,-0.395Zm27.049,-0.093c0,-0.201 0.062,-0.368 0.185,-0.499c0.124,-0.132 0.279,-0.197 0.465,-0.197c0.681,0 1.13,-0.252 1.346,-0.755c0.217,-0.503 0.325,-1.258 0.325,-2.264l0,-11.423c0,-0.17 0.07,-0.306 0.209,-0.406c0.14,-0.101 0.318,-0.151 0.534,-0.151c0.217,0 0.399,0.054 0.546,0.162c0.147,0.109 0.221,0.24 0.221,0.395l0,11.423c0,2.926 -1.022,4.388 -3.065,4.388c-0.263,0 -0.457,-0.065 -0.581,-0.197c-0.123,-0.132 -0.185,-0.29 -0.185,-0.476Zm125.745,-11.08c0.532,0.22 0.88,0.739 0.88,1.315c0,0.576 -0.348,1.096 -0.88,1.315c-4.507,1.862 -12.612,5.211 -16.334,6.748c-0.439,0.182 -0.939,0.132 -1.334,-0.132c-0.395,-0.264 -0.632,-0.708 -0.632,-1.183c0,-3.414 0,-10.081 0,-13.496c0,-0.475 0.237,-0.918 0.632,-1.182c0.395,-0.264 0.895,-0.314 1.334,-0.133c3.722,1.538 11.827,4.886 16.334,6.748Zm-281.096,2.118l0,-2.484c0,-1.301 0.379,-2.357 1.138,-3.17c0.758,-0.812 1.873,-1.219 3.343,-1.219c0.929,0 1.706,0.167 2.333,0.5c0.627,0.332 0.941,0.669 0.941,1.01c0,0.17 -0.07,0.336 -0.209,0.499c-0.14,0.162 -0.294,0.244 -0.465,0.244c-0.092,0 -0.236,-0.07 -0.429,-0.209c-0.194,-0.14 -0.468,-0.283 -0.824,-0.43c-0.356,-0.147 -0.782,-0.22 -1.277,-0.22c-0.991,0 -1.746,0.263 -2.264,0.789c-0.519,0.526 -0.778,1.261 -0.778,2.206l0,2.484c0,0.96 0.259,1.703 0.778,2.229c0.518,0.526 1.281,0.789 2.287,0.789c0.526,0 0.971,-0.073 1.335,-0.22c0.364,-0.147 0.642,-0.294 0.836,-0.441c0.193,-0.147 0.344,-0.221 0.452,-0.221c0.202,0 0.368,0.077 0.5,0.232c0.131,0.155 0.197,0.325 0.197,0.511c0,0.356 -0.325,0.7 -0.975,1.033c-0.65,0.333 -1.455,0.499 -2.415,0.499c-1.486,0 -2.608,-0.402 -3.366,-1.207c-0.759,-0.805 -1.138,-1.873 -1.138,-3.204Zm63.64,0l0,-2.531c0,-1.176 0.434,-2.194 1.3,-3.053c0.867,-0.859 1.896,-1.289 3.088,-1.289c1.192,0 2.229,0.426 3.111,1.277c0.883,0.852 1.324,1.873 1.324,3.065l0,2.531c0,1.161 -0.445,2.186 -1.335,3.076c-0.89,0.89 -1.923,1.335 -3.1,1.335c-1.161,0 -2.182,-0.445 -3.064,-1.335c-0.883,-0.89 -1.324,-1.915 -1.324,-3.076Zm-53.819,0.046l0,-6.199c0,-0.139 0.074,-0.271 0.221,-0.394c0.147,-0.124 0.329,-0.186 0.545,-0.186c0.186,0 0.356,0.062 0.511,0.186c0.155,0.123 0.232,0.255 0.232,0.394l0,6.199c0,0.774 0.287,1.463 0.859,2.067c0.573,0.603 1.254,0.905 2.043,0.905c0.79,0 1.471,-0.302 2.044,-0.905c0.572,-0.604 0.859,-1.293 0.859,-2.067l0,-6.222c0,-0.155 0.077,-0.286 0.232,-0.395c0.155,-0.108 0.333,-0.162 0.534,-0.162c0.201,0 0.375,0.054 0.522,0.162c0.147,0.109 0.221,0.24 0.221,0.395l0,6.222c0,1.161 -0.437,2.179 -1.312,3.054c-0.874,0.874 -1.908,1.311 -3.1,1.311c-1.207,0 -2.244,-0.437 -3.111,-1.311c-0.867,-0.875 -1.3,-1.893 -1.3,-3.054Zm-32.342,-0.835l0,0.859c0,0.913 0.329,1.644 0.986,2.194c0.658,0.549 1.506,0.824 2.543,0.824c0.526,0 0.986,-0.077 1.381,-0.232c0.395,-0.155 0.697,-0.31 0.906,-0.465c0.209,-0.154 0.375,-0.232 0.499,-0.232c0.17,0 0.321,0.082 0.453,0.244c0.131,0.163 0.197,0.321 0.197,0.476c0,0.325 -0.333,0.662 -0.998,1.01c-0.666,0.348 -1.494,0.522 -2.485,0.522c-1.47,0 -2.67,-0.406 -3.598,-1.219c-0.929,-0.812 -1.394,-1.876 -1.394,-3.192l0,-2.6c0,-1.161 0.434,-2.164 1.301,-3.007c0.866,-0.844 1.911,-1.266 3.134,-1.266c1.176,0 2.194,0.403 3.053,1.208c0.859,0.805 1.289,1.811 1.289,3.018c0,0.434 -0.051,0.782 -0.151,1.045c-0.101,0.263 -0.263,0.449 -0.488,0.557c-0.224,0.109 -0.429,0.178 -0.615,0.209c-0.186,0.031 -0.441,0.047 -0.766,0.047l-5.247,0Zm8.846,3.529c0,-0.155 0.054,-0.31 0.162,-0.465c0.108,-0.154 0.232,-0.232 0.372,-0.232c0.108,0 0.278,0.089 0.51,0.267c0.233,0.178 0.565,0.36 0.999,0.546c0.433,0.186 0.952,0.278 1.555,0.278c0.821,0 1.424,-0.154 1.811,-0.464c0.387,-0.31 0.581,-0.704 0.581,-1.184c0,-0.557 -0.198,-1.002 -0.592,-1.335c-0.395,-0.333 -0.871,-0.577 -1.428,-0.731c-0.557,-0.155 -1.118,-0.326 -1.683,-0.511c-0.565,-0.186 -1.045,-0.492 -1.44,-0.917c-0.395,-0.426 -0.592,-0.995 -0.592,-1.707c0,-0.851 0.306,-1.59 0.917,-2.217c0.612,-0.627 1.529,-0.941 2.751,-0.941c0.759,0 1.467,0.12 2.125,0.36c0.658,0.24 0.987,0.5 0.987,0.778c0,0.155 -0.062,0.325 -0.186,0.511c-0.124,0.186 -0.271,0.279 -0.441,0.279c-0.047,0 -0.333,-0.109 -0.859,-0.325c-0.527,-0.217 -1.061,-0.326 -1.602,-0.326c-0.774,0 -1.355,0.186 -1.742,0.558c-0.387,0.371 -0.58,0.789 -0.58,1.253c0,0.48 0.197,0.86 0.592,1.138c0.395,0.279 0.874,0.492 1.439,0.639c0.565,0.147 1.13,0.317 1.695,0.51c0.565,0.194 1.045,0.534 1.44,1.022c0.395,0.488 0.592,1.118 0.592,1.892c0,0.929 -0.329,1.66 -0.987,2.194c-0.658,0.534 -1.575,0.801 -2.751,0.801c-1.022,0 -1.885,-0.181 -2.589,-0.545c-0.704,-0.364 -1.056,-0.739 -1.056,-1.126Zm160.04,-2.74l0,-2.531c0,-1.176 0.434,-2.194 1.301,-3.053c0.866,-0.859 1.896,-1.289 3.088,-1.289c1.191,0 2.228,0.426 3.111,1.277c0.882,0.852 1.323,1.873 1.323,3.065l0,2.531c0,1.161 -0.445,2.186 -1.335,3.076c-0.89,0.89 -1.923,1.335 -3.099,1.335c-1.161,0 -2.183,-0.445 -3.065,-1.335c-0.883,-0.89 -1.324,-1.915 -1.324,-3.076Zm43.743,0.046l0,-6.199c0,-0.139 0.073,-0.271 0.22,-0.394c0.147,-0.124 0.329,-0.186 0.546,-0.186c0.186,0 0.356,0.062 0.511,0.186c0.155,0.123 0.232,0.255 0.232,0.394l0,6.199c0,0.774 0.286,1.463 0.859,2.067c0.573,0.603 1.254,0.905 2.043,0.905c0.79,0 1.471,-0.302 2.043,-0.905c0.573,-0.604 0.859,-1.293 0.859,-2.067l0,-6.222c0,-0.155 0.078,-0.286 0.233,-0.395c0.154,-0.108 0.332,-0.162 0.534,-0.162c0.201,0 0.375,0.054 0.522,0.162c0.147,0.109 0.221,0.24 0.221,0.395l0,6.222c0,1.161 -0.438,2.179 -1.312,3.054c-0.875,0.874 -1.908,1.311 -3.1,1.311c-1.207,0 -2.244,-0.437 -3.111,-1.311c-0.867,-0.875 -1.3,-1.893 -1.3,-3.054Zm-153.563,-0.046l0,-2.531c0,-1.192 0.406,-2.213 1.219,-3.065c0.812,-0.851 1.791,-1.277 2.937,-1.277c0.712,0 1.335,0.171 1.869,0.511c0.534,0.341 0.932,0.759 1.196,1.254l0,-7.801c0,-0.155 0.077,-0.287 0.232,-0.395c0.155,-0.108 0.34,-0.162 0.557,-0.162c0.217,0 0.391,0.054 0.522,0.162c0.132,0.108 0.198,0.24 0.198,0.395l0,16.554c0,0.155 -0.07,0.294 -0.209,0.418c-0.14,0.124 -0.31,0.186 -0.511,0.186c-0.186,0 -0.352,-0.062 -0.499,-0.186c-0.147,-0.124 -0.221,-0.263 -0.221,-0.418l0,-1.021c-0.263,0.495 -0.685,0.917 -1.265,1.265c-0.581,0.348 -1.219,0.522 -1.916,0.522c-1.099,0 -2.058,-0.445 -2.879,-1.335c-0.82,-0.89 -1.23,-1.915 -1.23,-3.076Zm75.481,0.046l0,-6.199c0,-0.139 0.074,-0.271 0.221,-0.394c0.147,-0.124 0.329,-0.186 0.545,-0.186c0.186,0 0.356,0.062 0.511,0.186c0.155,0.123 0.232,0.255 0.232,0.394l0,6.199c0,0.774 0.287,1.463 0.859,2.067c0.573,0.603 1.254,0.905 2.044,0.905c0.789,0 1.47,-0.302 2.043,-0.905c0.572,-0.604 0.859,-1.293 0.859,-2.067l0,-6.222c0,-0.155 0.077,-0.286 0.232,-0.395c0.155,-0.108 0.333,-0.162 0.534,-0.162c0.201,0 0.375,0.054 0.522,0.162c0.147,0.109 0.221,0.24 0.221,0.395l0,6.222c0,1.161 -0.437,2.179 -1.312,3.054c-0.874,0.874 -1.908,1.311 -3.099,1.311c-1.208,0 -2.245,-0.437 -3.112,-1.311c-0.866,-0.875 -1.3,-1.893 -1.3,-3.054Zm-37.474,-0.046l0,-2.484c0,-1.301 0.38,-2.357 1.138,-3.17c0.759,-0.812 1.873,-1.219 3.344,-1.219c0.928,0 1.706,0.167 2.333,0.5c0.627,0.332 0.94,0.669 0.94,1.01c0,0.17 -0.069,0.336 -0.209,0.499c-0.139,0.162 -0.294,0.244 -0.464,0.244c-0.093,0 -0.236,-0.07 -0.43,-0.209c-0.193,-0.14 -0.468,-0.283 -0.824,-0.43c-0.356,-0.147 -0.781,-0.22 -1.277,-0.22c-0.99,0 -1.745,0.263 -2.264,0.789c-0.518,0.526 -0.777,1.261 -0.777,2.206l0,2.484c0,0.96 0.259,1.703 0.777,2.229c0.519,0.526 1.281,0.789 2.287,0.789c0.527,0 0.972,-0.073 1.335,-0.22c0.364,-0.147 0.643,-0.294 0.836,-0.441c0.194,-0.147 0.345,-0.221 0.453,-0.221c0.201,0 0.368,0.077 0.499,0.232c0.132,0.155 0.198,0.325 0.198,0.511c0,0.356 -0.325,0.7 -0.976,1.033c-0.65,0.333 -1.455,0.499 -2.414,0.499c-1.486,0 -2.608,-0.402 -3.367,-1.207c-0.758,-0.805 -1.138,-1.873 -1.138,-3.204Zm88.646,-0.789l0,0.859c0,0.913 0.329,1.644 0.987,2.194c0.658,0.549 1.505,0.824 2.542,0.824c0.527,0 0.987,-0.077 1.382,-0.232c0.395,-0.155 0.696,-0.31 0.905,-0.465c0.209,-0.154 0.376,-0.232 0.5,-0.232c0.17,0 0.321,0.082 0.452,0.244c0.132,0.163 0.198,0.321 0.198,0.476c0,0.325 -0.333,0.662 -0.999,1.01c-0.665,0.348 -1.493,0.522 -2.484,0.522c-1.47,0 -2.67,-0.406 -3.599,-1.219c-0.928,-0.812 -1.393,-1.876 -1.393,-3.192l0,-2.6c0,-1.161 0.434,-2.164 1.3,-3.007c0.867,-0.844 1.912,-1.266 3.135,-1.266c1.176,0 2.194,0.403 3.053,1.208c0.859,0.805 1.289,1.811 1.289,3.018c0,0.434 -0.051,0.782 -0.151,1.045c-0.101,0.263 -0.264,0.449 -0.488,0.557c-0.224,0.109 -0.43,0.178 -0.615,0.209c-0.186,0.031 -0.441,0.047 -0.766,0.047l-5.248,0Zm-79.474,2.136c0,-1.192 0.46,-2.02 1.381,-2.485c0.921,-0.464 2.264,-0.696 4.028,-0.696l1.184,0l0,-0.557c0,-0.852 -0.224,-1.591 -0.673,-2.218c-0.449,-0.627 -1.138,-0.94 -2.066,-0.94c-0.619,0 -1.181,0.112 -1.684,0.337c-0.503,0.224 -0.77,0.336 -0.801,0.336c-0.185,0 -0.332,-0.085 -0.441,-0.255c-0.108,-0.17 -0.162,-0.356 -0.162,-0.557c0,-0.294 0.333,-0.565 0.998,-0.813c0.666,-0.248 1.378,-0.372 2.136,-0.372c1.455,0 2.519,0.422 3.193,1.266c0.673,0.843 1.01,1.915 1.01,3.216l0,6.036c0,0.17 -0.07,0.314 -0.209,0.43c-0.14,0.116 -0.318,0.174 -0.534,0.174c-0.202,0 -0.368,-0.058 -0.5,-0.174c-0.131,-0.116 -0.197,-0.26 -0.197,-0.43l0,-1.021c-1.037,1.191 -2.206,1.787 -3.506,1.787c-0.929,0 -1.687,-0.259 -2.275,-0.777c-0.588,-0.519 -0.882,-1.281 -0.882,-2.287Zm-58.068,-1.347l0,-2.531c0,-1.176 0.433,-2.194 1.3,-3.053c0.867,-0.859 1.896,-1.289 3.088,-1.289c1.192,0 2.229,0.426 3.111,1.277c0.882,0.852 1.323,1.873 1.323,3.065l0,2.531c0,1.161 -0.445,2.186 -1.335,3.076c-0.89,0.89 -1.923,1.335 -3.099,1.335c-1.161,0 -2.183,-0.445 -3.065,-1.335c-0.882,-0.89 -1.323,-1.915 -1.323,-3.076Zm75.899,3.645l0,-16.554c0,-0.155 0.07,-0.287 0.209,-0.395c0.139,-0.108 0.317,-0.162 0.534,-0.162c0.217,0 0.398,0.054 0.545,0.162c0.148,0.108 0.221,0.24 0.221,0.395l0,11.307l5.665,-5.038c0.155,-0.093 0.271,-0.14 0.348,-0.14c0.186,0 0.36,0.074 0.523,0.221c0.162,0.147 0.244,0.313 0.244,0.499c0,0.186 -0.055,0.325 -0.163,0.418l-3.413,2.995l4.017,5.874c0.062,0.124 0.093,0.232 0.093,0.325c0,0.171 -0.085,0.341 -0.256,0.511c-0.17,0.17 -0.356,0.256 -0.557,0.256c-0.186,0 -0.34,-0.093 -0.464,-0.279l-3.901,-5.735l-2.136,1.881l0,3.459c0,0.155 -0.073,0.294 -0.221,0.418c-0.147,0.124 -0.328,0.186 -0.545,0.186c-0.201,0 -0.376,-0.062 -0.523,-0.186c-0.147,-0.124 -0.22,-0.263 -0.22,-0.418Zm71.186,0l0,-16.554c0,-0.155 0.07,-0.287 0.209,-0.395c0.139,-0.108 0.317,-0.162 0.534,-0.162c0.217,0 0.398,0.054 0.545,0.162c0.147,0.108 0.221,0.24 0.221,0.395l0,11.307l5.665,-5.038c0.155,-0.093 0.271,-0.14 0.348,-0.14c0.186,0 0.36,0.074 0.523,0.221c0.162,0.147 0.244,0.313 0.244,0.499c0,0.186 -0.055,0.325 -0.163,0.418l-3.413,2.995l4.017,5.874c0.062,0.124 0.093,0.232 0.093,0.325c0,0.171 -0.085,0.341 -0.256,0.511c-0.17,0.17 -0.356,0.256 -0.557,0.256c-0.186,0 -0.341,-0.093 -0.464,-0.279l-3.901,-5.735l-2.136,1.881l0,3.459c0,0.155 -0.074,0.294 -0.221,0.418c-0.147,0.124 -0.328,0.186 -0.545,0.186c-0.201,0 -0.376,-0.062 -0.523,-0.186c-0.147,-0.124 -0.22,-0.263 -0.22,-0.418Zm-176.781,0l0,-9.821c0,-0.155 0.07,-0.286 0.209,-0.395c0.139,-0.108 0.317,-0.162 0.534,-0.162c0.217,0 0.399,0.054 0.546,0.162c0.147,0.109 0.22,0.24 0.22,0.395l0,9.821c0,0.155 -0.077,0.294 -0.232,0.418c-0.155,0.124 -0.333,0.186 -0.534,0.186c-0.201,0 -0.375,-0.062 -0.522,-0.186c-0.147,-0.124 -0.221,-0.263 -0.221,-0.418Zm-34.664,0l0,-15.625c0,-0.496 0.255,-0.743 0.766,-0.743c0.449,0 0.859,0.356 1.23,1.068l3.994,7.708l3.993,-7.708c0.372,-0.712 0.782,-1.068 1.231,-1.068c0.511,0 0.766,0.247 0.766,0.743l0,15.625c0,0.186 -0.073,0.333 -0.22,0.441c-0.147,0.109 -0.329,0.163 -0.546,0.163c-0.201,0 -0.379,-0.054 -0.534,-0.163c-0.155,-0.108 -0.232,-0.255 -0.232,-0.441l0,-13.048l-3.854,7.29c-0.171,0.325 -0.38,0.488 -0.627,0.488c-0.232,0 -0.434,-0.163 -0.604,-0.488l-3.831,-7.36l0,13.118c0,0.186 -0.077,0.333 -0.232,0.441c-0.155,0.109 -0.333,0.163 -0.534,0.163c-0.217,0 -0.399,-0.054 -0.546,-0.163c-0.147,-0.108 -0.22,-0.255 -0.22,-0.441Zm137.635,0.604l-0.65,0c-2.445,0 -3.668,-1.138 -3.668,-3.413l0,-12.236c0,-0.155 0.077,-0.286 0.232,-0.395c0.155,-0.108 0.325,-0.162 0.511,-0.162c0.201,0 0.379,0.054 0.534,0.162c0.155,0.109 0.232,0.24 0.232,0.395l0,4.667l2.995,0c0.155,0 0.283,0.062 0.383,0.186c0.101,0.123 0.151,0.27 0.151,0.441c0,0.17 -0.05,0.317 -0.151,0.441c-0.1,0.124 -0.228,0.186 -0.383,0.186l-2.995,0l0,6.315c0,0.758 0.159,1.288 0.476,1.59c0.317,0.302 0.878,0.453 1.683,0.453l0.65,0c0.202,0 0.368,0.066 0.499,0.197c0.132,0.132 0.198,0.291 0.198,0.476c0,0.186 -0.066,0.349 -0.198,0.488c-0.131,0.139 -0.297,0.209 -0.499,0.209Zm88.669,0l-0.65,0c-2.445,0 -3.668,-1.138 -3.668,-3.413l0,-12.236c0,-0.155 0.077,-0.286 0.232,-0.395c0.155,-0.108 0.325,-0.162 0.511,-0.162c0.201,0 0.379,0.054 0.534,0.162c0.155,0.109 0.232,0.24 0.232,0.395l0,4.667l2.995,0c0.155,0 0.283,0.062 0.383,0.186c0.101,0.123 0.151,0.27 0.151,0.441c0,0.17 -0.05,0.317 -0.151,0.441c-0.1,0.124 -0.228,0.186 -0.383,0.186l-2.995,0l0,6.315c0,0.758 0.159,1.288 0.476,1.59c0.317,0.302 0.878,0.453 1.683,0.453l0.65,0c0.202,0 0.368,0.066 0.499,0.197c0.132,0.132 0.198,0.291 0.198,0.476c0,0.186 -0.066,0.349 -0.198,0.488c-0.131,0.139 -0.297,0.209 -0.499,0.209Zm-43.487,-9.728c-0.805,0 -1.517,0.313 -2.136,0.94c-0.619,0.627 -0.929,1.443 -0.929,2.449l0,5.735c0,0.155 -0.073,0.294 -0.22,0.418c-0.147,0.124 -0.329,0.186 -0.546,0.186c-0.201,0 -0.375,-0.062 -0.522,-0.186c-0.147,-0.124 -0.221,-0.263 -0.221,-0.418l0,-9.821c0,-0.155 0.07,-0.286 0.209,-0.395c0.14,-0.108 0.318,-0.162 0.534,-0.162c0.201,0 0.372,0.054 0.511,0.162c0.139,0.109 0.209,0.24 0.209,0.395l0,1.138c0.279,-0.511 0.689,-0.944 1.231,-1.3c0.541,-0.356 1.168,-0.535 1.88,-0.535l0.813,0c0.155,0 0.294,0.07 0.418,0.209c0.124,0.14 0.186,0.302 0.186,0.488c0,0.186 -0.062,0.348 -0.186,0.488c-0.124,0.139 -0.263,0.209 -0.418,0.209l-0.813,0Zm-53.796,4.69l-0.975,0c-0.619,0 -1.141,0.023 -1.567,0.069c-0.426,0.047 -0.847,0.132 -1.265,0.256c-0.418,0.123 -0.736,0.325 -0.952,0.603c-0.217,0.279 -0.325,0.635 -0.325,1.068c0,0.65 0.185,1.134 0.557,1.451c0.371,0.318 0.859,0.476 1.463,0.476c0.727,0 1.42,-0.27 2.078,-0.812c0.658,-0.542 0.986,-1.084 0.986,-1.625l0,-1.486Zm-63.152,0.789c0,0.789 0.282,1.49 0.847,2.101c0.565,0.612 1.242,0.917 2.032,0.917c0.805,0 1.494,-0.305 2.066,-0.917c0.573,-0.611 0.859,-1.312 0.859,-2.101l0,-2.531c0,-0.758 -0.29,-1.439 -0.87,-2.043c-0.581,-0.604 -1.266,-0.905 -2.055,-0.905c-0.79,0 -1.467,0.301 -2.032,0.905c-0.565,0.604 -0.847,1.285 -0.847,2.043l0,2.531Zm37.984,0c0,0.789 0.283,1.49 0.848,2.101c0.565,0.612 1.242,0.917 2.031,0.917c0.805,0 1.494,-0.305 2.067,-0.917c0.572,-0.611 0.859,-1.312 0.859,-2.101l0,-2.531c0,-0.758 -0.29,-1.439 -0.871,-2.043c-0.58,-0.604 -1.265,-0.905 -2.055,-0.905c-0.789,0 -1.466,0.301 -2.031,0.905c-0.565,0.604 -0.848,1.285 -0.848,2.043l0,2.531Zm82.726,0c0,0.789 0.282,1.49 0.847,2.101c0.565,0.612 1.242,0.917 2.032,0.917c0.804,0 1.493,-0.305 2.066,-0.917c0.573,-0.611 0.859,-1.312 0.859,-2.101l0,-2.531c0,-0.758 -0.29,-1.439 -0.871,-2.043c-0.58,-0.604 -1.265,-0.905 -2.054,-0.905c-0.79,0 -1.467,0.301 -2.032,0.905c-0.565,0.604 -0.847,1.285 -0.847,2.043l0,2.531Zm-109.821,0c0,0.774 0.286,1.47 0.859,2.09c0.573,0.619 1.246,0.928 2.02,0.928c0.743,0 1.401,-0.278 1.974,-0.836c0.572,-0.557 0.859,-1.044 0.859,-1.462l0,-3.251c0,-0.882 -0.283,-1.594 -0.848,-2.136c-0.565,-0.542 -1.219,-0.812 -1.962,-0.812c-0.789,0 -1.47,0.301 -2.043,0.905c-0.573,0.604 -0.859,1.285 -0.859,2.043l0,2.531Zm16.299,0.72c0,0.418 0.29,0.905 0.871,1.462c0.58,0.558 1.242,0.836 1.985,0.836c0.758,0 1.428,-0.309 2.008,-0.928c0.581,-0.62 0.871,-1.316 0.871,-2.09l0,-2.531c0,-0.758 -0.29,-1.439 -0.871,-2.043c-0.58,-0.604 -1.265,-0.905 -2.055,-0.905c-0.743,0 -1.397,0.27 -1.962,0.812c-0.565,0.542 -0.847,1.254 -0.847,2.136l0,3.251Zm75.458,0c0,0.418 0.29,0.905 0.871,1.462c0.58,0.558 1.242,0.836 1.985,0.836c0.758,0 1.428,-0.309 2.008,-0.928c0.581,-0.62 0.871,-1.316 0.871,-2.09l0,-2.531c0,-0.758 -0.29,-1.439 -0.871,-2.043c-0.58,-0.604 -1.265,-0.905 -2.055,-0.905c-0.743,0 -1.397,0.27 -1.962,0.812c-0.564,0.542 -0.847,1.254 -0.847,2.136l0,3.251Zm129.454,-0.095l-52.594,0c-0.636,-0.039 -0.817,-0.197 -1.068,-0.481c-0.712,-0.804 -0.179,-2.298 1.068,-2.374l52.594,0c0.058,0.004 0.115,0.007 0.172,0.011c1.311,0.24 1.256,0.8 1.256,1.416c0,0.754 -0.653,1.381 -1.428,1.428Zm-96.067,-2.529l4.644,0c0.464,0 0.774,-0.05 0.929,-0.151c0.154,-0.1 0.232,-0.313 0.232,-0.638c0,-0.774 -0.275,-1.455 -0.824,-2.043c-0.55,-0.589 -1.243,-0.883 -2.078,-0.883c-0.805,0 -1.49,0.279 -2.055,0.836c-0.565,0.557 -0.848,1.223 -0.848,1.997l0,0.882Zm-185.719,0l4.643,0c0.465,0 0.774,-0.05 0.929,-0.151c0.155,-0.1 0.232,-0.313 0.232,-0.638c0,-0.774 -0.275,-1.455 -0.824,-2.043c-0.55,-0.589 -1.242,-0.883 -2.078,-0.883c-0.805,0 -1.49,0.279 -2.055,0.836c-0.565,0.557 -0.847,1.223 -0.847,1.997l0,0.882Zm34.594,-9.519c0,-0.573 0.209,-1.076 0.627,-1.509c0.418,-0.434 0.921,-0.65 1.509,-0.65c0.573,0 1.076,0.216 1.509,0.65c0.434,0.433 0.651,0.936 0.651,1.509c0,0.588 -0.217,1.107 -0.651,1.555c-0.433,0.449 -0.936,0.674 -1.509,0.674c-0.572,0 -1.072,-0.225 -1.497,-0.674c-0.426,-0.448 -0.639,-0.967 -0.639,-1.555Zm-34.803,-0.79c0,-0.139 0.042,-0.259 0.127,-0.359c0.085,-0.101 0.19,-0.151 0.314,-0.151c0.139,0 0.255,0.046 0.348,0.139l2.322,2.136l2.298,-2.136c0.093,-0.093 0.209,-0.139 0.349,-0.139c0.123,0 0.228,0.05 0.313,0.151c0.085,0.1 0.128,0.22 0.128,0.359c0,0.202 -0.093,0.38 -0.279,0.534l-2.345,2.09c-0.186,0.155 -0.34,0.232 -0.464,0.232c-0.155,0 -0.31,-0.077 -0.465,-0.232l-2.345,-2.09c-0.201,-0.154 -0.301,-0.332 -0.301,-0.534Zm98.142,0c0,-0.139 0.042,-0.259 0.127,-0.359c0.085,-0.101 0.19,-0.151 0.314,-0.151c0.139,0 0.255,0.046 0.348,0.139l2.322,2.136l2.298,-2.136c0.093,-0.093 0.209,-0.139 0.349,-0.139c0.123,0 0.228,0.05 0.313,0.151c0.085,0.1 0.128,0.22 0.128,0.359c0,0.202 -0.093,0.38 -0.279,0.534l-2.345,2.09c-0.186,0.155 -0.34,0.232 -0.464,0.232c-0.155,0 -0.31,-0.077 -0.465,-0.232l-2.345,-2.09c-0.201,-0.154 -0.301,-0.332 -0.301,-0.534Zm10.703,2.09c0,-0.201 0.085,-0.341 0.255,-0.418l2.601,-1.416c0.046,-0.047 0.108,-0.07 0.186,-0.07c0.17,0 0.305,0.066 0.406,0.197c0.1,0.132 0.151,0.283 0.151,0.453c0,0.248 -0.093,0.418 -0.279,0.511l-2.484,1.323c-0.078,0.047 -0.155,0.07 -0.232,0.07c-0.155,0 -0.294,-0.066 -0.418,-0.197c-0.124,-0.132 -0.186,-0.283 -0.186,-0.453Zm-91.107,0c0,-0.201 0.085,-0.341 0.255,-0.418l2.601,-1.416c0.046,-0.047 0.108,-0.07 0.186,-0.07c0.17,0 0.305,0.066 0.406,0.197c0.101,0.132 0.151,0.283 0.151,0.453c0,0.248 -0.093,0.418 -0.279,0.511l-2.484,1.323c-0.062,0.047 -0.139,0.07 -0.232,0.07c-0.155,0 -0.294,-0.066 -0.418,-0.197c-0.124,-0.132 -0.186,-0.283 -0.186,-0.453Zm17.831,-1.3c0,0.371 0.14,0.708 0.418,1.01c0.279,0.302 0.604,0.453 0.975,0.453c0.356,0 0.67,-0.151 0.941,-0.453c0.271,-0.302 0.406,-0.639 0.406,-1.01c0,-0.341 -0.135,-0.65 -0.406,-0.929c-0.271,-0.279 -0.585,-0.418 -0.941,-0.418c-0.386,0 -0.715,0.139 -0.986,0.418c-0.271,0.279 -0.407,0.588 -0.407,0.929Zm144.833,1.161c-0.201,-0.202 -0.301,-0.434 -0.301,-0.697c0,-0.263 0.1,-0.487 0.301,-0.673c0.202,-0.186 0.449,-0.279 0.743,-0.279c0.279,0 0.515,0.093 0.709,0.279c0.193,0.186 0.29,0.41 0.29,0.673c0,0.263 -0.097,0.492 -0.29,0.685c-0.194,0.194 -0.43,0.29 -0.709,0.29c-0.294,0 -0.541,-0.093 -0.743,-0.278Z" style="fill:#eab543;fill-rule:nonzero;stroke:#f2f2f2;stroke-width:0.08px;stroke-linecap:butt;stroke-miterlimit:1.41421;"/>
        <circle id="fifth_line" cx="572.675" cy="304.897" r="7.559" style="fill:#c3b994;stroke:#312f2f;stroke-width:4.28px;stroke-linecap:butt;stroke-miterlimit:1.41421;"/>
        <g id="fourth_line_phase">
            <path d="M0.006,77.014l0,-12.241c0,-0.144 0.054,-0.255 0.162,-0.333c0.108,-0.078 0.234,-0.117 0.377,-0.117l6.364,0c0.143,0 0.254,0.051 0.332,0.153c0.078,0.102 0.117,0.225 0.117,0.369c0,0.155 -0.039,0.29 -0.117,0.404c-0.078,0.114 -0.189,0.171 -0.332,0.171l-5.716,0l0,4.943l2.84,0c0.131,0 0.236,0.051 0.314,0.153c0.078,0.101 0.117,0.23 0.117,0.386c0,0.324 -0.144,0.485 -0.431,0.485l-2.84,0l0,5.627c0,0.143 -0.06,0.254 -0.18,0.332c-0.12,0.078 -0.258,0.117 -0.414,0.117c-0.395,0 -0.593,-0.15 -0.593,-0.449Z" style="fill:#eab543;fill-rule:nonzero;"/>
            <path d="M5.758,75.216c0,-0.923 0.357,-1.564 1.07,-1.923c0.713,-0.36 1.752,-0.54 3.118,-0.54l0.917,0l0,-0.431c0,-0.659 -0.174,-1.231 -0.521,-1.717c-0.348,-0.485 -0.881,-0.728 -1.6,-0.728c-0.479,0 -0.914,0.087 -1.303,0.261c-0.39,0.174 -0.596,0.261 -0.62,0.261c-0.144,0 -0.258,-0.066 -0.342,-0.198c-0.084,-0.132 -0.126,-0.276 -0.126,-0.431c0,-0.228 0.258,-0.438 0.773,-0.629c0.516,-0.192 1.067,-0.288 1.654,-0.288c1.126,0 1.95,0.326 2.472,0.98c0.521,0.653 0.781,1.482 0.781,2.489l0,4.674c0,0.131 -0.054,0.242 -0.161,0.332c-0.108,0.09 -0.246,0.135 -0.414,0.135c-0.156,0 -0.284,-0.045 -0.386,-0.135c-0.102,-0.09 -0.153,-0.201 -0.153,-0.332l0,-0.791c-0.803,0.922 -1.708,1.384 -2.714,1.384c-0.719,0 -1.306,-0.201 -1.762,-0.602c-0.455,-0.402 -0.683,-0.992 -0.683,-1.771Zm1.169,-0.108c0,0.503 0.143,0.878 0.431,1.124c0.288,0.245 0.665,0.368 1.132,0.368c0.564,0 1.1,-0.21 1.609,-0.629c0.509,-0.419 0.764,-0.839 0.764,-1.258l0,-1.151l-0.755,0c-0.479,0 -0.884,0.018 -1.213,0.054c-0.33,0.036 -0.656,0.102 -0.98,0.198c-0.323,0.096 -0.569,0.252 -0.737,0.467c-0.168,0.216 -0.251,0.492 -0.251,0.827Zm0.683,-8.772c0,-0.155 0.065,-0.263 0.197,-0.323l2.014,-1.097c0.035,-0.036 0.083,-0.054 0.143,-0.054c0.132,0 0.237,0.051 0.315,0.153c0.078,0.102 0.117,0.219 0.117,0.351c0,0.192 -0.072,0.323 -0.216,0.395l-1.923,1.025c-0.06,0.036 -0.12,0.054 -0.18,0.054c-0.12,0 -0.228,-0.051 -0.324,-0.153c-0.095,-0.102 -0.143,-0.219 -0.143,-0.351Z" style="fill:#eab543;fill-rule:nonzero;"/>
            <path d="M13.523,76.996c0,-0.132 0.06,-0.282 0.18,-0.45l4.404,-6.561l-3.973,0c-0.119,0 -0.221,-0.051 -0.305,-0.152c-0.084,-0.102 -0.126,-0.219 -0.126,-0.351c0,-0.144 0.042,-0.267 0.126,-0.368c0.084,-0.102 0.186,-0.153 0.305,-0.153l5.087,0c0.12,0 0.225,0.042 0.315,0.126c0.09,0.083 0.135,0.197 0.135,0.341c0,0.156 -0.048,0.3 -0.144,0.432l-4.422,6.56l4.35,0c0.12,0 0.222,0.051 0.306,0.153c0.084,0.102 0.125,0.231 0.125,0.387c0,0.131 -0.041,0.248 -0.125,0.35c-0.084,0.102 -0.186,0.153 -0.306,0.153l-5.446,0c-0.144,0 -0.261,-0.048 -0.351,-0.144c-0.09,-0.096 -0.135,-0.204 -0.135,-0.323Z" style="fill:#eab543;fill-rule:nonzero;"/>
            <path d="M20.965,74.173l0,-2.013c0,-0.898 0.336,-1.674 1.007,-2.327c0.671,-0.654 1.48,-0.98 2.426,-0.98c0.911,0 1.699,0.311 2.364,0.935c0.665,0.623 0.997,1.402 0.997,2.336c0,0.336 -0.038,0.606 -0.116,0.809c-0.078,0.204 -0.204,0.348 -0.378,0.432c-0.174,0.084 -0.332,0.137 -0.476,0.161c-0.144,0.024 -0.342,0.036 -0.593,0.036l-4.063,0l0,0.665c0,0.707 0.255,1.274 0.764,1.699c0.51,0.425 1.166,0.638 1.969,0.638c0.407,0 0.763,-0.06 1.069,-0.18c0.306,-0.119 0.539,-0.239 0.701,-0.359c0.162,-0.12 0.291,-0.18 0.387,-0.18c0.131,0 0.248,0.063 0.35,0.189c0.102,0.126 0.153,0.249 0.153,0.368c0,0.252 -0.258,0.513 -0.773,0.782c-0.515,0.27 -1.156,0.405 -1.923,0.405c-1.139,0 -2.068,-0.315 -2.787,-0.944c-0.719,-0.629 -1.078,-1.453 -1.078,-2.472Zm1.168,-1.473l3.595,0c0.36,0 0.599,-0.039 0.719,-0.117c0.12,-0.078 0.18,-0.243 0.18,-0.495c0,-0.599 -0.213,-1.126 -0.638,-1.581c-0.425,-0.456 -0.962,-0.683 -1.609,-0.683c-0.623,0 -1.153,0.215 -1.591,0.647c-0.437,0.431 -0.656,0.946 -0.656,1.546l0,0.683Z" style="fill:#eab543;fill-rule:nonzero;"/>
            <path d="M32.451,72.466c0,-0.132 0.033,-0.243 0.099,-0.333c0.066,-0.09 0.153,-0.134 0.26,-0.134l1.978,0l0.431,-2.876l-1.725,0c-0.288,0 -0.432,-0.156 -0.432,-0.468c0,-0.299 0.12,-0.449 0.36,-0.449l1.977,0l0.521,-3.29c0.036,-0.179 0.186,-0.269 0.449,-0.269c0.384,0 0.576,0.174 0.576,0.521l-0.486,3.038l2.283,0l0.521,-3.29c0.036,-0.179 0.186,-0.269 0.45,-0.269c0.383,0 0.575,0.174 0.575,0.521l-0.485,3.038l1.761,0c0.108,0 0.21,0.042 0.306,0.126c0.096,0.084 0.144,0.191 0.144,0.323c0,0.12 -0.039,0.228 -0.117,0.324c-0.078,0.096 -0.165,0.144 -0.261,0.144l-1.977,0l-0.467,2.876l1.761,0c0.108,0 0.21,0.044 0.306,0.134c0.096,0.09 0.143,0.201 0.143,0.333c0,0.12 -0.038,0.225 -0.116,0.314c-0.078,0.09 -0.165,0.135 -0.261,0.135l-1.995,0l-0.557,3.577c-0.06,0.24 -0.228,0.36 -0.504,0.36c-0.156,0 -0.287,-0.045 -0.395,-0.135c-0.108,-0.09 -0.162,-0.219 -0.162,-0.387l0.521,-3.415l-2.247,0l-0.557,3.559c-0.012,0.12 -0.069,0.213 -0.171,0.279c-0.101,0.066 -0.206,0.099 -0.314,0.099c-0.156,0 -0.288,-0.045 -0.396,-0.135c-0.107,-0.09 -0.161,-0.219 -0.161,-0.387l0.503,-3.415l-1.708,0c-0.287,0 -0.431,-0.15 -0.431,-0.449Zm3.397,-0.467l2.265,0l0.449,-2.876l-2.264,0l-0.45,2.876Z" style="fill:#eab543;fill-rule:nonzero;"/>
            <path d="M42.607,73.886c0,-0.12 0.024,-0.222 0.072,-0.306l4.511,-8.897c0.12,-0.24 0.306,-0.36 0.558,-0.36c0.131,0 0.26,0.048 0.386,0.144c0.126,0.096 0.189,0.21 0.189,0.342c0,0.071 -0.018,0.149 -0.054,0.233l-4.152,8.197l3.523,0l0,-3.469c0,-0.3 0.198,-0.45 0.593,-0.45c0.156,0 0.294,0.039 0.413,0.117c0.12,0.078 0.18,0.189 0.18,0.333l0,3.469l0.989,0c0.144,0 0.254,0.057 0.332,0.171c0.078,0.113 0.117,0.242 0.117,0.386c0,0.156 -0.042,0.291 -0.126,0.404c-0.084,0.114 -0.191,0.171 -0.323,0.171l-0.989,0l0,2.625c0,0.143 -0.06,0.257 -0.18,0.341c-0.119,0.084 -0.257,0.126 -0.413,0.126c-0.168,0 -0.309,-0.042 -0.422,-0.126c-0.114,-0.084 -0.171,-0.198 -0.171,-0.341l0,-2.625l-4.566,0c-0.311,0 -0.467,-0.162 -0.467,-0.485Z" style="fill:#eab543;fill-rule:nonzero;"/>
        </g>
        <path id="fourt_line_curve" d="M59.8,73.871c0,0 0.787,0.256 0.219,1.105l-0.479,0.199l-4.067,0c0,0 -1.03,-0.334 -0.48,-1.157l0.48,-0.199l4.067,0c0.087,0.017 0.173,0.035 0.26,0.052Zm17.625,0c1.221,0.815 0.22,1.105 0.22,1.105c-0.219,0.146 -0.221,0.148 -0.479,0.199l-4.068,0c0,0 -1.029,-0.334 -0.479,-1.157l0.479,-0.199l4.068,0c0.086,0.017 0.173,0.035 0.259,0.052Zm17.626,0c0,0 0.367,0.885 0.367,0.885l-0.627,0.419l-4.067,0c0,0 -0.534,0.046 -0.678,-0.678c0,0 0.678,-0.678 0.678,-0.678l4.067,0c0.087,0.017 0.173,0.035 0.26,0.052Zm17.625,0l0.367,0.885l-0.626,0.419l-4.067,0c-2.575,-0.512 0,-1.356 0,-1.356l4.067,0c0.086,0.017 0.173,0.035 0.259,0.052Zm17.626,0c0,0 0.367,0.885 0.367,0.885l-0.626,0.419l-4.068,0c-2.575,-0.512 0,-1.356 0,-1.356l4.068,0c0.086,0.017 0.173,0.035 0.259,0.052Zm17.626,0c0,0 0.367,0.885 0.367,0.885l-0.627,0.419l-4.067,0c-2.04,-0.406 0,-1.356 0,-1.356l4.067,0c0.087,0.017 0.173,0.035 0.26,0.052Zm17.625,0c0,0 0.367,0.885 0.367,0.885l-0.626,0.419l-4.068,0c-0.59,-0.117 -0.626,-0.419 -0.626,-0.419c-0.261,-1.313 0.626,-0.937 0.626,-0.937l4.068,0c0.086,0.017 0.173,0.035 0.259,0.052Zm17.626,0c0,0 0.787,0.256 0.22,1.105l-0.479,0.199l-4.068,0c-0.59,-0.117 -0.626,-0.419 -0.626,-0.419c-0.262,-1.313 0.626,-0.937 0.626,-0.937l4.068,0c0.086,0.017 0.172,0.035 0.259,0.052Zm17.626,0c0,0 0.787,0.256 0.22,1.105l-0.48,0.199l-4.067,0c0,0 -1.03,-0.334 -0.48,-1.157l0.48,-0.199l4.067,0c0.087,0.017 0.173,0.035 0.26,0.052Zm17.625,0c0,0 0.788,0.256 0.22,1.105l-0.479,0.199l-4.068,0c0,0 -0.533,0.046 -0.678,-0.678l0.678,-0.678l4.068,0c0.086,0.017 0.173,0.035 0.259,0.052Zm17.626,0c1.22,0.815 0.22,1.105 0.22,1.105c-0.219,0.146 -0.222,0.148 -0.48,0.199l-4.067,0c0,0 -0.534,0.046 -0.678,-0.678c0,0 0.678,-0.678 0.678,-0.678l4.067,0c0.087,0.017 0.173,0.035 0.26,0.052Zm17.625,0c0,0 0.367,0.885 0.367,0.885l-0.626,0.419l-4.067,0c-2.577,-0.513 0,-1.356 0,-1.356l4.067,0c0.087,0.017 0.173,0.035 0.259,0.052Zm17.626,0c0,0 0.367,0.885 0.367,0.885l-0.626,0.419l-4.068,0c-2.575,-0.512 0,-1.356 0,-1.356l4.068,0c0.086,0.017 0.173,0.035 0.259,0.052Zm17.626,0l0.367,0.885l-0.627,0.419l-4.067,0c-1.708,-0.34 -0.479,-1.157 -0.479,-1.157c0.218,-0.146 0.221,-0.148 0.479,-0.199l4.067,0c0.087,0.017 0.173,0.035 0.26,0.052Zm17.625,0c0,0 0.788,0.256 0.22,1.105l-0.479,0.199l-4.068,0c-0.59,-0.117 -0.626,-0.419 -0.626,-0.419c-0.261,-1.313 0.626,-0.937 0.626,-0.937l4.068,0c0.086,0.017 0.173,0.035 0.259,0.052Zm17.626,0c0,0 0.787,0.256 0.22,1.105l-0.479,0.199l-4.068,0c-2.04,-0.406 0,-1.356 0,-1.356l4.068,0c0.086,0.017 0.173,0.035 0.259,0.052Zm17.626,0c0,0 0.787,0.256 0.22,1.105l-0.48,0.199l-4.067,0c0,0 -1.03,-0.334 -0.48,-1.157l0.48,-0.199l4.067,0c0.087,0.017 0.173,0.035 0.26,0.052Z" style="fill:#eab543;fill-rule:nonzero;"/>
        <g id="fourt_line_icon">
            <circle cx="379.529" cy="75.683" r="24.585" style="fill:none;stroke:#eab543;stroke-width:3.57px;"/>
            <path d="M365.078,87.386c-0.048,0.007 -0.097,0.007 -0.145,0l-1.939,-0.637c-0.325,-0.161 -0.532,-0.491 -0.536,-0.854c-0.054,-0.384 0.075,-0.773 0.348,-1.049l10.297,-8.683c0.144,-0.134 0.354,-0.171 0.535,-0.094l1.028,0.448c0.061,0.028 0.128,0.043 0.195,0.044l9.342,0c0.068,-0.001 0.134,-0.016 0.196,-0.044l1.027,-0.448c0.181,-0.077 0.392,-0.04 0.535,0.094l10.298,8.683l-0.008,0c0.273,0.276 0.402,0.665 0.348,1.049c-0.003,0.363 -0.211,0.693 -0.536,0.854l-1.939,0.637c-0.051,0.008 -0.102,0.008 -0.152,0l-28.894,0Zm17.287,-20.507c0.038,0.007 0.078,0.007 0.116,0l0.622,-0.275c0.111,-0.047 0.238,-0.024 0.326,0.057l6.252,5.276l0.007,0c0.17,0.165 0.248,0.403 0.21,0.637c0,0.221 -0.126,0.424 -0.326,0.52l-1.179,0.384l-17.722,0l-1.179,-0.384c-0.198,-0.097 -0.324,-0.3 -0.326,-0.52c-0.038,-0.234 0.041,-0.472 0.21,-0.637l6.252,-5.276c0.088,-0.081 0.215,-0.104 0.326,-0.057l0.622,0.275c0.038,0.007 0.078,0.007 0.116,0l5.673,0Zm-2.142,-8.923c0.241,0 0.474,0.085 0.659,0.239l5.42,4.516c0.109,0.113 0.16,0.271 0.137,0.427c-0.001,0.147 -0.085,0.282 -0.217,0.347l-0.789,0.253l-11.817,0l-0.788,-0.253c-0.132,-0.065 -0.216,-0.2 -0.217,-0.347c-0.024,-0.156 0.028,-0.314 0.137,-0.427l5.42,-4.516c0.185,-0.154 0.418,-0.239 0.658,-0.239l1.397,0Z" style="fill:#eab543;"/>
        </g>
        <path id="fourth_line_legend" d="M379.891,109.378c1.502,0.403 1.601,0.673 1.722,2.053l0,178.261c-0.197,2.25 -3.953,2.462 -4.168,0l0,-178.261c0.158,-1.808 0.618,-2.213 2.446,-2.053Z" style="fill:#eab543;fill-rule:nonzero;"/>
        <g id="fourth_line_label">
            <path d="M372.457,327.29c0,-0.259 0.114,-0.487 0.342,-0.684l1.869,-2.645c0.168,-0.228 0.358,-0.342 0.57,-0.342c0.168,0 0.32,0.054 0.456,0.16c0.137,0.106 0.205,0.243 0.205,0.41l0,15.525c0,0.182 -0.076,0.326 -0.228,0.433c-0.151,0.106 -0.326,0.159 -0.524,0.159c-0.213,0 -0.391,-0.053 -0.536,-0.159c-0.144,-0.107 -0.216,-0.251 -0.216,-0.433l0,-13.519l-0.912,1.482c-0.122,0.183 -0.266,0.274 -0.433,0.274c-0.167,0 -0.308,-0.065 -0.422,-0.194c-0.114,-0.129 -0.171,-0.285 -0.171,-0.467Z" style="fill:#eab543;fill-rule:nonzero;"/>
            <path d="M378.111,336.568c0,-0.502 0.243,-0.752 0.729,-0.752c0.517,0 0.775,0.212 0.775,0.638c0,0.805 0.304,1.44 0.912,1.903c0.608,0.464 1.376,0.696 2.303,0.696c1.033,0 1.831,-0.285 2.393,-0.855c0.563,-0.57 0.844,-1.433 0.844,-2.588l0,-0.433c0,-1.124 -0.281,-1.968 -0.844,-2.53c-0.562,-0.562 -1.352,-0.844 -2.371,-0.844l-3.168,0c-0.517,0 -0.775,-0.19 -0.775,-0.57c0,-0.03 0.003,-0.106 0.011,-0.228c0.008,-0.121 0.011,-0.197 0.011,-0.227l0.456,-6.566c0.046,-0.38 0.206,-0.57 0.479,-0.57l6.383,0c0.334,0 0.502,0.228 0.502,0.684c0,0.471 -0.168,0.707 -0.502,0.707l-5.517,0l-0.364,5.471l2.484,0c1.444,0 2.592,0.372 3.443,1.117c0.851,0.745 1.276,1.93 1.276,3.556l0,0.433c0,1.657 -0.429,2.877 -1.288,3.659c-0.858,0.783 -2.002,1.174 -3.431,1.174c-1.459,0 -2.614,-0.372 -3.465,-1.117c-0.851,-0.744 -1.276,-1.664 -1.276,-2.758Z" style="fill:#eab543;fill-rule:nonzero;"/>
        </g>
        <circle id="fourth_line" cx="380.219" cy="304.897" r="7.559" style="fill:#e1b498;stroke:#312f2f;stroke-width:4.28px;stroke-linecap:butt;stroke-miterlimit:1.41421;"/>
        <g id="third_line_phase">
            <path d="M0.006,126.287l0,-12.241c0,-0.144 0.054,-0.254 0.162,-0.332c0.108,-0.078 0.234,-0.117 0.377,-0.117l6.364,0c0.143,0 0.254,0.051 0.332,0.153c0.078,0.101 0.117,0.224 0.117,0.368c0,0.156 -0.039,0.291 -0.117,0.405c-0.078,0.113 -0.189,0.17 -0.332,0.17l-5.716,0l0,4.943l2.84,0c0.131,0 0.236,0.051 0.314,0.153c0.078,0.102 0.117,0.231 0.117,0.387c0,0.323 -0.144,0.485 -0.431,0.485l-2.84,0l0,5.626c0,0.144 -0.06,0.255 -0.18,0.333c-0.12,0.078 -0.258,0.116 -0.414,0.116c-0.395,0 -0.593,-0.149 -0.593,-0.449Z" style="fill:#eab543;fill-rule:nonzero;"/>
            <path d="M5.758,124.49c0,-0.923 0.357,-1.564 1.07,-1.924c0.713,-0.359 1.752,-0.539 3.118,-0.539l0.917,0l0,-0.431c0,-0.659 -0.174,-1.232 -0.521,-1.717c-0.348,-0.485 -0.881,-0.728 -1.6,-0.728c-0.479,0 -0.914,0.087 -1.303,0.261c-0.39,0.173 -0.596,0.26 -0.62,0.26c-0.144,0 -0.258,-0.066 -0.342,-0.197c-0.084,-0.132 -0.126,-0.276 -0.126,-0.432c0,-0.227 0.258,-0.437 0.773,-0.629c0.516,-0.192 1.067,-0.288 1.654,-0.288c1.126,0 1.95,0.327 2.472,0.98c0.521,0.653 0.781,1.483 0.781,2.49l0,4.673c0,0.132 -0.054,0.243 -0.161,0.333c-0.108,0.09 -0.246,0.134 -0.414,0.134c-0.156,0 -0.284,-0.044 -0.386,-0.134c-0.102,-0.09 -0.153,-0.201 -0.153,-0.333l0,-0.791c-0.803,0.923 -1.708,1.384 -2.714,1.384c-0.719,0 -1.306,-0.2 -1.762,-0.602c-0.455,-0.401 -0.683,-0.991 -0.683,-1.77Zm1.169,-0.108c0,0.503 0.143,0.878 0.431,1.123c0.288,0.246 0.665,0.369 1.132,0.369c0.564,0 1.1,-0.21 1.609,-0.629c0.509,-0.42 0.764,-0.839 0.764,-1.259l0,-1.15l-0.755,0c-0.479,0 -0.884,0.018 -1.213,0.054c-0.33,0.036 -0.656,0.102 -0.98,0.198c-0.323,0.095 -0.569,0.251 -0.737,0.467c-0.168,0.216 -0.251,0.491 -0.251,0.827Zm0.683,-8.772c0,-0.156 0.065,-0.264 0.197,-0.324l2.014,-1.096c0.035,-0.036 0.083,-0.054 0.143,-0.054c0.132,0 0.237,0.051 0.315,0.153c0.078,0.102 0.117,0.219 0.117,0.35c0,0.192 -0.072,0.324 -0.216,0.396l-1.923,1.024c-0.06,0.036 -0.12,0.054 -0.18,0.054c-0.12,0 -0.228,-0.051 -0.324,-0.152c-0.095,-0.102 -0.143,-0.219 -0.143,-0.351Z" style="fill:#eab543;fill-rule:nonzero;"/>
            <path d="M13.523,126.269c0,-0.132 0.06,-0.281 0.18,-0.449l4.404,-6.561l-3.973,0c-0.119,0 -0.221,-0.051 -0.305,-0.153c-0.084,-0.102 -0.126,-0.219 -0.126,-0.35c0,-0.144 0.042,-0.267 0.126,-0.369c0.084,-0.102 0.186,-0.153 0.305,-0.153l5.087,0c0.12,0 0.225,0.042 0.315,0.126c0.09,0.084 0.135,0.198 0.135,0.342c0,0.155 -0.048,0.299 -0.144,0.431l-4.422,6.561l4.35,0c0.12,0 0.222,0.051 0.306,0.153c0.084,0.102 0.125,0.23 0.125,0.386c0,0.132 -0.041,0.249 -0.125,0.351c-0.084,0.102 -0.186,0.152 -0.306,0.152l-5.446,0c-0.144,0 -0.261,-0.047 -0.351,-0.143c-0.09,-0.096 -0.135,-0.204 -0.135,-0.324Z" style="fill:#eab543;fill-rule:nonzero;"/>
            <path d="M20.965,123.447l0,-2.013c0,-0.899 0.336,-1.675 1.007,-2.328c0.671,-0.653 1.48,-0.98 2.426,-0.98c0.911,0 1.699,0.312 2.364,0.935c0.665,0.623 0.997,1.402 0.997,2.337c0,0.335 -0.038,0.605 -0.116,0.809c-0.078,0.204 -0.204,0.347 -0.378,0.431c-0.174,0.084 -0.332,0.138 -0.476,0.162c-0.144,0.024 -0.342,0.036 -0.593,0.036l-4.063,0l0,0.665c0,0.707 0.255,1.273 0.764,1.699c0.51,0.425 1.166,0.638 1.969,0.638c0.407,0 0.763,-0.06 1.069,-0.18c0.306,-0.12 0.539,-0.24 0.701,-0.359c0.162,-0.12 0.291,-0.18 0.387,-0.18c0.131,0 0.248,0.063 0.35,0.188c0.102,0.126 0.153,0.249 0.153,0.369c0,0.252 -0.258,0.512 -0.773,0.782c-0.515,0.27 -1.156,0.404 -1.923,0.404c-1.139,0 -2.068,-0.314 -2.787,-0.943c-0.719,-0.629 -1.078,-1.453 -1.078,-2.472Zm1.168,-1.474l3.595,0c0.36,0 0.599,-0.039 0.719,-0.117c0.12,-0.078 0.18,-0.242 0.18,-0.494c0,-0.599 -0.213,-1.126 -0.638,-1.582c-0.425,-0.455 -0.962,-0.683 -1.609,-0.683c-0.623,0 -1.153,0.216 -1.591,0.647c-0.437,0.432 -0.656,0.947 -0.656,1.546l0,0.683Z" style="fill:#eab543;fill-rule:nonzero;"/>
            <path d="M32.451,121.739c0,-0.131 0.033,-0.242 0.099,-0.332c0.066,-0.09 0.153,-0.135 0.26,-0.135l1.978,0l0.431,-2.876l-1.725,0c-0.288,0 -0.432,-0.156 -0.432,-0.467c0,-0.3 0.12,-0.45 0.36,-0.45l1.977,0l0.521,-3.289c0.036,-0.18 0.186,-0.27 0.449,-0.27c0.384,0 0.576,0.174 0.576,0.522l-0.486,3.037l2.283,0l0.521,-3.289c0.036,-0.18 0.186,-0.27 0.45,-0.27c0.383,0 0.575,0.174 0.575,0.522l-0.485,3.037l1.761,0c0.108,0 0.21,0.042 0.306,0.126c0.096,0.084 0.144,0.192 0.144,0.324c0,0.12 -0.039,0.227 -0.117,0.323c-0.078,0.096 -0.165,0.144 -0.261,0.144l-1.977,0l-0.467,2.876l1.761,0c0.108,0 0.21,0.045 0.306,0.135c0.096,0.09 0.143,0.201 0.143,0.332c0,0.12 -0.038,0.225 -0.116,0.315c-0.078,0.09 -0.165,0.135 -0.261,0.135l-1.995,0l-0.557,3.577c-0.06,0.24 -0.228,0.359 -0.504,0.359c-0.156,0 -0.287,-0.045 -0.395,-0.134c-0.108,-0.09 -0.162,-0.219 -0.162,-0.387l0.521,-3.415l-2.247,0l-0.557,3.559c-0.012,0.12 -0.069,0.213 -0.171,0.278c-0.101,0.066 -0.206,0.099 -0.314,0.099c-0.156,0 -0.288,-0.045 -0.396,-0.134c-0.107,-0.09 -0.161,-0.219 -0.161,-0.387l0.503,-3.415l-1.708,0c-0.287,0 -0.431,-0.15 -0.431,-0.45Zm3.397,-0.467l2.265,0l0.449,-2.876l-2.264,0l-0.45,2.876Z" style="fill:#eab543;fill-rule:nonzero;"/>
            <path d="M42.966,123.878c0,-0.239 0.042,-0.404 0.126,-0.494c0.084,-0.09 0.228,-0.135 0.432,-0.135c0.407,0 0.611,0.168 0.611,0.504c0,0.491 0.2,0.946 0.602,1.366c0.401,0.419 1.045,0.629 1.932,0.629c1.726,0 2.589,-0.899 2.589,-2.696l0,-0.342c0,-0.803 -0.225,-1.402 -0.675,-1.797c-0.449,-0.396 -1.075,-0.594 -1.878,-0.594c-0.311,0 -0.467,-0.167 -0.467,-0.503c0,-0.347 0.15,-0.521 0.449,-0.521c0.755,0 1.318,-0.171 1.69,-0.512c0.371,-0.342 0.557,-0.938 0.557,-1.789c0,-0.791 -0.174,-1.375 -0.521,-1.752c-0.348,-0.378 -0.899,-0.567 -1.654,-0.567c-0.839,0 -1.432,0.195 -1.78,0.584c-0.347,0.39 -0.521,0.836 -0.521,1.34c0,0.383 -0.192,0.575 -0.575,0.575c-0.228,0 -0.386,-0.048 -0.476,-0.144c-0.09,-0.096 -0.135,-0.276 -0.135,-0.539c0,-0.288 0.054,-0.581 0.162,-0.881c0.108,-0.3 0.281,-0.608 0.521,-0.926c0.24,-0.317 0.605,-0.578 1.096,-0.782c0.492,-0.203 1.073,-0.305 1.744,-0.305c2.193,0 3.289,1.054 3.289,3.163c0,0.779 -0.134,1.426 -0.404,1.942c-0.27,0.515 -0.626,0.88 -1.07,1.096c1.223,0.491 1.834,1.462 1.834,2.912l0,0.342c0,1.306 -0.345,2.264 -1.034,2.876c-0.689,0.611 -1.596,0.916 -2.723,0.916c-1.186,0 -2.103,-0.305 -2.75,-0.916c-0.647,-0.612 -0.971,-1.295 -0.971,-2.05Z" style="fill:#eab543;fill-rule:nonzero;"/>
        </g>
        <g id="third_line_icon">
            <circle cx="335.632" cy="123.307" r="24.585" style="fill:none;stroke:#eab543;stroke-width:3.57px;"/>
            <path d="M329.794,128.207c-0.249,0.218 -0.476,0.461 -0.677,0.725c-0.391,0.544 -0.056,1.297 0.122,1.62c0.054,0.096 0.043,0.217 -0.026,0.303c-0.241,0.3 -0.465,0.613 -0.671,0.938c-0.391,0.62 -2.471,2.023 -2.926,2.286c-0.455,0.263 -1.05,0.92 -1.859,2.034c-0.809,1.113 -1.02,0.831 -1.02,0.831c0,0 -0.413,-0.258 0.167,-0.935c0.534,-0.625 0.062,-1.771 -0.014,-1.945c-0.007,-0.014 -0.015,-0.028 -0.024,-0.04c-0.114,-0.172 -1.011,-1.538 -1.023,-2.477c-0.013,-1.004 -0.216,-1.776 -0.453,-2.186c-0.236,-0.409 -1.293,0.492 -1.293,0.492c-0.565,0.404 -0.788,0.003 -0.788,0.003c-0.22,-0.207 -0.205,-0.6 0.21,-1.143c0.414,-0.543 3.243,-1.842 3.486,-1.982c0.243,-0.14 0.168,-0.724 0.358,-0.955c0.151,-0.183 0.379,-0.097 0.469,-0.052c0.043,0.021 0.09,0.03 0.137,0.027c0.129,-0.005 0.397,-0.069 0.816,-0.393c0.511,-0.393 0.78,-1.112 0.864,-1.37c0.02,-0.063 0.062,-0.116 0.119,-0.149l3.508,-2.101c0.001,-0.001 0.003,-0.002 0.004,-0.002c0.13,-0.075 0.298,-0.03 0.373,0.1c0.003,0.004 0.005,0.009 0.008,0.014l0.11,0.216l21.525,-12.428l0.8,1.385l-0.022,0.32l-1.062,-0.1l0.115,1.451l-0.05,0.043l-1.419,-0.327l0.115,1.452l-0.049,0.042l-1.419,-0.327l0.115,1.453l-0.048,0.041l-1.421,-0.327l0.116,1.454l-0.048,0.041l-1.421,-0.328l0.115,1.455l-0.047,0.04l-1.422,-0.328l0.116,1.456l-0.046,0.039l-1.423,-0.328l0.115,1.457l-0.045,0.038l-1.424,-0.328l0.116,1.458l-0.044,0.038l-1.425,-0.329l0.115,1.459l-0.043,0.037l-1.426,-0.329l0.116,1.46l-0.043,0.036l-1.426,-0.329l0.116,1.46l-0.042,0.037l-1.428,-0.33l0.116,1.461l-0.041,0.036l-1.428,-0.33l0.116,1.462l-0.04,0.035l-1.43,-0.33l0.116,1.463l-0.039,0.034l-1.43,-0.33l0.116,1.464l-0.039,0.034l-1.431,-0.331l-0.915,-0.541Zm-3.062,0.709c-0.146,0.546 0.074,2.019 0.214,2.47c0.139,0.451 0.198,0.841 -0.507,1.248c-0.705,0.408 -1.119,-0.308 -1.643,-2.084c-0.487,-1.648 -0.185,-2.404 -0.138,-2.505c0.004,-0.01 0.008,-0.02 0.011,-0.031c0.093,-0.311 0.22,-0.602 0.673,-1.145c0.591,-0.706 1.077,-0.106 1.29,0.029c0.214,0.135 0.246,1.47 0.1,2.018Z" style="fill:#eab543;"/>
        </g>
        <path id="third_line_curve" d="M59.772,122.247c0.926,0.535 0.63,1.163 -0.232,1.315l-4.067,0c-0.419,-0.074 -0.512,-0.208 -0.588,-0.339c-0.216,-0.376 -0.22,-0.875 0.588,-1.017l4.067,0c0.077,0.014 0.155,0.027 0.232,0.041Zm17.625,0c0.927,0.535 0.631,1.163 -0.231,1.315l-4.068,0c-1.258,-0.222 -0.897,-1.198 0,-1.356l4.068,0c0.077,0.014 0.154,0.027 0.231,0.041Zm17.626,0c0.927,0.535 0.631,1.163 -0.232,1.315l-4.067,0c-1.258,-0.222 -0.897,-1.198 0,-1.356l4.067,0c0.078,0.014 0.155,0.027 0.232,0.041Zm17.626,0c0.926,0.535 0.63,1.163 -0.232,1.315l-4.068,0c-0.418,-0.074 -0.511,-0.208 -0.587,-0.339c-0.216,-0.376 -0.22,-0.875 0.587,-1.017l4.068,0c0.077,0.014 0.154,0.027 0.232,0.041Zm17.625,0c0.927,0.535 0.631,1.163 -0.231,1.315l-4.068,0c-1.258,-0.222 -0.897,-1.198 0,-1.356l4.068,0c0.077,0.014 0.154,0.027 0.231,0.041Zm17.626,0c0.927,0.535 0.63,1.163 -0.232,1.315l-4.067,0c-1.258,-0.222 -0.897,-1.198 0,-1.356l4.067,0c0.077,0.014 0.155,0.027 0.232,0.041Zm17.626,0c0.926,0.535 0.63,1.163 -0.232,1.315l-4.068,0c-1.257,-0.222 -0.896,-1.198 0,-1.356l4.068,0c0.077,0.014 0.154,0.027 0.232,0.041Zm17.625,0c0.927,0.535 0.631,1.163 -0.232,1.315l-4.067,0c-0.419,-0.074 -0.511,-0.208 -0.587,-0.339c-0.217,-0.376 -0.22,-0.875 0.587,-1.017l4.067,0c0.078,0.014 0.155,0.027 0.232,0.041Zm17.626,0c0.927,0.535 0.63,1.163 -0.232,1.315l-4.067,0c-0.419,-0.074 -0.512,-0.208 -0.587,-0.339c-0.217,-0.376 -0.221,-0.875 0.587,-1.017l4.067,0c0.077,0.014 0.155,0.027 0.232,0.041Zm17.626,0c0.926,0.535 0.63,1.163 -0.232,1.315l-4.068,0c-1.258,-0.222 -0.897,-1.198 0,-1.356l4.068,0c0.077,0.014 0.154,0.027 0.232,0.041Zm17.625,0c0.927,0.535 0.631,1.163 -0.232,1.315l-4.067,0c-1.258,-0.222 -0.897,-1.198 0,-1.356l4.067,0c0.078,0.014 0.155,0.027 0.232,0.041Zm17.626,0c0.926,0.535 0.63,1.163 -0.232,1.315l-4.068,0c-0.418,-0.074 -0.511,-0.208 -0.587,-0.339c-0.216,-0.376 -0.22,-0.875 0.587,-1.017l4.068,0c0.077,0.014 0.155,0.027 0.232,0.041Zm17.625,0c0.927,0.535 0.631,1.163 -0.231,1.315l-4.068,0c-1.258,-0.222 -0.897,-1.198 0,-1.356l4.068,0c0.077,0.014 0.154,0.027 0.231,0.041Zm17.626,0c0.927,0.535 0.631,1.163 -0.232,1.315l-4.067,0c-1.258,-0.222 -0.897,-1.198 0,-1.356l4.067,0c0.077,0.014 0.155,0.027 0.232,0.041Zm15.824,0c0.926,0.535 0.63,1.163 -0.232,1.315l-2.266,0c-1.257,-0.222 -0.896,-1.198 0,-1.356l2.266,0c0.077,0.014 0.154,0.027 0.232,0.041Z" style="fill:#eab543;fill-rule:nonzero;"/>
        <path id="third_line_legend" d="M335.958,156.916c1.48,0.355 1.651,0.658 1.761,2.061l0,130.715c-0.173,2.198 -3.936,3.023 -4.174,0l0,-130.715c0.138,-1.759 0.6,-2.204 2.413,-2.061Z" style="fill:#eab543;fill-rule:nonzero;"/>
        <g id="third_line_label">
            <path d="M315.707,327.29c0,-0.259 0.114,-0.487 0.342,-0.684l1.869,-2.645c0.167,-0.228 0.357,-0.342 0.57,-0.342c0.167,0 0.319,0.054 0.456,0.16c0.137,0.106 0.205,0.243 0.205,0.41l0,15.525c0,0.182 -0.076,0.326 -0.228,0.433c-0.152,0.106 -0.327,0.159 -0.524,0.159c-0.213,0 -0.392,-0.053 -0.536,-0.159c-0.144,-0.107 -0.217,-0.251 -0.217,-0.433l0,-13.519l-0.912,1.482c-0.121,0.183 -0.265,0.274 -0.433,0.274c-0.167,0 -0.307,-0.065 -0.421,-0.194c-0.114,-0.129 -0.171,-0.285 -0.171,-0.467Z" style="fill:#eab543;fill-rule:nonzero;"/>
            <path d="M321.497,339.714l0,-2.212c0,-0.699 0.266,-1.375 0.798,-2.028c0.532,-0.654 1.178,-1.254 1.938,-1.801l2.234,-1.619c0.759,-0.547 1.405,-1.166 1.937,-1.858c0.532,-0.691 0.798,-1.402 0.798,-2.131c0,-0.791 -0.27,-1.49 -0.809,-2.098c-0.54,-0.607 -1.296,-0.911 -2.268,-0.911c-0.821,0 -1.486,0.231 -1.995,0.695c-0.509,0.463 -0.764,1.128 -0.764,1.995c0,0.167 -0.072,0.311 -0.216,0.433c-0.145,0.121 -0.338,0.182 -0.582,0.182c-0.456,0 -0.684,-0.311 -0.684,-0.935c0,-1.094 0.411,-1.998 1.232,-2.712c0.82,-0.715 1.838,-1.072 3.054,-1.072c1.307,0 2.39,0.418 3.249,1.254c0.858,0.836 1.288,1.877 1.288,3.123c0,0.76 -0.19,1.489 -0.57,2.189c-0.38,0.699 -0.851,1.291 -1.414,1.778c-0.562,0.486 -1.177,0.98 -1.846,1.481l-1.847,1.323c-0.562,0.38 -1.033,0.809 -1.413,1.288c-0.38,0.478 -0.57,0.953 -0.57,1.424l0,1.414l7.272,0c0.152,0 0.281,0.068 0.388,0.205c0.106,0.137 0.159,0.296 0.159,0.479c0,0.182 -0.053,0.346 -0.159,0.49c-0.107,0.144 -0.236,0.216 -0.388,0.216l-8.115,0c-0.168,0 -0.327,-0.057 -0.479,-0.171c-0.152,-0.114 -0.228,-0.254 -0.228,-0.421Z" style="fill:#eab543;fill-rule:nonzero;"/>
            <path d="M332.736,334.835c0,-0.197 0.053,-0.361 0.159,-0.49c0.107,-0.129 0.243,-0.194 0.411,-0.194l5.927,0c0.152,0 0.285,0.065 0.399,0.194c0.114,0.129 0.171,0.293 0.171,0.49c0,0.183 -0.057,0.335 -0.171,0.456c-0.114,0.122 -0.247,0.183 -0.399,0.183l-5.927,0c-0.38,0 -0.57,-0.213 -0.57,-0.639Z" style="fill:#eab543;fill-rule:nonzero;"/>
            <path d="M341.262,327.29c0,-0.259 0.114,-0.487 0.341,-0.684l1.87,-2.645c0.167,-0.228 0.357,-0.342 0.57,-0.342c0.167,0 0.319,0.054 0.456,0.16c0.136,0.106 0.205,0.243 0.205,0.41l0,15.525c0,0.182 -0.076,0.326 -0.228,0.433c-0.152,0.106 -0.327,0.159 -0.524,0.159c-0.213,0 -0.392,-0.053 -0.536,-0.159c-0.145,-0.107 -0.217,-0.251 -0.217,-0.433l0,-13.519l-0.912,1.482c-0.121,0.183 -0.266,0.274 -0.433,0.274c-0.167,0 -0.307,-0.065 -0.421,-0.194c-0.114,-0.129 -0.171,-0.285 -0.171,-0.467Z" style="fill:#eab543;fill-rule:nonzero;"/>
            <path d="M346.459,335.77c0,-0.152 0.031,-0.281 0.091,-0.388l5.722,-11.284c0.152,-0.304 0.388,-0.456 0.707,-0.456c0.167,0 0.331,0.061 0.49,0.183c0.16,0.121 0.239,0.266 0.239,0.433c0,0.091 -0.022,0.19 -0.068,0.296l-5.266,10.395l4.468,0l0,-4.399c0,-0.38 0.251,-0.57 0.752,-0.57c0.198,0 0.373,0.049 0.525,0.148c0.152,0.099 0.228,0.239 0.228,0.422l0,4.399l1.254,0c0.182,0 0.323,0.072 0.421,0.217c0.099,0.144 0.148,0.308 0.148,0.49c0,0.198 -0.053,0.369 -0.159,0.513c-0.106,0.144 -0.243,0.216 -0.41,0.216l-1.254,0l0,3.329c0,0.182 -0.076,0.326 -0.228,0.433c-0.152,0.106 -0.327,0.159 -0.525,0.159c-0.212,0 -0.391,-0.053 -0.535,-0.159c-0.145,-0.107 -0.217,-0.251 -0.217,-0.433l0,-3.329l-5.79,0c-0.395,0 -0.593,-0.205 -0.593,-0.615Z" style="fill:#eab543;fill-rule:nonzero;"/>
        </g>
        <path id="third_line" d="M356.421,305.516c0,-3.874 -3.145,-7.019 -7.018,-7.019l-26.997,0c-3.874,0 -7.019,3.145 -7.019,7.019c0,3.873 3.145,7.018 7.019,7.018l26.997,0c3.873,0 7.018,-3.145 7.018,-7.018Z" style="fill:#9dabb7;stroke:#312f2f;stroke-width:4.28px;"/>
        <g id="second_line_phase">
            <path d="M0.006,175.561l0,-12.241c0,-0.144 0.054,-0.255 0.162,-0.333c0.108,-0.078 0.234,-0.117 0.377,-0.117l6.364,0c0.143,0 0.254,0.051 0.332,0.153c0.078,0.102 0.117,0.225 0.117,0.369c0,0.155 -0.039,0.29 -0.117,0.404c-0.078,0.114 -0.189,0.171 -0.332,0.171l-5.716,0l0,4.943l2.84,0c0.131,0 0.236,0.051 0.314,0.153c0.078,0.102 0.117,0.23 0.117,0.386c0,0.324 -0.144,0.486 -0.431,0.486l-2.84,0l0,5.626c0,0.144 -0.06,0.254 -0.18,0.332c-0.12,0.078 -0.258,0.117 -0.414,0.117c-0.395,0 -0.593,-0.15 -0.593,-0.449Z" style="fill:#eab543;fill-rule:nonzero;"/>
            <path d="M5.758,173.763c0,-0.922 0.357,-1.564 1.07,-1.923c0.713,-0.36 1.752,-0.539 3.118,-0.539l0.917,0l0,-0.432c0,-0.659 -0.174,-1.231 -0.521,-1.716c-0.348,-0.486 -0.881,-0.728 -1.6,-0.728c-0.479,0 -0.914,0.087 -1.303,0.26c-0.39,0.174 -0.596,0.261 -0.62,0.261c-0.144,0 -0.258,-0.066 -0.342,-0.198c-0.084,-0.132 -0.126,-0.275 -0.126,-0.431c0,-0.228 0.258,-0.438 0.773,-0.629c0.516,-0.192 1.067,-0.288 1.654,-0.288c1.126,0 1.95,0.327 2.472,0.98c0.521,0.653 0.781,1.483 0.781,2.489l0,4.674c0,0.132 -0.054,0.242 -0.161,0.332c-0.108,0.09 -0.246,0.135 -0.414,0.135c-0.156,0 -0.284,-0.045 -0.386,-0.135c-0.102,-0.09 -0.153,-0.2 -0.153,-0.332l0,-0.791c-0.803,0.923 -1.708,1.384 -2.714,1.384c-0.719,0 -1.306,-0.201 -1.762,-0.602c-0.455,-0.402 -0.683,-0.992 -0.683,-1.771Zm1.169,-0.108c0,0.504 0.143,0.878 0.431,1.124c0.288,0.245 0.665,0.368 1.132,0.368c0.564,0 1.1,-0.209 1.609,-0.629c0.509,-0.419 0.764,-0.839 0.764,-1.258l0,-1.15l-0.755,0c-0.479,0 -0.884,0.017 -1.213,0.053c-0.33,0.036 -0.656,0.102 -0.98,0.198c-0.323,0.096 -0.569,0.252 -0.737,0.468c-0.168,0.215 -0.251,0.491 -0.251,0.826Zm0.683,-8.771c0,-0.156 0.065,-0.264 0.197,-0.324l2.014,-1.096c0.035,-0.036 0.083,-0.054 0.143,-0.054c0.132,0 0.237,0.051 0.315,0.152c0.078,0.102 0.117,0.219 0.117,0.351c0,0.192 -0.072,0.323 -0.216,0.395l-1.923,1.025c-0.06,0.036 -0.12,0.054 -0.18,0.054c-0.12,0 -0.228,-0.051 -0.324,-0.153c-0.095,-0.102 -0.143,-0.219 -0.143,-0.35Z" style="fill:#eab543;fill-rule:nonzero;"/>
            <path d="M13.523,175.543c0,-0.132 0.06,-0.282 0.18,-0.45l4.404,-6.56l-3.973,0c-0.119,0 -0.221,-0.051 -0.305,-0.153c-0.084,-0.102 -0.126,-0.219 -0.126,-0.351c0,-0.144 0.042,-0.266 0.126,-0.368c0.084,-0.102 0.186,-0.153 0.305,-0.153l5.087,0c0.12,0 0.225,0.042 0.315,0.126c0.09,0.084 0.135,0.197 0.135,0.341c0,0.156 -0.048,0.3 -0.144,0.432l-4.422,6.561l4.35,0c0.12,0 0.222,0.05 0.306,0.152c0.084,0.102 0.125,0.231 0.125,0.387c0,0.132 -0.041,0.248 -0.125,0.35c-0.084,0.102 -0.186,0.153 -0.306,0.153l-5.446,0c-0.144,0 -0.261,-0.048 -0.351,-0.144c-0.09,-0.096 -0.135,-0.203 -0.135,-0.323Z" style="fill:#eab543;fill-rule:nonzero;"/>
            <path d="M20.965,172.721l0,-2.014c0,-0.898 0.336,-1.674 1.007,-2.327c0.671,-0.653 1.48,-0.98 2.426,-0.98c0.911,0 1.699,0.312 2.364,0.935c0.665,0.623 0.997,1.402 0.997,2.337c0,0.335 -0.038,0.605 -0.116,0.808c-0.078,0.204 -0.204,0.348 -0.378,0.432c-0.174,0.084 -0.332,0.138 -0.476,0.162c-0.144,0.024 -0.342,0.036 -0.593,0.036l-4.063,0l0,0.665c0,0.707 0.255,1.273 0.764,1.698c0.51,0.426 1.166,0.638 1.969,0.638c0.407,0 0.763,-0.06 1.069,-0.179c0.306,-0.12 0.539,-0.24 0.701,-0.36c0.162,-0.12 0.291,-0.18 0.387,-0.18c0.131,0 0.248,0.063 0.35,0.189c0.102,0.126 0.153,0.249 0.153,0.369c0,0.251 -0.258,0.512 -0.773,0.781c-0.515,0.27 -1.156,0.405 -1.923,0.405c-1.139,0 -2.068,-0.315 -2.787,-0.944c-0.719,-0.629 -1.078,-1.453 -1.078,-2.471Zm1.168,-1.474l3.595,0c0.36,0 0.599,-0.039 0.719,-0.117c0.12,-0.078 0.18,-0.243 0.18,-0.494c0,-0.6 -0.213,-1.127 -0.638,-1.582c-0.425,-0.456 -0.962,-0.683 -1.609,-0.683c-0.623,0 -1.153,0.215 -1.591,0.647c-0.437,0.431 -0.656,0.947 -0.656,1.546l0,0.683Z" style="fill:#eab543;fill-rule:nonzero;"/>
            <path d="M32.451,171.013c0,-0.132 0.033,-0.243 0.099,-0.332c0.066,-0.09 0.153,-0.135 0.26,-0.135l1.978,0l0.431,-2.876l-1.725,0c-0.288,0 -0.432,-0.156 -0.432,-0.468c0,-0.299 0.12,-0.449 0.36,-0.449l1.977,0l0.521,-3.289c0.036,-0.18 0.186,-0.27 0.449,-0.27c0.384,0 0.576,0.174 0.576,0.521l-0.486,3.038l2.283,0l0.521,-3.289c0.036,-0.18 0.186,-0.27 0.45,-0.27c0.383,0 0.575,0.174 0.575,0.521l-0.485,3.038l1.761,0c0.108,0 0.21,0.042 0.306,0.126c0.096,0.084 0.144,0.192 0.144,0.323c0,0.12 -0.039,0.228 -0.117,0.324c-0.078,0.096 -0.165,0.144 -0.261,0.144l-1.977,0l-0.467,2.876l1.761,0c0.108,0 0.21,0.045 0.306,0.135c0.096,0.089 0.143,0.2 0.143,0.332c0,0.12 -0.038,0.225 -0.116,0.315c-0.078,0.089 -0.165,0.134 -0.261,0.134l-1.995,0l-0.557,3.577c-0.06,0.24 -0.228,0.36 -0.504,0.36c-0.156,0 -0.287,-0.045 -0.395,-0.135c-0.108,-0.09 -0.162,-0.219 -0.162,-0.386l0.521,-3.416l-2.247,0l-0.557,3.559c-0.012,0.12 -0.069,0.213 -0.171,0.279c-0.101,0.066 -0.206,0.099 -0.314,0.099c-0.156,0 -0.288,-0.045 -0.396,-0.135c-0.107,-0.09 -0.161,-0.219 -0.161,-0.386l0.503,-3.416l-1.708,0c-0.287,0 -0.431,-0.149 -0.431,-0.449Zm3.397,-0.467l2.265,0l0.449,-2.876l-2.264,0l-0.45,2.876Z" style="fill:#eab543;fill-rule:nonzero;"/>
            <path d="M43.074,175.543l0,-1.744c0,-0.551 0.21,-1.084 0.629,-1.6c0.42,-0.515 0.929,-0.988 1.528,-1.42l1.762,-1.276c0.599,-0.431 1.108,-0.92 1.528,-1.465c0.419,-0.545 0.629,-1.105 0.629,-1.68c0,-0.624 -0.213,-1.175 -0.638,-1.654c-0.426,-0.479 -1.022,-0.719 -1.789,-0.719c-0.647,0 -1.171,0.183 -1.573,0.548c-0.401,0.366 -0.602,0.89 -0.602,1.573c0,0.132 -0.057,0.246 -0.171,0.341c-0.114,0.096 -0.266,0.144 -0.458,0.144c-0.36,0 -0.539,-0.245 -0.539,-0.737c0,-0.863 0.323,-1.576 0.97,-2.139c0.647,-0.563 1.45,-0.845 2.409,-0.845c1.031,0 1.884,0.33 2.561,0.989c0.678,0.659 1.016,1.48 1.016,2.463c0,0.599 -0.15,1.174 -0.449,1.725c-0.3,0.551 -0.671,1.019 -1.115,1.402c-0.443,0.384 -0.928,0.773 -1.456,1.169l-1.456,1.042c-0.443,0.3 -0.815,0.638 -1.114,1.016c-0.3,0.377 -0.45,0.752 -0.45,1.123l0,1.115l5.734,0c0.12,0 0.222,0.054 0.306,0.161c0.084,0.108 0.126,0.234 0.126,0.378c0,0.144 -0.042,0.272 -0.126,0.386c-0.084,0.114 -0.186,0.171 -0.306,0.171l-6.399,0c-0.131,0 -0.257,-0.045 -0.377,-0.135c-0.12,-0.09 -0.18,-0.2 -0.18,-0.332Z" style="fill:#eab543;fill-rule:nonzero;"/>
        </g>
        <path id="second_line_curve" d="M59.75,170.626c0.906,0.462 0.688,1.181 -0.21,1.323l-4.067,0c-1.14,-0.181 -0.964,-1.204 0,-1.356l4.067,0c0.07,0.011 0.14,0.022 0.21,0.033Zm17.626,0c0.906,0.462 0.687,1.181 -0.21,1.323l-4.067,0c-0.383,-0.061 -0.469,-0.17 -0.549,-0.28c-0.281,-0.387 -0.251,-0.95 0.549,-1.076l4.067,0c0.07,0.011 0.14,0.022 0.21,0.033Zm17.625,0c0.906,0.462 0.688,1.181 -0.209,1.323l-4.068,0c-0.382,-0.061 -0.468,-0.17 -0.548,-0.28c-0.282,-0.387 -0.251,-0.95 0.548,-1.076l4.068,0c0.069,0.011 0.139,0.022 0.209,0.033Zm17.626,0c0.906,0.462 0.688,1.181 -0.21,1.323l-4.067,0c-1.14,-0.181 -0.964,-1.204 0,-1.356l4.067,0c0.07,0.011 0.14,0.022 0.21,0.033Zm17.625,0c0.906,0.462 0.688,1.181 -0.209,1.323l-4.068,0c-0.382,-0.061 -0.468,-0.17 -0.548,-0.28c-0.282,-0.387 -0.251,-0.95 0.548,-1.076l4.068,0c0.07,0.011 0.14,0.022 0.209,0.033Zm17.626,0c0.906,0.462 0.688,1.181 -0.209,1.323l-4.068,0c-0.382,-0.061 -0.469,-0.17 -0.548,-0.28c-0.282,-0.387 -0.251,-0.95 0.548,-1.076l4.068,0c0.069,0.011 0.139,0.022 0.209,0.033Zm17.626,0c0.906,0.462 0.688,1.181 -0.21,1.323l-4.067,0c-0.382,-0.061 -0.469,-0.17 -0.549,-0.28c-0.281,-0.387 -0.251,-0.95 0.549,-1.076l4.067,0c0.07,0.011 0.14,0.022 0.21,0.033Zm17.625,0c0.906,0.462 0.688,1.181 -0.209,1.323l-4.068,0c-1.139,-0.181 -0.963,-1.204 0,-1.356l4.068,0c0.07,0.011 0.139,0.022 0.209,0.033Zm17.626,0c0.906,0.462 0.688,1.181 -0.21,1.323l-4.067,0c-0.382,-0.061 -0.469,-0.17 -0.548,-0.28c-0.282,-0.387 -0.251,-0.95 0.548,-1.076l4.067,0c0.07,0.011 0.14,0.022 0.21,0.033Zm17.626,0c0.906,0.462 0.687,1.181 -0.21,1.323l-4.067,0c-1.14,-0.181 -0.964,-1.204 0,-1.356l4.067,0c0.07,0.011 0.14,0.022 0.21,0.033Zm17.625,0c0.906,0.462 0.688,1.181 -0.209,1.323l-4.068,0c-0.382,-0.061 -0.468,-0.17 -0.548,-0.28c-0.282,-0.387 -0.251,-0.95 0.548,-1.076l4.068,0c0.07,0.011 0.139,0.022 0.209,0.033Z" style="fill:#eab543;fill-rule:nonzero;"/>
        <g id="second_line_icon">
            <circle cx="269.624" cy="171.021" r="24.585" style="fill:none;stroke:#eab543;stroke-width:3.57px;"/>
            <path d="M273.532,170.704c0.042,0.003 0.083,0.007 0.124,0.016c0.094,0.019 0.184,0.054 0.266,0.103c0.047,0.028 0.089,0.06 0.13,0.096c2.085,1.941 4.088,3.969 6.131,5.954c0.075,0.075 0.136,0.161 0.179,0.258c0.097,0.22 0.093,0.477 -0.01,0.694c-0.037,0.079 -0.088,0.151 -0.148,0.215c-0.061,0.064 -0.131,0.118 -0.209,0.16c-0.031,0.016 -0.063,0.03 -0.096,0.043c-7.934,2.88 -15.907,5.655 -23.928,8.283c-0.116,0.035 -0.235,0.052 -0.356,0.046c-0.186,-0.01 -0.368,-0.072 -0.521,-0.178c-0.114,-0.078 -0.211,-0.18 -0.284,-0.298c-0.049,-0.078 -0.087,-0.164 -0.112,-0.252c-0.011,-0.036 -0.018,-0.073 -0.025,-0.109c-0.266,-1.688 -0.484,-3.383 -0.725,-5.075c-0.009,-0.071 -0.012,-0.143 -0.005,-0.215c0.022,-0.216 0.121,-0.421 0.278,-0.571c0.062,-0.06 0.132,-0.109 0.208,-0.151c6.174,-3.102 12.467,-5.96 18.701,-8.94c0.068,-0.03 0.138,-0.054 0.211,-0.067c0.042,-0.007 0.084,-0.011 0.127,-0.013c0.032,0 0.032,0 0.064,0.001Zm-18.635,9.853c0.239,1.67 0.477,3.341 0.716,5.011c0.001,0.005 0.002,0.01 0.004,0.015c0.002,0.006 0.005,0.011 0.009,0.016c0.017,0.019 0.04,0.023 0.063,0.015l23.683,-8.198l-5.905,-5.735c-6.19,2.958 -12.38,5.917 -18.57,8.876Zm18.834,-10.746c-0.164,-0.209 -0.324,-0.427 -0.439,-0.615c-0.357,-0.588 -0.122,-1.102 -0.122,-1.102c0,0 -0.276,-0.301 -0.49,-0.49c-0.214,-0.189 0,-0.49 0,-0.49l1.102,-1.714c0,0 0,-0.095 0,-0.148c0,-0.023 0.007,-0.045 0.019,-0.065c0.13,-0.197 0.93,-1.386 2.491,-3.093c1.907,-2.084 4.784,-5.046 5.817,-5.939c1.033,-0.892 1.771,-0.894 2.632,-0.122c0.853,0.764 0.639,1.395 0.062,2.571c-0.642,1.307 -7.989,8.213 -8.594,8.78c-0.025,0.023 -0.058,0.037 -0.093,0.037c-0.054,0 -0.13,0 -0.13,0c0,0 -1.12,1.276 -1.347,1.469c-0.136,0.117 -0.197,0.115 -0.224,0.095c-0.014,-0.022 -0.021,-0.034 -0.021,-0.034c0,0 0.003,0.021 0.021,0.034c0.095,0.153 0.53,0.819 1.51,1.864c0.499,0.532 0.736,0.977 0.845,1.309c0.029,0.094 -0.009,0.197 -0.093,0.249c-0.085,0.051 -0.194,0.039 -0.265,-0.03c-0.853,-0.826 -2.662,-2.584 -2.662,-2.584l-0.019,0.018Z" style="fill:#eab543;"/>
        </g>
        <path id="second_line_legend" d="M270.015,204.64c0.948,0.244 1.61,0.686 1.696,2.051l0,83.001c-0.137,2.182 -3.973,3.222 -4.175,0l0,-83.001c0.078,-1.251 1.102,-2.225 2.479,-2.051Z" style="fill:#eab543;fill-rule:nonzero;"/>
        <g id="second_line_label">
            <path d="M252.105,335.747l0,-0.273c0,-2.174 0.829,-3.595 2.485,-4.263c-1.352,-0.563 -2.029,-1.756 -2.029,-3.579c0,-2.66 1.429,-3.99 4.286,-3.99c2.857,0 4.286,1.33 4.286,3.99c0,1.823 -0.669,3.016 -2.006,3.579c1.641,0.653 2.462,2.074 2.462,4.263l0,0.273c0,1.611 -0.433,2.797 -1.3,3.556c-0.866,0.76 -2.013,1.14 -3.442,1.14c-1.429,0 -2.576,-0.38 -3.442,-1.14c-0.867,-0.759 -1.3,-1.945 -1.3,-3.556Zm1.505,-0.114c0,1.155 0.285,2.025 0.855,2.61c0.57,0.585 1.371,0.878 2.405,0.878c1.033,0 1.827,-0.293 2.382,-0.878c0.555,-0.585 0.832,-1.455 0.832,-2.61l0,-0.319c0,-2.264 -1.079,-3.397 -3.237,-3.397c-2.158,0 -3.237,1.133 -3.237,3.397l0,0.319Zm0.433,-7.887c0,1.884 0.935,2.826 2.804,2.826c1.885,0 2.827,-0.942 2.827,-2.826c0,-1.855 -0.942,-2.782 -2.827,-2.782c-1.869,0 -2.804,0.927 -2.804,2.782Z" style="fill:#eab543;fill-rule:nonzero;"/>
            <path d="M263.754,334.835c0,-0.197 0.054,-0.361 0.16,-0.49c0.106,-0.129 0.243,-0.194 0.41,-0.194l5.927,0c0.152,0 0.285,0.065 0.399,0.194c0.114,0.129 0.171,0.293 0.171,0.49c0,0.183 -0.057,0.335 -0.171,0.456c-0.114,0.122 -0.247,0.183 -0.399,0.183l-5.927,0c-0.38,0 -0.57,-0.213 -0.57,-0.639Z" style="fill:#eab543;fill-rule:nonzero;"/>
            <path d="M272.28,327.29c0,-0.259 0.114,-0.487 0.342,-0.684l1.87,-2.645c0.167,-0.228 0.357,-0.342 0.569,-0.342c0.168,0 0.32,0.054 0.456,0.16c0.137,0.106 0.206,0.243 0.206,0.41l0,15.525c0,0.182 -0.076,0.326 -0.228,0.433c-0.152,0.106 -0.327,0.159 -0.525,0.159c-0.212,0 -0.391,-0.053 -0.535,-0.159c-0.145,-0.107 -0.217,-0.251 -0.217,-0.433l0,-13.519l-0.912,1.482c-0.121,0.183 -0.266,0.274 -0.433,0.274c-0.167,0 -0.308,-0.065 -0.422,-0.194c-0.114,-0.129 -0.171,-0.285 -0.171,-0.467Z" style="fill:#eab543;fill-rule:nonzero;"/>
            <path d="M278.071,339.714l0,-2.212c0,-0.699 0.266,-1.375 0.797,-2.028c0.532,-0.654 1.178,-1.254 1.938,-1.801l2.234,-1.619c0.76,-0.547 1.406,-1.166 1.938,-1.858c0.532,-0.691 0.798,-1.402 0.798,-2.131c0,-0.791 -0.27,-1.49 -0.809,-2.098c-0.54,-0.607 -1.296,-0.911 -2.269,-0.911c-0.82,0 -1.485,0.231 -1.994,0.695c-0.51,0.463 -0.764,1.128 -0.764,1.995c0,0.167 -0.072,0.311 -0.217,0.433c-0.144,0.121 -0.338,0.182 -0.581,0.182c-0.456,0 -0.684,-0.311 -0.684,-0.935c0,-1.094 0.41,-1.998 1.231,-2.712c0.821,-0.715 1.839,-1.072 3.055,-1.072c1.307,0 2.39,0.418 3.248,1.254c0.859,0.836 1.288,1.877 1.288,3.123c0,0.76 -0.19,1.489 -0.57,2.189c-0.379,0.699 -0.851,1.291 -1.413,1.778c-0.562,0.486 -1.178,0.98 -1.846,1.481l-1.847,1.323c-0.562,0.38 -1.033,0.809 -1.413,1.288c-0.38,0.478 -0.57,0.953 -0.57,1.424l0,1.414l7.272,0c0.152,0 0.281,0.068 0.387,0.205c0.107,0.137 0.16,0.296 0.16,0.479c0,0.182 -0.053,0.346 -0.16,0.49c-0.106,0.144 -0.235,0.216 -0.387,0.216l-8.116,0c-0.167,0 -0.326,-0.057 -0.478,-0.171c-0.152,-0.114 -0.228,-0.254 -0.228,-0.421Z" style="fill:#eab543;fill-rule:nonzero;"/>
        </g>
        <path id="second_line" d="M312.3,305.516c0,-3.874 -3.145,-7.019 -7.019,-7.019l-71.313,0c-3.874,0 -7.019,3.145 -7.019,7.019c0,3.873 3.145,7.018 7.019,7.018l71.313,0c3.874,0 7.019,-3.145 7.019,-7.018Z" style="fill:#f7d07b;stroke:#312f2f;stroke-width:4.28px;"/>
        <g id="first_line_phase">
            <path d="M0.006,224.834l0,-12.241c0,-0.143 0.054,-0.254 0.162,-0.332c0.108,-0.078 0.234,-0.117 0.377,-0.117l6.364,0c0.143,0 0.254,0.051 0.332,0.153c0.078,0.102 0.117,0.224 0.117,0.368c0,0.156 -0.039,0.291 -0.117,0.405c-0.078,0.114 -0.189,0.17 -0.332,0.17l-5.716,0l0,4.944l2.84,0c0.131,0 0.236,0.05 0.314,0.152c0.078,0.102 0.117,0.231 0.117,0.387c0,0.323 -0.144,0.485 -0.431,0.485l-2.84,0l0,5.626c0,0.144 -0.06,0.255 -0.18,0.333c-0.12,0.078 -0.258,0.117 -0.414,0.117c-0.395,0 -0.593,-0.15 -0.593,-0.45Z" style="fill:#eab543;fill-rule:nonzero;"/>
            <path d="M5.758,223.037c0,-0.923 0.357,-1.564 1.07,-1.924c0.713,-0.359 1.752,-0.539 3.118,-0.539l0.917,0l0,-0.431c0,-0.659 -0.174,-1.231 -0.521,-1.717c-0.348,-0.485 -0.881,-0.728 -1.6,-0.728c-0.479,0 -0.914,0.087 -1.303,0.261c-0.39,0.174 -0.596,0.261 -0.62,0.261c-0.144,0 -0.258,-0.066 -0.342,-0.198c-0.084,-0.132 -0.126,-0.276 -0.126,-0.432c0,-0.227 0.258,-0.437 0.773,-0.629c0.516,-0.191 1.067,-0.287 1.654,-0.287c1.126,0 1.95,0.326 2.472,0.979c0.521,0.653 0.781,1.483 0.781,2.49l0,4.673c0,0.132 -0.054,0.243 -0.161,0.333c-0.108,0.09 -0.246,0.135 -0.414,0.135c-0.156,0 -0.284,-0.045 -0.386,-0.135c-0.102,-0.09 -0.153,-0.201 -0.153,-0.333l0,-0.791c-0.803,0.923 -1.708,1.384 -2.714,1.384c-0.719,0 -1.306,-0.2 -1.762,-0.602c-0.455,-0.401 -0.683,-0.991 -0.683,-1.77Zm1.169,-0.108c0,0.503 0.143,0.878 0.431,1.123c0.288,0.246 0.665,0.369 1.132,0.369c0.564,0 1.1,-0.21 1.609,-0.629c0.509,-0.42 0.764,-0.839 0.764,-1.258l0,-1.151l-0.755,0c-0.479,0 -0.884,0.018 -1.213,0.054c-0.33,0.036 -0.656,0.102 -0.98,0.198c-0.323,0.096 -0.569,0.251 -0.737,0.467c-0.168,0.216 -0.251,0.491 -0.251,0.827Zm0.683,-8.772c0,-0.156 0.065,-0.263 0.197,-0.323l2.014,-1.097c0.035,-0.036 0.083,-0.054 0.143,-0.054c0.132,0 0.237,0.051 0.315,0.153c0.078,0.102 0.117,0.219 0.117,0.351c0,0.191 -0.072,0.323 -0.216,0.395l-1.923,1.025c-0.06,0.036 -0.12,0.053 -0.18,0.053c-0.12,0 -0.228,-0.05 -0.324,-0.152c-0.095,-0.102 -0.143,-0.219 -0.143,-0.351Z" style="fill:#eab543;fill-rule:nonzero;"/>
            <path d="M13.523,224.816c0,-0.131 0.06,-0.281 0.18,-0.449l4.404,-6.561l-3.973,0c-0.119,0 -0.221,-0.051 -0.305,-0.153c-0.084,-0.102 -0.126,-0.218 -0.126,-0.35c0,-0.144 0.042,-0.267 0.126,-0.369c0.084,-0.102 0.186,-0.152 0.305,-0.152l5.087,0c0.12,0 0.225,0.041 0.315,0.125c0.09,0.084 0.135,0.198 0.135,0.342c0,0.156 -0.048,0.299 -0.144,0.431l-4.422,6.561l4.35,0c0.12,0 0.222,0.051 0.306,0.153c0.084,0.102 0.125,0.231 0.125,0.386c0,0.132 -0.041,0.249 -0.125,0.351c-0.084,0.102 -0.186,0.153 -0.306,0.153l-5.446,0c-0.144,0 -0.261,-0.048 -0.351,-0.144c-0.09,-0.096 -0.135,-0.204 -0.135,-0.324Z" style="fill:#eab543;fill-rule:nonzero;"/>
            <path d="M20.965,221.994l0,-2.013c0,-0.899 0.336,-1.675 1.007,-2.328c0.671,-0.653 1.48,-0.979 2.426,-0.979c0.911,0 1.699,0.311 2.364,0.934c0.665,0.624 0.997,1.402 0.997,2.337c0,0.336 -0.038,0.605 -0.116,0.809c-0.078,0.204 -0.204,0.348 -0.378,0.431c-0.174,0.084 -0.332,0.138 -0.476,0.162c-0.144,0.024 -0.342,0.036 -0.593,0.036l-4.063,0l0,0.665c0,0.707 0.255,1.273 0.764,1.699c0.51,0.425 1.166,0.638 1.969,0.638c0.407,0 0.763,-0.06 1.069,-0.18c0.306,-0.12 0.539,-0.239 0.701,-0.359c0.162,-0.12 0.291,-0.18 0.387,-0.18c0.131,0 0.248,0.063 0.35,0.189c0.102,0.125 0.153,0.248 0.153,0.368c0,0.252 -0.258,0.512 -0.773,0.782c-0.515,0.27 -1.156,0.404 -1.923,0.404c-1.139,0 -2.068,-0.314 -2.787,-0.943c-0.719,-0.629 -1.078,-1.453 -1.078,-2.472Zm1.168,-1.474l3.595,0c0.36,0 0.599,-0.039 0.719,-0.117c0.12,-0.077 0.18,-0.242 0.18,-0.494c0,-0.599 -0.213,-1.126 -0.638,-1.582c-0.425,-0.455 -0.962,-0.683 -1.609,-0.683c-0.623,0 -1.153,0.216 -1.591,0.647c-0.437,0.432 -0.656,0.947 -0.656,1.546l0,0.683Z" style="fill:#eab543;fill-rule:nonzero;"/>
            <path d="M32.451,220.287c0,-0.132 0.033,-0.243 0.099,-0.333c0.066,-0.09 0.153,-0.135 0.26,-0.135l1.978,0l0.431,-2.876l-1.725,0c-0.288,0 -0.432,-0.155 -0.432,-0.467c0,-0.3 0.12,-0.449 0.36,-0.449l1.977,0l0.521,-3.29c0.036,-0.18 0.186,-0.269 0.449,-0.269c0.384,0 0.576,0.173 0.576,0.521l-0.486,3.038l2.283,0l0.521,-3.29c0.036,-0.18 0.186,-0.269 0.45,-0.269c0.383,0 0.575,0.173 0.575,0.521l-0.485,3.038l1.761,0c0.108,0 0.21,0.042 0.306,0.125c0.096,0.084 0.144,0.192 0.144,0.324c0,0.12 -0.039,0.228 -0.117,0.323c-0.078,0.096 -0.165,0.144 -0.261,0.144l-1.977,0l-0.467,2.876l1.761,0c0.108,0 0.21,0.045 0.306,0.135c0.096,0.09 0.143,0.201 0.143,0.333c0,0.119 -0.038,0.224 -0.116,0.314c-0.078,0.09 -0.165,0.135 -0.261,0.135l-1.995,0l-0.557,3.577c-0.06,0.24 -0.228,0.36 -0.504,0.36c-0.156,0 -0.287,-0.045 -0.395,-0.135c-0.108,-0.09 -0.162,-0.219 -0.162,-0.387l0.521,-3.415l-2.247,0l-0.557,3.559c-0.012,0.12 -0.069,0.213 -0.171,0.279c-0.101,0.066 -0.206,0.099 -0.314,0.099c-0.156,0 -0.288,-0.045 -0.396,-0.135c-0.107,-0.09 -0.161,-0.219 -0.161,-0.387l0.503,-3.415l-1.708,0c-0.287,0 -0.431,-0.15 -0.431,-0.449Zm3.397,-0.468l2.265,0l0.449,-2.876l-2.264,0l-0.45,2.876Z" style="fill:#eab543;fill-rule:nonzero;"/>
            <path d="M42.697,215.02c0,-0.204 0.09,-0.383 0.269,-0.539l1.474,-2.085c0.132,-0.18 0.282,-0.27 0.45,-0.27c0.131,0 0.251,0.042 0.359,0.126c0.108,0.084 0.162,0.192 0.162,0.323l0,12.241c0,0.144 -0.06,0.258 -0.18,0.342c-0.12,0.084 -0.257,0.126 -0.413,0.126c-0.168,0 -0.309,-0.042 -0.423,-0.126c-0.114,-0.084 -0.17,-0.198 -0.17,-0.342l0,-10.659l-0.719,1.169c-0.096,0.143 -0.21,0.215 -0.342,0.215c-0.132,0 -0.243,-0.051 -0.333,-0.153c-0.089,-0.101 -0.134,-0.224 -0.134,-0.368Z" style="fill:#eab543;fill-rule:nonzero;"/>
        </g>
        <path id="first_line_curve" d="M59.665,218.991c0.682,0.194 0.706,1.268 -0.125,1.345l-4.067,0c-0.761,-0.071 -0.865,-1.276 0,-1.356l4.067,0c0.042,0.004 0.083,0.007 0.125,0.011Zm17.625,0c0.683,0.194 0.706,1.268 -0.124,1.345l-4.068,0c-0.751,-0.07 -0.943,-1.269 0,-1.356l4.068,0c0.041,0.004 0.083,0.007 0.124,0.011Zm17.626,0c0.671,0.191 0.69,1.269 -0.124,1.345l-4.068,0c-0.741,-0.069 -0.847,-1.278 0,-1.356l4.068,0c0.041,0.004 0.083,0.007 0.124,0.011Zm17.626,0c0.67,0.191 0.659,1.272 -0.125,1.345l-4.067,0c-0.742,-0.069 -0.903,-1.273 0,-1.356l4.067,0c0.042,0.004 0.083,0.007 0.125,0.011Z" style="fill:#eab543;fill-rule:nonzero;"/>
        <g id="first_line_icon">
            <path d="M147.768,200.322c0.308,0 0.607,0.109 0.845,0.307l6.953,5.792c0.14,0.145 0.206,0.348 0.176,0.548c-0.001,0.189 -0.109,0.362 -0.278,0.445l-1.012,0.325l-1.076,0l0,7.535l-0.014,0.089c-0.041,0.08 -0.042,0.081 -0.105,0.144l-2.967,2.156l0,1.623l-0.022,0.111c-0.054,0.081 -0.061,0.116 -0.156,0.156c-0.035,0.014 -0.074,0.015 -0.111,0.022l-0.414,0l0,5.413l-0.015,0.093c-0.044,0.083 -0.044,0.083 -0.113,0.147l-1.396,0.937l0.105,0.596l1.235,0.481l0.097,0.062l0.065,0.095l0.022,0.112l0,1.283c-0.017,0.092 -0.01,0.126 -0.078,0.198c-0.024,0.026 -0.058,0.042 -0.087,0.064l-1.147,0.542l0.064,0.989l1.032,0.266l0.112,0.058l0.077,0.099l0.027,0.123l0,0.89l-0.025,0.118l-0.071,0.097l-0.909,0.813l0.855,0.465c0.026,0.021 0.057,0.038 0.08,0.064c0.061,0.071 0.055,0.102 0.07,0.189l0,0.946c-0.019,0.104 -0.02,0.105 -0.076,0.195l-2.772,3.009l-0.097,0.07l-0.117,0.024l-0.117,-0.026l-0.096,-0.07l-0.276,-0.308l-0.054,-0.089l-0.019,-0.103l0,-17.934l-0.197,0l0,17.07l-0.023,0.113l-0.065,0.095l-0.097,0.062l-0.114,0.019l-0.112,-0.027l-0.093,-0.069l-1.009,-1.126l-0.055,-0.089l-0.019,-0.103l0,-15.853l-0.414,0l-0.11,-0.022c-0.081,-0.054 -0.117,-0.061 -0.157,-0.156c-0.014,-0.035 -0.014,-0.074 -0.022,-0.111l0,-1.623l-2.967,-2.156l-0.063,-0.063c-0.041,-0.08 -0.041,-0.081 -0.056,-0.17l-0.022,-7.535l-1.076,0l-1.012,-0.325c-0.169,-0.083 -0.277,-0.256 -0.278,-0.445c-0.03,-0.2 0.036,-0.403 0.176,-0.548l6.953,-5.792c0.238,-0.198 0.537,-0.307 0.845,-0.307l1.792,0Zm5.03,7.607l-11.851,0l0.021,7.197l2.967,2.156c0.056,0.056 0.08,0.066 0.105,0.144c0.009,0.029 0.009,0.06 0.014,0.09l0,1.481l0.414,0l0.111,0.022c0.093,0.062 0.094,0.064 0.156,0.157l0.022,0.11l0,16.031l0.432,0.482l0,-16.605l0.022,-0.111c0.062,-0.093 0.063,-0.094 0.156,-0.156l0.11,-0.022l0.775,0l0.11,0.022c0.031,0.021 0.063,0.042 0.094,0.062l0.062,0.094l0.022,0.111l0,18.089l2.47,-2.681l0,-0.661l-1.064,-0.578c-0.028,-0.023 -0.061,-0.041 -0.084,-0.07c-0.048,-0.057 -0.071,-0.131 -0.066,-0.205c0.003,-0.037 0.013,-0.073 0.029,-0.106c0.017,-0.033 0.045,-0.059 0.067,-0.088l1.118,-1l0,-0.537l-1.018,-0.263l-0.108,-0.054l-0.076,-0.092l-0.032,-0.115l-0.09,-1.394l0.015,-0.113l0.058,-0.098l0.092,-0.068l1.159,-0.549l0,-0.902l-1.203,-0.468c-0.074,-0.044 -0.103,-0.049 -0.147,-0.127c-0.016,-0.028 -0.022,-0.062 -0.033,-0.092l-0.166,-0.943c0.002,-0.095 -0.011,-0.128 0.046,-0.212c0.02,-0.03 0.052,-0.052 0.078,-0.078l1.425,-0.955l0,-5.548l0.022,-0.11c0.062,-0.093 0.063,-0.095 0.156,-0.157l0.111,-0.022l0.413,0l0,-1.481c0.013,-0.078 0.007,-0.104 0.056,-0.17c0.017,-0.025 0.042,-0.043 0.063,-0.064l2.967,-2.156l0,-7.197Zm-3.023,6.493l-2.413,0c-0.012,-0.001 -0.015,-0.001 -0.026,-0.002c-0.014,-0.002 -0.026,-0.005 -0.039,-0.009c-0.054,-0.02 -0.097,-0.063 -0.117,-0.117c-0.004,-0.013 -0.007,-0.026 -0.009,-0.039c-0.002,-0.011 -0.001,-0.014 -0.002,-0.026l0,-2.414c0.001,-0.011 0,-0.014 0.002,-0.026c0.002,-0.013 0.005,-0.026 0.009,-0.038c0.02,-0.054 0.063,-0.098 0.117,-0.117c0.013,-0.004 0.025,-0.007 0.039,-0.009c0.011,-0.002 0.014,-0.002 0.026,-0.002c0.809,0 1.618,-0.027 2.426,0c0.012,0.002 0.015,0.002 0.026,0.004c0.013,0.003 0.026,0.007 0.038,0.012c0.053,0.023 0.093,0.069 0.109,0.125c0.003,0.012 0.005,0.025 0.006,0.038c0.001,0.005 0.001,0.009 0.001,0.013l0,2.414c-0.001,0.012 0,0.015 -0.002,0.026c-0.002,0.013 -0.005,0.026 -0.009,0.039c-0.02,0.054 -0.063,0.097 -0.117,0.117c-0.013,0.004 -0.025,0.007 -0.039,0.009c-0.011,0.001 -0.014,0.001 -0.026,0.002Zm-3.37,0l-2.414,0c-0.011,-0.001 -0.014,-0.001 -0.026,-0.002c-0.013,-0.002 -0.026,-0.005 -0.038,-0.009c-0.054,-0.02 -0.098,-0.063 -0.117,-0.117c-0.005,-0.013 -0.008,-0.026 -0.01,-0.039c-0.001,-0.011 -0.001,-0.014 -0.001,-0.026l0,-2.414c0,-0.011 0,-0.014 0.001,-0.026c0.002,-0.013 0.005,-0.026 0.01,-0.038c0.019,-0.054 0.063,-0.098 0.117,-0.117c0.012,-0.004 0.025,-0.008 0.038,-0.009c0.012,-0.002 0.015,-0.002 0.026,-0.002c0.809,0 1.619,-0.027 2.427,0c0.004,0.001 0.009,0.001 0.013,0.002c0.013,0.001 0.026,0.005 0.038,0.009c0.055,0.019 0.098,0.063 0.117,0.117c0.005,0.012 0.008,0.025 0.01,0.038c0.001,0.012 0.001,0.015 0.001,0.026l0,2.414c0,0.012 0,0.015 -0.001,0.026c-0.002,0.013 -0.005,0.026 -0.01,0.039c-0.019,0.054 -0.062,0.097 -0.117,0.117c-0.012,0.004 -0.025,0.007 -0.038,0.009c-0.011,0.001 -0.014,0.001 -0.026,0.002Zm3.178,-2.414l-2.029,0l0,2.029l2.029,0l0,-2.029Zm-3.371,0l-2.028,0l0,2.029l2.028,0l0,-2.029Zm3.563,-0.859l-2.413,0c-0.012,0 -0.015,0 -0.026,-0.002c-0.014,-0.001 -0.026,-0.005 -0.039,-0.009c-0.054,-0.019 -0.097,-0.063 -0.117,-0.117c-0.004,-0.012 -0.007,-0.025 -0.009,-0.038c-0.002,-0.012 -0.001,-0.015 -0.002,-0.026l0,-2.414c0.001,-0.012 0,-0.015 0.002,-0.026c0.002,-0.013 0.005,-0.026 0.009,-0.038c0.02,-0.055 0.063,-0.098 0.117,-0.117c0.013,-0.005 0.025,-0.008 0.039,-0.01c0.011,-0.001 0.014,-0.001 0.026,-0.002c0.809,0 1.618,-0.027 2.426,0.001c0.005,0 0.009,0.001 0.013,0.001c0.014,0.002 0.026,0.005 0.039,0.01c0.054,0.019 0.097,0.062 0.117,0.117c0.004,0.012 0.007,0.025 0.009,0.038c0.002,0.011 0.001,0.014 0.002,0.026l0,2.414c-0.001,0.011 0,0.014 -0.002,0.026c-0.002,0.013 -0.005,0.026 -0.009,0.038c-0.02,0.054 -0.063,0.098 -0.117,0.117c-0.013,0.004 -0.025,0.008 -0.039,0.009c-0.011,0.002 -0.014,0.002 -0.026,0.002Zm-3.37,0l-2.414,0c-0.011,0 -0.014,0 -0.026,-0.002c-0.013,-0.001 -0.026,-0.005 -0.038,-0.009c-0.054,-0.019 -0.098,-0.063 -0.117,-0.117c-0.005,-0.012 -0.008,-0.025 -0.01,-0.038c-0.001,-0.012 -0.001,-0.015 -0.001,-0.026l0,-2.414c0,-0.012 0,-0.015 0.001,-0.026c0.002,-0.013 0.005,-0.026 0.01,-0.038c0.019,-0.055 0.063,-0.098 0.117,-0.117c0.012,-0.005 0.025,-0.008 0.038,-0.01c0.012,-0.001 0.015,-0.001 0.026,-0.002c0.809,0 1.619,-0.027 2.427,0.001c0.004,0 0.009,0.001 0.013,0.001c0.013,0.002 0.026,0.005 0.038,0.01c0.055,0.019 0.098,0.062 0.117,0.117c0.005,0.012 0.008,0.025 0.01,0.038c0.001,0.011 0.001,0.014 0.001,0.026l0,2.414c0,0.011 0,0.014 -0.001,0.026c-0.002,0.013 -0.005,0.026 -0.01,0.038c-0.019,0.054 -0.062,0.098 -0.117,0.117c-0.012,0.004 -0.025,0.008 -0.038,0.009c-0.011,0.002 -0.014,0.002 -0.026,0.002Zm3.178,-2.413l-2.029,0l0,2.028l2.029,0l0,-2.028Zm-3.371,0l-2.028,0l0,2.028l2.028,0l0,-2.028Z" style="fill:#eab543;fill-rule:nonzero;"/>
            <circle cx="146.763" cy="219.167" r="24.585" style="fill:none;stroke:#eab543;stroke-width:3.57px;"/>
        </g>
        <path id="firt_line_legend" d="M147.118,252.803c1.016,0.166 1.76,0.998 1.802,2.034l0,34.855c-0.087,2.169 -3.977,2.988 -4.097,0l0,-34.855c0.059,-1.475 2.033,-2.055 2.295,-2.034Z" style="fill:#eab543;fill-rule:nonzero;"/>
        <g id="first_line_label">
            <path d="M134.083,327.29c0,-0.259 0.114,-0.487 0.342,-0.684l1.869,-2.645c0.168,-0.228 0.358,-0.342 0.57,-0.342c0.168,0 0.319,0.054 0.456,0.16c0.137,0.106 0.205,0.243 0.205,0.41l0,15.525c0,0.182 -0.076,0.326 -0.228,0.433c-0.152,0.106 -0.326,0.159 -0.524,0.159c-0.213,0 -0.391,-0.053 -0.536,-0.159c-0.144,-0.107 -0.216,-0.251 -0.216,-0.433l0,-13.519l-0.912,1.482c-0.122,0.183 -0.266,0.274 -0.433,0.274c-0.167,0 -0.308,-0.065 -0.422,-0.194c-0.114,-0.129 -0.171,-0.285 -0.171,-0.467Z" style="fill:#eab543;fill-rule:nonzero;"/>
            <path d="M140.284,334.835c0,-0.197 0.053,-0.361 0.159,-0.49c0.107,-0.129 0.244,-0.194 0.411,-0.194l5.927,0c0.152,0 0.285,0.065 0.399,0.194c0.114,0.129 0.171,0.293 0.171,0.49c0,0.183 -0.057,0.335 -0.171,0.456c-0.114,0.122 -0.247,0.183 -0.399,0.183l-5.927,0c-0.38,0 -0.57,-0.213 -0.57,-0.639Z" style="fill:#eab543;fill-rule:nonzero;"/>
            <path d="M149.494,335.747l0,-0.273c0,-2.174 0.828,-3.595 2.484,-4.263c-1.352,-0.563 -2.028,-1.756 -2.028,-3.579c0,-2.66 1.428,-3.99 4.285,-3.99c2.857,0 4.286,1.33 4.286,3.99c0,1.823 -0.669,3.016 -2.006,3.579c1.641,0.653 2.462,2.074 2.462,4.263l0,0.273c0,1.611 -0.433,2.797 -1.299,3.556c-0.867,0.76 -2.014,1.14 -3.443,1.14c-1.428,0 -2.576,-0.38 -3.442,-1.14c-0.866,-0.759 -1.299,-1.945 -1.299,-3.556Zm1.504,-0.114c0,1.155 0.285,2.025 0.855,2.61c0.57,0.585 1.372,0.878 2.405,0.878c1.034,0 1.828,-0.293 2.382,-0.878c0.555,-0.585 0.832,-1.455 0.832,-2.61l0,-0.319c0,-2.264 -1.079,-3.397 -3.237,-3.397c-2.158,0 -3.237,1.133 -3.237,3.397l0,0.319Zm0.433,-7.887c0,1.884 0.935,2.826 2.804,2.826c1.885,0 2.827,-0.942 2.827,-2.826c0,-1.855 -0.942,-2.782 -2.827,-2.782c-1.869,0 -2.804,0.927 -2.804,2.782Z" style="fill:#eab543;fill-rule:nonzero;"/>
        </g>
        <path id="first_line" d="M226.067,305.516c0,-3.874 -3.145,-7.019 -7.018,-7.019l-144.354,0c-3.873,0 -7.018,3.145 -7.018,7.019c0,3.873 3.145,7.018 7.018,7.018l144.354,0c3.873,0 7.018,-3.145 7.018,-7.018Z" style="fill:#db8039;stroke:#312f2f;stroke-width:4.28px;"/>
        <path id="start_point_label" d="M49.566,334.313l0,-8.932c0,-2.113 0.543,-3.664 1.628,-4.653c1.086,-0.99 2.541,-1.484 4.366,-1.484c1.824,0 3.28,0.494 4.365,1.484c1.085,0.989 1.628,2.54 1.628,4.653l0,8.932c0,2.132 -0.543,3.693 -1.628,4.682c-1.085,0.99 -2.541,1.484 -4.365,1.484c-1.825,0 -3.28,-0.494 -4.366,-1.484c-1.085,-0.989 -1.628,-2.55 -1.628,-4.682Zm1.902,0c0,2.939 1.364,4.409 4.092,4.409c2.727,0 4.091,-1.47 4.091,-4.409l0,-8.932c0,-2.92 -1.364,-4.38 -4.091,-4.38c-2.728,0 -4.092,1.46 -4.092,4.38l0,8.932Zm3.054,-4.437c0,-0.307 0.101,-0.557 0.303,-0.749c0.202,-0.192 0.456,-0.288 0.763,-0.288c0.289,0 0.533,0.096 0.735,0.288c0.202,0.192 0.303,0.442 0.303,0.749c0,0.288 -0.101,0.538 -0.303,0.749c-0.202,0.211 -0.446,0.317 -0.735,0.317c-0.307,0 -0.561,-0.106 -0.763,-0.317c-0.202,-0.211 -0.303,-0.461 -0.303,-0.749Z" style="fill:#eab543;fill-rule:nonzero;"/>
        <circle id="start_point" cx="55.56" cy="304.897" r="7.559" style="fill:#312f2f;"/>
    </g>
</svg>
